<?xml version="1.0" encoding="utf-8"?>
<!-- Generator: Adobe Illustrator 28.1.0, SVG Export Plug-In . SVG Version: 6.00 Build 0)  -->
<svg version="1.1" id="Layer_1" xmlns="http://www.w3.org/2000/svg" xmlns:xlink="http://www.w3.org/1999/xlink" x="0px" y="0px"
	 viewBox="0 0 250 250" style="enable-background:new 0 0 250 250;" xml:space="preserve">
<style type="text/css">
	.st0{opacity:0.91;}
	.st1{fill:#FFE8E7;}
	.st2{fill:#FFFFFF;}
</style>
<g class="st0">
	<g>
		<path class="st1" d="M74.2,152.9c14.8-16.1,35.5-27.1,56.7-32.1c-23.1,8.2-42.8,25.1-55.9,46c19.5-3.8,38.5-3.2,57.3-9.7
			c5.9-2.1,11.7-4.7,17.2-8.1c0.5-0.5,1.1-0.8,1.5-1.2c3.7-3.2,7.2-6.9,8.7-11.6c1.5-4.6,0.8-10.2-2.9-13.6
			c-2.7-2.4-6.9-3.4-8.7-6.5c-3.2-5,1.5-12-0.6-17.7c-1.2-3-4.3-5-7.5-5.6c-3.2-0.6-6.5,0-9.6,0.9c-6.5,1.8-12.6,4.7-18.3,8.5
			c-0.3,0.3-0.6,0.6-0.9,0.9C96.6,117.8,84.1,134.6,74.2,152.9z"/>
		<path class="st2" d="M112.1,102.3c5.5-3.8,11.7-6.9,18.3-8.5c3.2-0.9,6.4-1.5,9.6-0.9s6.2,2.6,7.5,5.6c2.1,5.6-2.6,12.5,0.6,17.7
			c2,3.2,5.9,4.1,8.7,6.5c3.7,3.2,4.4,8.8,2.9,13.6c-1.5,4.6-4.9,8.4-8.7,11.6c-0.5,0.5-1.1,0.8-1.5,1.2
			c8.5-5.2,16.3-11.9,21.6-20.4c3-4.9,8.1-12.5,1.8-16.9c-4.4-3-10.5-1.8-14.2-6.2c-2.3-2.6,0.2-6.9,1.5-9.6
			c1.5-3.2,2.4-7.5-0.2-9.9c-0.9-0.9-2.1-1.2-3.4-1.7c-8.4-2.3-17.4-0.6-25.1,3.4C124.3,91.2,117.9,96.5,112.1,102.3z"/>
	</g>
</g>
</svg>
