<?xml version="1.0" encoding="utf-8"?>
<!-- Generator: Adobe Illustrator 28.1.0, SVG Export Plug-In . SVG Version: 6.00 Build 0)  -->
<svg version="1.1" id="Layer_1" xmlns="http://www.w3.org/2000/svg" xmlns:xlink="http://www.w3.org/1999/xlink" x="0px" y="0px"
	 viewBox="0 0 250 250" style="enable-background:new 0 0 250 250;" xml:space="preserve">
<style type="text/css">
	.st0{fill-rule:evenodd;clip-rule:evenodd;fill:#DFFFFF;}
</style>
<path class="st0" d="M165.8,164.2c0.1,1.8-0.1,3.3-0.8,4.1c-0.2,0.1-0.4,0.3-0.6,0.4c-2.2,1.1-6.6-0.5-11-1.2
	c-3.1-0.5-6.2-0.4-8.3,1.5c3-2.3,2.4-5.3,0.8-8c-0.9-1.5-2.2-3-3.2-4.2c-0.1-0.1-0.3-0.3-0.6-0.6c-0.7-0.8-1.9-2-3.1-3.4
	c-1.3-1.4-2.6-2.9-3.5-4.1c-0.8-1-1.4-1.9-1.4-2.3c0.3,0,1.1,0.1,2.1,0.2c2.4,0.1,5.5-0.2,3.5-2.5c-0.7-0.8-1.6-1-2.5-0.9
	c-0.9,0.1-1.9,0.5-2.6,0.9c-0.5,0.3-0.9,0.6-1.2,0.8c-0.4-0.3-0.8-2.8-1.1-5.6c-0.4-3.4-0.8-7.2-0.8-7.7l0-0.1h0
	c0.2,0,1.4,0.3,3,0.7c1.1,0.2,2.3,0.5,3.6,0.8c0.8,0.2,1.5,0.4,2.2,0.5c1.9,0.5,3.5,1,3.7,1.3c-1.2,1.1-3.2,4.3-1.4,6.2l0.1,0.1
	c2.9,2.7,2.7-4.6,2.7-5.6c0.5,0.1,1.4,0.9,2.6,2c1.3,1.2,2.7,2.8,4,4.2c1.3,1.5,2.5,2.8,3,3.3c1.2,1.3,2.7,2.8,4.3,3.9
	c2.5,1.6,5.2,2.3,7.6-0.4C163.6,151.7,165.6,159.3,165.8,164.2L165.8,164.2z M125.6,74.4c0.2,0,0.4,0,0.6,0c1.2-0.1,2.4-0.3,3.4-0.6
	c0.4-0.1,0.7-0.3,1.1-0.4c-0.4,0.3-0.8,0.5-1.2,0.7c-1,0.5-2.2,1-3.7,1.4c-0.2,0-0.4,0.1-0.6,0.1l-0.1,0c-1.7,0.4-3.4,1.4-0.8,2.4
	c0.1,0,0.2,0.1,0.3,0.1c0.1,0,0.2,0.1,0.2,0.1c1.2,0.5,1.9,1.6,2.3,3c1.3,4.8-1.7,13.8-5.7,17.9c-0.5,0.5-1,0.9-1.5,1.3
	c-0.6-0.1-1.3-0.3-2-0.6c-0.2-0.1-0.4-0.2-0.5-0.2c-0.5-0.2-1.1-0.5-1.6-0.8c-1.5-0.9-3.1-2.1-4.5-3.5c-1.1-1.1-2.2-2.3-3-3.5
	c-2.7-3.7-3.9-7.7-1.6-9.8c2.5-2.2,0.2-2.4-1.6-2.1c-2.9,0.6-5.1,0.5-6.8,0c-0.5-0.2-0.9-0.3-1.3-0.5c0.5,0.1,1,0.1,1.4,0.2
	c2.8,0.2,5.7-0.3,8.5-1.9l0,0c1.9-0.1,3.8-0.2,5.8,0c0.8,0.1,1.5,0.1,2.3,0.3c0.7-0.5,1.4-0.9,2.1-1.3c1.8-0.9,3.6-1.7,5.5-2.4
	c0.3,0,0.6,0.1,0.9,0.1C124.4,74.5,125,74.5,125.6,74.4L125.6,74.4z M130.8,73.5c3.3-2.2,3.3-4.9,2.4-4.2c-0.8,0.6-1.7,1.2-2.6,1.7
	c-1.2,0.7-2.5,1.3-3.9,1.8c-0.2,0.1-0.5,0.2-0.7,0.3c-0.7,0.3-1.4,0.5-2.1,0.8c-0.3,0.1-0.7,0.3-1,0.4c-1.1-0.1-2.3-0.3-3.5-0.5
	c0-0.9-0.1-1.8-0.2-2.7c-0.4-3.2-1.3-6.3-0.5-9.7c0.2-0.5,2.3-2.1,4.9-4.1c2.6-2,5.8-4.6,7.8-6.8c1.4-1.6,2.2-3.1,1.9-4.3
	c-0.1-0.3-0.2-0.6-0.3-0.8c-1.1-2.6-3.2-1.9-5.6,0.1c-1.9,1.6-4.1,4-6.1,6.2c-2.5,2.7-4.7,5-6.1,5c0.5-1.4-0.9-5.5-1.4-7.2
	c-0.8-2.5-1.6-5.6-0.7-8.3c1.7-5.3,7.7,1.2,10.2-6.5c2.1-6.4-3.1-2.3-5.9-1.5c-2,0.4-2.7,0.6-4.1,0.3c-0.5-0.1-1.1-0.3-1.9-0.6
	c0.4-0.7,2-2,3-2.9c0.4-0.3,0.7-0.5,0.8-0.6c1.6-1,2-1.2,3.3-3c1.6-2.2,3.8-6.6,3.3-9.1c-0.4-1.8-1.8-1.8-3.1-1.1
	c-0.5,0.3-0.9,0.6-1.3,1c-2.2,2.2-2.3,6.1-4.3,8.1c-1.4,1.5-3.1,2.7-5.1,2.1c0.3-1-0.7-2.1,0-4.1l1.4-4.3c0.9-2.9,0-4.8-1.9-6.4
	c-0.3-0.2-0.6-0.5-0.9-0.7c-0.6-0.5-1.3-0.9-2-1.3c-0.9-0.5-1.9-1.1-2.9-1.6c-0.3-0.2-0.6-0.3-0.8-0.5c-0.2-0.2-0.5-0.3-0.7-0.5
	c-3.4,5.1-8,9.2-3.8,13.8l0.2,0.3l0.7,0.8l2.1,2.3c0.2,0.2,0.3,0.4,0.4,0.6c0.9,1.3,0.6,2.5,1.2,3.2c-0.7,0.7-1.6,0.9-2.5,0.9
	c-1,0-2-0.3-3-0.7c-0.1,0-0.1-0.1-0.2-0.1c-0.3-0.1-0.6-0.3-0.8-0.4c-1.2-0.8-2.3-2.1-3.5-3.2c-0.8-0.8-1.7-1.5-2.7-1.9
	c-2-0.8-4.5-0.5-4,1.9c0.4,1.9,2.8,4.2,4.9,5.7c0.7,0.5,1.3,0.9,1.9,1.2c0.9,0.5,1.5,0.7,2,0.9c0.3,0.1,0.6,0.1,0.9,0.2
	c0.4,0.1,0.8,0.1,1.3,0.2c0.3,0.1,1,0.2,1.9,0.5c0.8,0.2,1.6,0.5,2.2,0.7c0.4,0.1,0.7,0.3,0.8,0.4c-0.5,0.5-1,0.9-1.3,1.2
	c-1,0.8-1.6,1-2.9,1.3c-0.3,0.1-0.7,0.1-1.2,0.2c-0.7,0.1-1.5,0.1-2.4,0.1c-0.3,0-0.7,0-1,0c-2.5,0-4.4,0.4-1.4,3.7l0.2,0.2
	c0.3,0.3,0.5,0.5,0.7,0.7c1.1,1,2.1,1.3,3,1.3c1,0.1,1.8-0.3,2.7-0.7c0.4-0.2,0.9-0.4,1.3-0.6c1.4-0.6,2.6-0.8,4.1,0.8
	c2,2.2,2.5,5.4,2.8,7.9c0.2,1.2,0.4,3.8,0.9,5.5c0.2,0.7,0.5,1.3,0.7,1.6c-0.3,0.2-0.8,0.2-1.3,0.1c-2.4-0.3-6.9-2.6-11-4.2
	c-0.3-0.1-0.7-0.3-1-0.4c-0.8-0.3-1.5-0.5-2.2-0.7c-1.3-0.3-2.4-0.5-3.3-0.4c-0.4,0.1-0.8,0.2-1.1,0.4c-0.6,0.5-0.9,1.3-0.8,2.6
	c0,0.2,0,0.3,0.1,0.5c0.1,0.4,0.2,0.7,0.5,1c0.5,0.7,1.5,1.4,2.8,2c0.7,0.3,1.4,0.6,2.2,0.9c0.3,0.1,0.6,0.2,1,0.3
	c4,1.3,8.8,2.3,11.4,3c0.9,0.2,1.6,0.5,1.7,0.6c2.8,3.6,2.7,7.7,4.4,11.6c-0.9,0.8-1.8,1.4-2.7,1.9l0,0c-2.7,0.1-5.4,0.3-8,0.2
	c-1.3-0.1-2.5-0.2-3.7-0.5c-0.9-0.2-0.4,1.2,1.7,2.1c-3.6-0.5-7-2.1-9.7-3.5c-0.3-0.2-0.7-0.3-1-0.5c-0.8-0.4-1.4-0.8-2.1-1.1
	c-1.2-0.7-2.2-1.2-3-1.4c-0.4-0.1-0.8-0.1-1,0.1c0,0,0,0-0.1,0c-0.1,0.1-0.2,0.4-0.2,0.8c0,0.5,0.1,1.2,0.3,2.1
	c0.4,1.6,0.9,3.8,1.4,6.3c0.3,1.7,0.6,3.6,0.7,5.6c0.1,1.2,0.1,2.4,0,3.6c0,0.5-0.1,0.9-0.1,1.4c-0.1-0.2-0.1-0.3-0.2-0.5
	c-0.2-0.6-0.5-1-0.7-1.3c-0.6-0.9-1.2-0.9-1.2-0.3c0.1,1.2,0.2,2.3,0.2,3.5c0,1.7-0.3,3.4-0.5,5.2c-0.1,0.7-0.2,1.4-0.3,2.2
	c-0.2,0.5-0.5,0.9-0.8,1.3c-0.4,0.7-0.9,1.4-1.5,2.1l-0.2-0.1c-0.7-0.4-1.4-0.7-2.1-1c-1-0.4-2-0.8-3-1.1c-0.3-0.1-0.6-0.2-0.9-0.3
	c-1.3-0.6-2.6-1.2-3.8-2.1c-0.3-0.2-0.6-0.5-1-0.8c-0.9-1.1-1.4-17.8-5.5-20c-0.2-0.1-0.3-0.1-0.5-0.2c-5-1.3-4.1,3.8-2.4,9.3
	c1.5,4.8,3.4,10,2.5,11.5c-0.8-0.9-3.5-1.6-5.5-2.1c-0.6-0.1-1.1-0.3-1.5-0.3c-1.2-0.3-2.5-0.6-3.8-1.1C48.3,95.9,47,95.1,46,94
	l-0.1-0.1c-3.8-4.2,4.9-6.1-0.5-12.1c-0.2-0.2-0.4-0.4-0.5-0.5c-3.9-3.9-3,2.2-3.8,4.9c-0.8,2.7-0.8,2.9-3.2,5.1
	c-0.5-0.9-1.1-4.3-1.1-5.1c-0.1-1.9-0.1-2.4-0.9-4.4c-1-2.5-3.8-6.5-6.2-7.3c-0.3-0.1-0.5-0.1-0.7-0.1c-1.7-0.1-2.1,2.1-1.6,3.9
	c0.1,0.2,0.1,0.3,0.2,0.5c1,2.7,4,4.7,4.7,7.2c0.6,2,0.8,4-0.7,5.4c-0.7-0.8-2.2-0.4-3.6-2l-2.8-3.1l-0.2-0.2
	c-4.2-4.6-8.7-0.3-14.2,2.5c2.8,5.5,4,11.5,10.1,10.2l0.3-0.1l4.1-0.9c2-0.4,3,0.7,4,0.4c0.4,2-1,3.5-2.6,4.8
	c-2,1.6-5.5,1.6-7.9,3.1c-0.2,0.1-0.3,0.2-0.5,0.4c-1.5,1.2-2.5,3.2-0.9,4.1c0.2,0.1,0.3,0.2,0.6,0.2c2.5,0.8,7.1-1,9.4-2.4
	c1.8-1.1,2.1-1.5,3.3-3c0.5-0.6,2.9-3,3.8-3.5c0.7,3.2,0.6,3.4-0.3,6c-0.9,2.7-5.2,7.1,0.3,6.2c0.2,0,0.4-0.1,0.7-0.1
	c7.9-1.7,2-8.3,7.5-9.5l0.1,0c1.5-0.3,3-0.1,4.4,0.2c1.3,0.3,2.6,0.8,3.7,1.3c0.4,0.1,0.9,0.3,1.4,0.6c1.9,0.8,4.5,1.8,5.6,1.5
	c-0.1,1.8-4.6,4.8-8.6,7.9c-4.6,3.6-8.3,7.2-3.5,9.1c0.2,0.1,0.4,0.1,0.5,0.1c4.6,0.4,14.6-12.8,16-13.1c0.4-0.1,0.9-0.1,1.3-0.1
	c1.5,0,3,0.2,4.4,0.5c0.3,0.1,0.6,0.2,0.9,0.2c1,0.3,2.1,0.6,3.1,0.8c0.8,0.2,1.5,0.3,2.3,0.4l0.3,0c0.1,0.7,0.2,1.4,0.2,2.1
	c0,0.5,0,0.9,0,1.4c-0.4,0.8-0.8,1.6-1.2,2.4c-0.8,1.6-1.6,3.1-2.6,4.5c-0.7,1-1.4,2-2.3,2.9c-0.4,0.5,0.2,0.7,1.2,0.4
	c0.4-0.1,0.9-0.4,1.4-0.7c0.7-0.5,1.5-1.2,2.2-2.2c-0.8,2.2-2,4.1-3.3,5.7c-0.6,0.7-1.2,1.3-1.7,1.9c-1.1,1.1-2.3,2.1-3.4,2.9
	c-2,1.5-3.8,2.5-4.4,3.2c-0.2,0.2-0.3,0.4-0.3,0.5c0,0.1,0,0.1,0,0.1c0.3,0.4,1.5,0.5,3.2,0.8c0.7,0.1,1.5,0.3,2.3,0.4
	c0.4,0.1,0.7,0.1,1.1,0.2c3.3,0.8,7.3,2.1,10.7,5.1c0.1,0.1,0.2,0.2,0.3,0.3c-0.1-0.1-0.2-0.1-0.3-0.2c-3.5-1.5-5.6-0.3-4.6,0.1
	c1.4,0.6,2.7,1.3,3.9,2.1c2,1.3,3.8,2.8,5.7,4.3c0.5,1,0.9,2.1,1.2,3.2c-3.6,2.1-6,5.5-10.4,6.8c-0.2,0-0.5,0-1.1-0.2
	c-2.1-0.7-6.7-2.8-11-4.2c-0.3-0.1-0.7-0.2-1-0.3c-0.8-0.2-1.6-0.4-2.3-0.6c-1.3-0.3-2.4-0.4-3.3-0.3c-0.4,0-0.8,0.1-1.1,0.3
	c-0.3,0.1-0.5,0.3-0.8,0.5c-1.5,1.6-1.5,2.8-0.6,3.8c0.2,0.2,0.5,0.4,0.8,0.7c0.8,0.5,1.8,0.9,3,1.3c0.7,0.2,1.5,0.4,2.3,0.7
	c0.3,0.1,0.7,0.2,1,0.3c4.6,1.1,9.8,1.9,11.3,3.3c0.2,0.1,0.2,0.3,0.3,0.4c-0.2,0-0.3,0.1-0.5,0.2c-1.5,0.8-4,3.5-5.1,4.6
	c-1.8,1.9-4,4.2-6.9,4.8c-1.5,0.3-2.4-0.1-3.1-0.8c-0.3-0.3-0.5-0.7-0.8-1.1c-0.5-0.8-0.9-1.8-1.7-2.5c-0.7-0.7-1.6-1.2-3-1.3
	c-0.3,0-0.7,0-1,0c-0.4,0.1-0.8,0.1-1.2,0.2c-5,1.1-2.6,2.7-0.3,4.4c0.3,0.2,0.5,0.4,0.8,0.6c0.4,0.3,0.8,0.6,1.1,0.9
	c0.7,0.7,1.2,1.2,1.5,1.7c0.6,0.8,0.8,1.6,1.3,3.6c-0.4,0-1.3-0.3-2.3-0.6c-1.1-0.4-2.3-0.8-2.7-1l-0.4-0.2
	c-0.3-0.2-0.6-0.3-0.8-0.4c-0.9-0.4-1.5-0.6-3-0.8c-0.4,0-0.8-0.1-1.2-0.1c-2.8-0.1-6.6,0.3-8.3,1.8c-1.8,1.6,0.1,3.3,2.2,3.8
	c1.4,0.4,2.9,0.2,4.4-0.1c1.6-0.3,3.2-0.6,4.6-0.3l0.1,0c0.3,0.1,0.5,0.1,0.8,0.2c1.2,0.4,2.2,0.9,2.9,1.7c0.3,0.4,0.5,0.9,0.7,1.4
	c-0.6,0.1-0.9,0.6-1.5,1.1c-0.5,0.4-1.1,0.8-2,1l-1.9,0.4l-1,0.2l-1.5,0.3c-2.3,0.5-3.5,1.6-4.1,3.2l-0.4,1.3
	c-0.6,2.5-0.2,5.8-0.4,9.1c0.6,0,1.3,0.1,2,0.1l0.9,0.1c1.2,0.1,2.3,0.3,3.3,0.3c0.9,0,1.7,0,2.5,0c0.4,0,0.8-0.1,1.2-0.2
	c1.8-0.5,3.2-1.6,4-4l1.4-4.3c0.6-2,2.1-2.3,2.4-3.3c2,0.6,2.6,2.6,2.9,4.6c0.4,2.8-1.7,6-1.2,9.1c0.2,1.1,0.6,2.2,1.3,2.7
	c0.6,0.5,1.4,0.6,2.3-0.2c1.9-1.7,2.7-6.6,2.6-9.3c0-1.9-0.2-2.4-0.7-3.7l-0.3-0.7c-0.3-0.7-1.2-4.1-1.1-5.1
	c1.4,0.4,2.2,0.7,2.8,1.1c0.7,0.4,1.2,1,2.2,2.2c1.9,2.2,3.7,8.6,5.7,2.2c2.4-7.7-6.2-5.9-4.5-11.2c0.9-2.8,3.4-4.8,5.4-6.4
	c1.4-1.1,4.9-3.7,5.3-5.1c1.3,0.8,1.7,5.2,2.3,9.7c0.4,3,0.8,6,1.6,8c0.9,2.3,2.4,3.2,4.7,1.3c2.1-1.7,0.6-8-0.9-13.2
	c-0.8-2.9-1.7-5.6-2-6.9c-0.1-0.3-0.1-0.6-0.1-0.7c0.2-0.6,0.5-1.1,0.8-1.6c1.7-2.9,4.4-4.8,6.5-7.3c0.2-0.2,0.4-0.5,0.5-0.7
	c0.9,0.4,2.3,1.3,3.8,2.6c0.2,0.2,0.3,0.4,0.4,0.7c0.4,0.6,0.8,1.3,1.2,1.9c0.1,0.2,0.3,0.4,0.4,0.7c0.8,1.3,1.4,2.6,2,3.9
	c0.3,0.6,0.5,1.2,0.7,1.9c0.3,0.9,1.3-0.4,0.9-2.8c1.3,1.7,2.5,3.7,3.5,5.8c1.3,2.8,2.2,6,2.3,9.2c0,0.1,0,0.2,0,0.3
	c0,1.4,0.2,1.6,0.8,0.6c1.9-3.4,5.3-6,9.1-7.8c0.2-0.1,0.5-0.2,0.7-0.3c0.7-0.3,1.4-0.6,2.1-0.8c-1.2,1.6-1.1,2.9-0.4,2.3
	c0.4-0.4,0.9-0.7,1.4-1c1.5-1,3-1.7,4.6-2.4c0.9-0.4,1.8-0.7,2.7-1.1c0,0,0,0,0.1,0c2.1-0.3,3.8-0.3,4.8-0.1c0.1,0,0.1,0,0.2,0.1
	c0.1,3.1,1,5.9,1.1,8.9c0.1,1.1,0,2.3-0.3,3.5c-0.1,0.2-0.5,0.6-1.2,1.2c-1.3,1.1-3.4,2.6-5.6,4.4c-2.8,2.3-5.8,4.9-7.1,7.1
	c-0.5,0.8-0.7,1.5-0.7,2.2c0,0.2,0.1,0.3,0.1,0.4c0.8,2.6,2.2,2.9,4,2c1.7-0.9,3.8-2.9,5.8-5.1c3-3.2,5.9-6.8,7.7-7.3
	c0.2,0,0.4-0.1,0.5-0.1c-0.5,1.4,0.9,5.5,1.4,7.2c0.8,2.5,1.6,5.6,0.7,8.3c-1.4,4.6-6,0.6-8.9,4c-0.5,0.6-0.9,1.4-1.3,2.6
	c-0.4,1.4-0.5,2.3-0.4,2.8c0.5,1.9,4.1-0.7,6.3-1.3c1.9-0.5,2.5-0.7,3.8-0.4c0.6,0.1,1.3,0.3,2.2,0.6c-0.5,0.8-2.5,2.6-3.5,3.3
	c-0.1,0.1-0.2,0.2-0.3,0.2c-1.6,1.1-2,1.3-3.3,3c-1.6,2.1-3.7,6.6-3.2,9.1c0.3,1.5,1.4,1.7,2.5,1.3c0.6-0.3,1.3-0.7,1.9-1.3
	c2.1-2.2,2.3-6.1,4.2-8.1c1.5-1.5,3.1-2.7,5.1-2.1c-0.3,1,0.7,2.1,0.1,4.1l-1.4,4.3c-0.7,2.3-0.3,3.9,0.8,5.3
	c0.3,0.4,0.7,0.8,1.2,1.2c0.8,0.7,1.7,1.2,2.7,1.8c0.9,0.5,1.8,1,2.8,1.6c0.6,0.4,1.3,0.7,1.9,1.1c3.3-5.2,7.9-9.3,3.7-13.8L154,227
	l-1.9-2c-0.2-0.2-0.4-0.5-0.6-0.7c-0.7-1.3-0.5-2.3-1.1-3c0.7-0.6,1.5-0.9,2.3-0.9c1,0,2,0.3,3.1,0.7l0,0c1.6,0.6,2.9,2.2,4.4,3.6
	c0.9,0.8,1.8,1.6,2.9,2c2,0.8,4.5,0.5,4-1.9c-0.4-1.9-2.9-4.2-5-5.8c-0.6-0.4-1.2-0.8-1.8-1.1c-1.4-0.8-2.1-1-3.1-1.1
	c-0.3-0.1-0.7-0.1-1.1-0.2c-0.3-0.1-1.1-0.2-1.9-0.5c-1.1-0.3-2.3-0.7-2.9-1c0,0-0.1,0-0.1-0.1l0.2-0.2c1.8-1.7,2.3-2,4-2.3
	c0.3-0.1,0.7-0.1,1.2-0.2c0.6-0.1,1.4-0.1,2.2-0.1c2.9,0,6.1,0.1,2.5-3.7c-0.4-0.4-0.7-0.7-1-1c-1.1-0.9-2-1.2-2.9-1.2
	c-1.3,0-2.5,0.6-3.6,1.1c-0.6,0.3-1.2,0.5-1.8,0.6c-0.9,0.1-1.8-0.1-2.7-1.2c-2-2.2-2.5-5.3-2.9-7.9c-0.2-1.3-0.5-4-1.1-5.8
	c-0.2-0.6-0.4-1.1-0.7-1.4c0.3-0.1,0.7-0.2,1.2-0.1c2.2,0.2,6.3,2.2,10.2,3.7c0.5,0.2,0.9,0.4,1.4,0.5c1,0.4,2,0.7,2.9,1
	c1.2,0.3,2.3,0.4,3.2,0.3c1.5-0.2,2.3-1.2,1.9-3.5c-0.1-0.4-0.2-0.7-0.5-1c-0.5-0.7-1.5-1.4-2.7-1.9c-0.9-0.4-1.8-0.8-2.9-1.1
	c-0.5-0.2-0.9-0.3-1.4-0.5c-3.8-1.2-8.2-2-10.5-2.6c-0.9-0.2-1.5-0.4-1.6-0.6c-2.6-3.4-2.8-7.3-4.2-10.9c-0.1-0.2-0.2-0.4-0.3-0.6
	c0.2-0.2,0.4-0.3,0.6-0.5c0.8-0.5,1.5-1,2.3-1.5c2.6-0.1,5.2-0.4,7.8-0.2c1.3,0.1,2.5,0.2,3.7,0.5c1,0.2,0.1-1.8-3.1-2.6
	c-0.5-0.1-0.9-0.2-1.5-0.3c0.6-0.1,1.1-0.2,1.7-0.2c4.1-0.3,7.8,0.7,10.8,1.8c0.5,0.2,1,0.4,1.4,0.6c1.1,0.5,2,1,2.8,1.3
	c1.2,0.6,2,0.9,2.3,0.7c0.4-0.4-0.3-1.9-1.2-4.2c-0.5-1.4-1.1-3.2-1.6-5.2c-0.2-1.1-0.4-2.2-0.5-3.4c-0.1-1.9,0-3.8,0.4-5.8
	c0.1,1.1,0.3,2,0.6,2.8c0.3,0.8,0.7,1.3,1.1,1.6c0.4,0.4,0.8,0.3,0.7-0.2c-0.1-0.5-0.1-1.1-0.2-1.7c-0.1-2,0.1-4.1,0.4-6.1
	c0.2-1.2,0.4-2.5,0.5-3.7c0.3-0.5,0.7-1,1.1-1.5c0.3-0.4,0.7-0.8,1.1-1.2c0.3,0.1,0.5,0.3,0.8,0.4c0.9,0.5,1.9,0.8,2.8,1.2
	c1,0.4,2,0.7,2.9,1.1c1.6,0.7,3.2,1.5,4.6,2.8c0,0,0.1,0.1,0.1,0.1c0.9,1.8,1.5,17.6,5.4,19.9c0.2,0.1,0.3,0.2,0.5,0.2
	c5.1,1.3,4.1-3.9,2.4-9.4c-1.5-4.8-3.4-9.9-2.5-11.4c0.8,0.8,3.5,1.6,5.5,2c0.6,0.1,1.1,0.3,1.5,0.3c1.2,0.3,2.5,0.6,3.8,1.1
	c1.4,0.5,2.7,1.3,3.7,2.4l0.1,0.1c3.8,4.2-4.8,6.1,0.6,12.1c0.2,0.2,0.3,0.3,0.5,0.5c4,4,3-2.1,3.8-4.9c0.8-2.7,0.8-2.9,3.2-5.1
	c0.5,0.9,1.1,4.2,1.2,5.1c0.1,1.9,0.1,2.4,0.9,4.4c1.1,2.5,3.8,6.5,6.3,7.3c0.2,0.1,0.4,0.1,0.6,0.1c1.8,0.1,2.1-2.1,1.6-3.9
	c-0.1-0.2-0.1-0.4-0.2-0.6c-1.1-2.7-4-4.6-4.7-7.2c-0.6-2-0.8-4,0.7-5.4c0.7,0.8,2.1,0.4,3.5,2l2.8,3.1l0.2,0.2
	c4.2,4.6,8.8,0.3,14.2-2.6c-2.8-5.5-4-11.5-10.1-10.2l-0.3,0.1l-4.1,0.9c-2,0.4-3-0.7-4-0.4c-0.5-2,0.9-3.5,2.5-4.9
	c2-1.6,5.6-1.6,8-3.2c0.2-0.1,0.3-0.2,0.4-0.3c1.5-1.2,2.5-3.2,1-4.1c-0.2-0.1-0.4-0.2-0.6-0.3c-2.4-0.8-7.1,1-9.3,2.4
	c-1.8,1.2-2.1,1.6-3.3,3c-0.5,0.6-2.9,3-3.8,3.5c-0.7-3.2-0.6-3.4,0.3-6c0.9-2.6,5.2-7.1-0.3-6.2c-0.2,0-0.4,0.1-0.7,0.2
	c-7.9,1.7-1.9,8.3-7.4,9.5l-0.1,0c-1.5,0.3-3,0.1-4.4-0.2c-1.3-0.3-2.6-0.8-3.7-1.3c-0.4-0.2-0.8-0.4-1.4-0.6
	c-1.9-0.8-4.5-1.7-5.6-1.5c0.1-1.8,4.7-4.8,8.6-7.9c4.5-3.5,8.3-7.2,3.4-9c-0.2-0.1-0.3-0.1-0.5-0.1c-4.4-0.5-14.1,12.1-15.9,13.1
	c0,0-0.1,0-0.1,0c-1.9,0.3-3.6,0.1-5.4-0.3c-1-0.2-2-0.5-3-0.8c-1-0.3-2-0.5-3-0.7c-0.3,0-0.6-0.1-0.9-0.1c-0.1-0.5-0.1-1.2,0-2
	c0-0.6,0.1-1.2,0.3-1.9c-1.4,2.6-2.9,5.2-4.8,7.6c0.2,2.9-0.1,5.6-0.6,8.4c-1.7,2.4-2.7,4.9-3.2,7.3c-0.1-1.5,0-3.5,0.8-5.8
	c0.5-1.7,0.5-4-1.9-1.7c-1.5,1.4-3.8,1.1-6.2-0.2c-2.6-1.4-5.3-4-7.3-6.9c-1.6-2.2-2.8-4.6-3.3-6.6c-0.1-0.5-0.2-0.9-0.2-1.3
	c0.3-0.3,0.6-0.6,0.9-1c1.6-1.4,3.9-2.7,6.5-3.5c3.3-1.1,7-1.7,10-1.3c2.7,0.3,4.7,1.4,5.2,3.4c0.7,3.3,2,1.4,2.5-0.3
	c1.2-3.8,3.2-5.9,4.8-6.9c0.1-0.1,0.2-0.1,0.3-0.2c-0.2,0.3-0.4,0.7-0.6,1c-1.6,3-2.5,5.9-3,8.1c0.3-0.5,0.6-1,0.9-1.5
	c1-1.9,2-3.7,3.3-5.4c0.6-0.8,1.2-1.6,1.9-2.3c0.4-0.4-0.1-0.7-1-0.5c-0.4,0.1-1,0.3-1.5,0.6c0.7-1.2,1.5-2.4,2.5-3.7
	c1.3-1.6,2.9-3.3,4.8-4.8c1.3-1,2.7-2,4.2-3c0.3-0.2,0.5-0.3,0.7-0.4l-0.5-0.2c-1.1-0.3-2.1-0.6-3-0.8c-1-0.3-2-0.6-2.9-0.9
	c-0.5-0.2-1-0.3-1.4-0.5c-4.2-1.5-7.3-3.1-9.6-4.6c2.8,0.9,4.5-0.1,3.5-0.5c-1.1-0.5-2.1-1-3.1-1.6c-2.3-1.5-4.5-3.3-6.7-5
	c-0.3-0.7-0.5-1.3-0.6-1.9c-0.1-0.4-0.2-0.8-0.3-1.2c0.3-0.2,0.6-0.4,0.9-0.5c3.2-2.1,5.5-5.1,9.5-6.3c0.2,0,0.9,0.2,1.9,0.5
	c2.3,0.9,6.3,2.7,10.1,3.9c0.5,0.2,1,0.3,1.4,0.4c1.1,0.3,2.1,0.6,3,0.7c1.3,0.2,2.5,0.2,3.3-0.2c0.3-0.1,0.5-0.3,0.7-0.5
	c1.5-1.6,1.5-2.8,0.6-3.8c-0.6-0.6-1.6-1.2-2.8-1.6c-0.9-0.3-1.9-0.7-2.9-0.9c-0.5-0.1-1-0.3-1.5-0.4c-4-1-8.4-1.7-10.4-2.8
	c-0.5-0.3-0.9-0.6-1-0.9c0.4-0.1,1-0.4,1.6-0.9c1.4-1.1,3.1-3,3.9-3.9c1.7-1.9,4-4.1,6.8-4.7c1.5-0.3,2.4,0.1,3,0.8
	c0.4,0.4,0.8,1,1.1,1.6c0.6,1,1.2,2.2,2.3,2.8c0.8,0.4,1.7,0.7,3.1,0.5c0.4,0,0.8-0.1,1.2-0.2c5-1.1,2.6-2.7,0.3-4.4
	c-0.7-0.5-1.4-1-1.9-1.5c-0.3-0.3-0.5-0.5-0.7-0.8c-1.2-1.3-1.5-1.8-2-4l-0.1-0.6c0.1,0,0.2,0,0.3,0c0.7,0.1,1.9,0.5,3,0.9
	c0.7,0.3,1.4,0.5,1.7,0.7c0.5,0.2,0.9,0.4,1.2,0.6c0.9,0.4,1.5,0.6,3,0.8c0.6,0.1,1.4,0.1,2.2,0.1c2.6,0,5.8-0.5,7.3-1.8
	c1.8-1.6-0.1-3.3-2.1-3.8c-1.1-0.3-2.2-0.2-3.3-0.1c-2,0.3-4,0.8-5.7,0.4l-0.1,0c-1-0.3-2-0.6-2.8-1.1c-0.8-0.5-1.3-1.2-1.5-2.2
	c0.9-0.2,1.4-1.3,2.9-1.9c0.2-0.1,0.4-0.2,0.7-0.2l2.9-0.6l1.5-0.3c6.1-1.3,4.7-7.4,4.9-13.5c-0.6,0-1.3-0.1-2-0.1
	c-1.1-0.1-2.2-0.2-3.2-0.3c-1.1-0.1-2.2-0.2-3.2-0.1c-0.6,0-1.1,0.1-1.7,0.3c-1.7,0.5-3.1,1.6-3.9,3.9l-1.4,4.3
	c-0.6,2-2.1,2.2-2.4,3.3c-2-0.7-2.6-2.6-2.9-4.7c-0.4-2.7,1.7-6,1.2-9.1c-0.1-0.7-0.3-1.4-0.7-1.9c-0.7-1.1-1.7-1.7-2.9-0.6
	c-1.9,1.8-2.7,6.6-2.6,9.3c0,2.2,0.3,2.6,1,4.4c0.1,0.1,0.1,0.4,0.2,0.7c0.4,1.3,0.9,3.6,0.9,4.4c-0.9-0.3-1.5-0.5-2-0.7
	c-1.3-0.5-1.7-1.1-3-2.6c-1.4-1.7-2.8-5.6-4.2-4.8c-0.5,0.3-1,1-1.5,2.7c-0.4,1.3-0.5,2.4-0.4,3.3c0.7,4,6.3,3.6,4.9,8
	c-0.9,2.8-3.4,4.8-5.4,6.4c-1.4,1.1-4.9,3.6-5.3,5c-0.1,0-0.1-0.1-0.2-0.2c-1.2-1.2-1.6-5.7-2.1-10.2c-0.4-3-0.8-5.9-1.7-7.7
	c-0.9-2-2.3-2.7-4.6-0.9l0,0c-0.7,0.6-1,1.7-1,3.2c0,2.6,0.9,6.2,1.8,9.5c0.8,2.8,1.6,5.3,2,6.8c0.2,0.6,0.2,1.1,0.2,1.3
	c-0.4,0.9-0.8,1.7-1.3,2.5c-1.9,2.7-4.5,4.5-6.5,7.1l0,0c-1.2-0.5-2.2-1-3.1-1.6c-0.3-0.4-0.5-0.8-0.8-1.2c-0.5-0.8-1-1.6-1.5-2.4
	c-0.9-1.5-1.7-3-2.4-4.5c-0.3-0.6-0.5-1.3-0.7-1.9c-0.4-1.2-1.9,1.2-0.3,5.2c0,0.1,0.1,0.2,0.1,0.2c0-0.1-0.1-0.1-0.1-0.2
	c-0.9-1.1-1.6-2.2-2.2-3.4c-0.1-0.3-0.3-0.5-0.4-0.8c-3.2-6.9-2-13.9-3.1-14.2c-0.1,0-0.1,0-0.2,0c-1,0.4-3.4,4.5-7.7,8
	C135.7,71.2,133.4,72.6,130.8,73.5L130.8,73.5z M110.2,69.7c0.3,1.1,1.3,4.1,1.8,4.9c0.5,0.8,1,1.2,1.5,1.5c0.5,0.2,0.9,0.2,1.4,0
	c1,0,1.8-0.7,2.1-2.6c0.2-0.9-0.1-4-0.4-5.2c-0.1-0.5-0.2-1-0.2-1.4c-0.7-5,0.6-7.3,2.9-9.1c1.4-1.1,3.2-2,5.1-3.1
	c1.6-0.9,3.4-2.1,5.1-3.7c1.6-1.5,3-6.5-0.1-5.1c-0.6,0.3-1.7,1.1-2.9,2.1c-1.7,1.4-3.8,3.4-5.8,5.2c-2.9,2.6-5.5,4.9-6,4.8
	c-0.8-0.2-2.7-2.4-4.1-2.6l-0.1,0c-1.2,0.8-2,3.6-2.7,4.1c-0.2,0.2-1.2,0-2.6-0.4c-2.9-0.8-7.6-2.5-11.2-3.5
	c-0.4-0.1-0.7-0.2-1.1-0.3c-0.9-0.2-1.6-0.4-2.3-0.6c-0.5-0.1-0.9-0.2-1.3-0.2c-2.5,0-1.4,2.1,0.2,3.5c0.6,0.5,1.2,1,1.8,1.1
	l0.3,0.1c0.4,0.1,0.7,0.2,1.1,0.3c4.7,1.3,8.7,0.8,11.7,1.9C107,62.4,108.9,64.4,110.2,69.7L110.2,69.7z M107.3,52.4
	c-0.2-0.3-0.4-0.7-0.5-1.1c-0.3-1.2-0.5-2.1-0.1-3.2c0.4-1-0.8-9.1,0.3-8.5c0.5-0.7,1.7,2.5,2.7,5c0.5,1.3,0.9,2.3,1.2,2.6
	c0.9,0.8,1.1,1.7,1.2,3c0.1,0.9-0.1,2.3-1,2.9c-0.4,0.3-1.4-2.2-1.8-2.3c-0.3,0.3-0.2,2.9-0.6,2.8C108.2,53.5,107.7,53,107.3,52.4
	L107.3,52.4z M103.7,42.4c-0.5-3.5-2.5-3.5-4.6-2.8c-0.4,0.1-0.9,0.3-1.3,0.5c-1,0.4-1.9,0.8-2.8,1c-1.4,0.4-2.5,0.3-3.1-0.9
	c-0.1-0.2-0.2-0.5-0.3-0.8c0-0.2,0.2-0.4,0.7-0.4c0.9-0.1,2.5,0.1,3.4,0.2c0.2,0,0.4,0,0.5,0c0.6-0.1,1.4-0.3,2.1-0.6
	c0.4-0.2,0.9-0.4,1.3-0.7c0.4-0.2,0.7-0.4,0.9-0.5c2.3-1.4,3.1-1.4,1.2-3c-0.1-0.1-0.4-0.2-0.8-0.5c-0.3-0.1-0.6-0.3-1-0.5
	c-0.8-0.4-1.7-1-2-1.3c-0.2-0.2-0.2-0.4,0.2-0.5c0.2,0,0.4,0,0.8,0c0.6,0.1,1.1,0.1,1.6,0.2l1.1,0.1c1.3,0.2,2.6,0.3,3.9,0.3
	c2.1-0.9,4-2.2,6-3.3c3-1.7-1.4,3.4-1.5,3.7c-1.1,2.2-0.3,1.9,2.3,2.3c0.2,0.1,0.5,0.1,0.7,0.1c1.3,0.1,3.1,0.1,4-0.2
	c0.6-0.2,4.1-2.5,4.3-1.7c0.9,4.7-6.1,2.2-8.9,3.9c-0.9,0.5-1.4,1.5-1,3.2c0,0.2,0.1,0.4,0.2,0.7c0.3,1,2,5.1,0,2.5
	c-0.3-0.4-0.6-0.8-0.8-1.2c-1-1.6-1.9-3.3-3-4.8c-0.3-0.4-0.8-0.8-1.2-1.1c-0.2,0.5-0.5,1-0.6,1.5c-0.5,2.2-0.5,4.8-1,7
	C104,47.9,103.8,43.4,103.7,42.4L103.7,42.4z M100.4,23.9l-0.6-0.7c-0.8-0.9-1.4-1.6-1.8-2.2c-0.3-0.4-0.5-0.8-0.6-1.2
	c-0.4-0.9-0.5-2-0.4-3.6c0.1-1.4,1-2.1,2.3-2.5c0.3-0.1,0.7-0.2,1-0.2c0.4-0.1,0.8-0.1,1.2-0.1c0.8-0.3,1.7-0.6,2.5-0.7
	c0.9-0.1,1.7,0.1,2.3,0.6c0.2,0.2,0.4,0.4,0.6,0.7l0.2,0.4c1.4,2.7,1.1,3.9,0.1,7.1l-1.4,4.3c-0.3,1-0.1,2.1-1.2,1.8
	c-0.7,0.5-1-0.1-1.5-0.8c-0.1-0.1-0.2-0.2-0.3-0.4l-0.5-0.6L100.4,23.9L100.4,23.9z M94.5,31.5c-0.3,0.1-0.6,0.1-1,0.1
	c-1.2-0.1-2.6-0.6-3.3-0.9c-0.3-0.1-0.5-0.3-0.8-0.4c-4.4-2.6-6.4-8.9-0.7-5.7c0.8,0.4,1.4,1.1,2,1.8c1.1,1.2,2.1,2.6,3.4,3.4
	c0.3,0.2,0.6,0.3,0.9,0.4c0.1,0,0.3,0.1,0.4,0.1C95.5,31,95.1,31.4,94.5,31.5L94.5,31.5z M117.7,18.3c0.2-0.3,0.4-0.6,0.7-0.8
	c3.5-3.8,3.8,3.3,0.4,7.1c-0.7,0.7-2.2,2.3-3.5,2.5c-0.6,0.1-1.2-0.1-1.5-0.8C116.3,24.4,115.9,20.7,117.7,18.3L117.7,18.3z
	 M79.8,101.4c-0.5,3-0.9,6-0.7,9.1c-1.8,2.2-3.1,4.6-4.3,7.1c0,2.8-0.5,5.2-1.3,7.3c0.9-1.1,1.7-2.7,2.4-4.8
	c0.5-1.7,1.9-3.6,2.6-0.3c0.5,2.3,3.1,3.4,6.4,3.5c5.1,0.2,11.9-1.9,15.3-4.9c0.3-0.3,0.6-0.6,0.9-1c0-0.4-0.1-0.9-0.2-1.3
	c-1-4.4-5.3-10.1-9.6-12.9c-2.7-1.8-5.4-2.4-7.2-0.8c-2.5,2.2-2.4,0-1.9-1.8c1.1-3.5,1-6.1,0.4-7.9C82.1,95.6,81.3,98.6,79.8,101.4
	L79.8,101.4z M155.9,84.4c0.3,0.2,0.7,0.4,1,0.6c0.8,1.3,1.6,2.6,2.4,3.9c0.6,1.1,1.1,2.2,1.6,3.4c0.4,0.2,0.9,0.5,1.3,0.7
	c1.6,0.9,3,1.9,4.4,3c0.3,0.3,0.7,0.5,1,0.8c0.8,2.1,2.4,4.5,6.1,7c0.1,0,0.1,0.1,0.2,0.1c-0.1,0-0.2,0-0.2-0.1
	c-1.6-0.6-3.6-1.8-5.7-4.1c-0.7-0.7-1.5-1.4-2.1-1.3c-0.4,0.1-0.6,0.5-0.5,1.5c0,0.2,0,0.4,0.1,0.6c0.3,1.5-0.3,2.8-1.6,3.9
	c-1.5,1.4-3.8,2.5-6.4,3.2c-1.4,0.4-2.9,0.7-4.4,0.9c-1.7,0.2-3.4,0.2-4.9,0.1c-0.8-0.1-1.5-0.2-2.2-0.3c-0.8-0.2-1.4-0.4-2.1-0.7
	c-0.3-0.8-0.5-1.8-0.6-2.9c-0.4-5.2,1.9-12.5,5.1-16c1.3-1.5,2.9-2.3,4.4-1.9c0.1,0,0.2,0.1,0.4,0.1c1,0.3,1.6,0.3,1.9,0.2
	c0.3-0.1,0.3-0.4,0.2-0.7c-0.1-0.5-0.6-1.2-1.1-1.8c-0.2-0.2-0.3-0.4-0.5-0.6c-1.2-1.4-1.9-2.7-2.4-3.8c0.8,1,1.7,1.9,2.8,2.8
	C154.6,83.5,155.2,84,155.9,84.4L155.9,84.4z M162.2,87.8c0.4-0.7,1.8-2.4,2.7-3.4c0.2-0.2,0.4-0.4,0.6-0.6c5.2-4.9,4.9-8,3.4-11.8
	c-0.7-1.6-1.6-3.4-2.4-5.5c-0.5-1.3-1-2.7-1.3-4.3c-0.4-2.1,1.3-7,3-4c0.2,0.3,0.3,0.7,0.5,1.2c0.6,1.7,1.2,4.6,1.8,7.4
	c0.9,4.2,1.8,8.5,2.4,9.5c0.1,0.1,0.1,0.2,0.2,0.2c0.8,0.4,3.6-0.4,4.9,0.3l0.1,0.1c0.6,1.4-0.5,4.1-0.2,4.9c0.1,0.3,1,0.7,2.4,1.2
	c2.6,0.9,6.8,2.2,10.3,3.4c0.5,0.1,1,0.3,1.4,0.5c1.1,0.4,2.1,0.8,2.9,1.1c0.3,0.2,0.6,0.3,0.8,0.5c1.9,1.4,0.1,2.4-1.9,2.7
	c-0.9,0.1-1.8,0.1-2.5-0.1c-0.2-0.1-0.5-0.1-0.7-0.2c-0.5-0.2-1-0.3-1.4-0.5c-4.1-1.7-6.9-4.1-9.7-5c-2.7-0.8-5.5-0.4-9.6,3.3
	c-0.3,0.2-0.8,0.6-1.3,1c-1.1,0.8-2.4,1.6-3,1.9c-1.4,0.5-2.4,0.4-2.9-0.1c-0.1-0.1-0.2-0.3-0.3-0.4
	C161.6,90.5,161.4,89.5,162.2,87.8L162.2,87.8z M179.7,71.6c0.9-0.9,1.5-1.5,2.7-1.7c0.3-0.1,1.3-0.7,2.4-1.4
	c2.2-1.5,5.1-3.4,5.1-2.6c1.3,0.2-4.4,6.1-4.6,7.2c-0.3,1.2-0.9,1.8-1.9,2.6c-0.3,0.2-0.6,0.4-1,0.6c-0.6,0.2-1.4,0.3-2,0.1
	c-0.4-0.2,1.2-2.3,1.1-2.7c-0.4-0.1-2.6,1.3-2.8,0.9C178.4,73.6,179,72.3,179.7,71.6L179.7,71.6z M185.9,64.5
	c0.1-0.1,0.3-0.2,0.4-0.3c1.5-1.3,1.6-2.5,1.1-3.5c-1.5-2.9-8.3-5-4.9-8.2c0.7-0.6,2.2,3.3,2.5,3.8c0.6,0.8,1.9,1.8,3,2.5
	c0.3,0.2,0.5,0.3,0.8,0.4c2.4,1.2,2.7,1.9,3.2-0.5c0.1-0.4-0.6-7.1,0.9-3.9c0.9,2.1,1.6,4.1,2.8,6c0.8,0.6,1.6,1.1,2.5,1.6
	c0.5,0.3,0.9,0.5,1.3,0.8c0.7,0.4,1.4,0.7,2,1.1c0.4,0.2,0.6,0.4,0.7,0.5c0.2,0.2,0.1,0.3-0.1,0.4c-0.6,0.2-2,0-3.2-0.2
	c-0.7-0.1-1.3-0.2-1.4-0.2h-0.2c-2.1,0.2-1.7,0.6-0.8,2.7c0.1,0.1,0.1,0.3,0.2,0.5c0.2,0.5,0.5,1,0.7,1.6c0.5,1,1.2,1.9,1.8,2.4
	c0.1,0.1,0.3,0.2,0.6,0.4c0.8,0.5,2.1,1.2,2.7,1.8c0.3,0.3,0.5,0.5,0.3,0.7c-0.2,0.2-0.5,0.4-0.7,0.5c-1.2,0.7-2.2,0.1-3-0.9
	c-0.8-0.9-1.4-2.1-2.2-3.2c-0.3-0.5-0.7-1-1.1-1.4c-1.2-1.2-2.7-1.6-4.7,0.5c-0.7,0.7-3.4,4.3-2.2,1.3c0.9-2.1,2.3-4.2,3.3-6.3
	c0.2-0.5,0.3-1.1,0.4-1.6c-0.6,0.1-1.1,0.1-1.6,0.2c-1.8,0.6-3.5,1.5-5.3,2.2c-0.4,0.2-0.8,0.3-1.3,0.4
	C181.3,67.5,185.1,65.1,185.9,64.5L185.9,64.5z M199.1,55.7l1.4-4.3c0.8-2.5,1.3-3.6,2.6-4.7c0.5-0.4,1.1-0.8,2-1.2l0,0
	c1.1-0.6,2.1-0.2,3,0.5c0.6,0.5,1.2,1.2,1.7,2c0.3,0.2,0.5,0.4,0.8,0.7c1.4,1.3,2.3,2.8,1.3,4.3c-1.3,2-2.2,2.8-3.8,3.3
	c-0.7,0.3-1.5,0.4-2.6,0.7l-0.9,0.2l-3.4,0.7l0,0c-0.7,0.1-1.3,0.5-1.7,0.4c-0.2,0-0.4-0.2-0.5-0.5C198,57.4,198.8,56.7,199.1,55.7
	L199.1,55.7z M190.4,50.8c-0.8-1-1.1-3-1.2-3.8c-0.5-4.9,3.5-10.1,4.4-6.2c0.1,0.4,0.2,1,0.2,1.7c0,3-2.5,5.7-1.5,8.7
	C191.5,51.7,190.9,51.4,190.4,50.8L190.4,50.8z M204.9,65.2c0.1,0.1,0.3,0.1,0.4,0.2c1.9,0.6,3.8-0.1,5.8-0.6
	c0.9-0.2,1.8-0.3,2.7-0.2c6.4,0.7,1.2,4.7-3.9,4.2c-0.3,0-0.6-0.1-0.9-0.1c-1-0.2-3.3-0.8-4-1.9C204.5,66.3,204.5,65.8,204.9,65.2
	L204.9,65.2z M82.6,152.4c-1.2-2.7-2.9-4.7-4.6-6.3c1.4,0.7,3,1.8,4.6,3.5c1.2,1.3,3.2,2.5,2.5-0.8c-0.7-3.1,3-5.7,7.7-7.1
	c1.4-0.4,2.9-0.8,4.4-0.9c2-0.2,3.9-0.3,5.6-0.1c0.6,0.1,1.2,0.2,1.8,0.3c0.2,0.1,0.4,0.1,0.6,0.2c0.5,0.2,1,0.3,1.5,0.6
	c0.3,0.9,0.5,1.9,0.6,3.1c0.3,5.1-1.9,12.2-5,15.7c-1.2,1.4-2.6,2.2-3.9,2.1c-0.2,0-0.4-0.1-0.6-0.1c-0.1,0-0.2-0.1-0.3-0.1
	c-0.6-0.2-1.1-0.3-1.4-0.3c-1,0-0.9,0.7-0.5,1.5c0.2,0.4,0.5,0.8,0.8,1.1c0.2,0.2,0.3,0.4,0.5,0.5c0.1,0.2,0.3,0.4,0.5,0.6
	c1,1.3,1.7,2.5,2.1,3.6c0.3,0.8,0.5,1.6,0.6,2.2c-0.3-0.4-0.6-0.8-0.9-1.2c-0.8-1-1.6-1.9-2.4-2.7c-0.2-0.2-0.3-0.3-0.5-0.5
	c-0.5-0.5-1-0.9-1.4-1.3c-0.2-0.2-0.3-0.3-0.5-0.4c-1.1-1.8-2.3-3.5-3.3-5.4c-0.5-1-1-2-1.4-3c-0.5-0.3-1-0.5-1.5-0.8
	C86.1,155.1,84.3,153.8,82.6,152.4L82.6,152.4z M88.2,161.7c-0.4,0.8-2.2,3-3.1,3.9l-0.2,0.1c-5,4.7-4.9,7.8-3.5,11.4
	c0.7,1.7,1.6,3.4,2.4,5.5c0.6,1.4,1.1,3,1.4,4.7c0.4,2.1-1.3,7-3,4c-0.2-0.4-0.4-1-0.7-1.7c-0.6-1.9-1.2-4.7-1.8-7.5
	c-1-4.5-1.9-8.9-2.5-9.1c-0.8-0.4-3.6,0.4-4.9-0.3l-0.1-0.1c-0.5-1.4,0.5-4.1,0.2-4.9c-0.1-0.2-0.7-0.5-1.6-0.9
	c-2.5-1-7.3-2.4-11.2-3.7c-0.4-0.1-0.7-0.2-1-0.4c-0.8-0.3-1.6-0.5-2.2-0.8c-0.8-0.3-1.5-0.7-1.8-0.9c-2.3-1.6,0.7-2.8,3-2.8
	c0.5,0,0.9,0.1,1.3,0.2c0.3,0.1,0.7,0.2,1,0.3c0.3,0.1,0.7,0.3,1,0.4c4.6,1.8,7.4,4.6,10.7,5.2c2.4,0.5,5-0.2,8.7-3.5
	c0.9-0.8,3.4-2.6,4.3-2.9c1.2-0.5,2.1-0.4,2.7,0c0.2,0.1,0.4,0.3,0.5,0.6C88.8,159,89.1,160,88.2,161.7L88.2,161.7z M70.8,177.8
	c-0.9,0.9-1.5,1.5-2.7,1.7c-0.2,0.1-0.7,0.3-1.3,0.7c-2.2,1.4-6.2,4.3-6.3,3.3c-1.2-0.2,4.4-6.1,4.6-7.2c0.3-1.2,1-1.8,1.9-2.5
	c0.5-0.4,1.3-0.7,2-0.8c0.3,0,0.7,0,1,0.1c0.4,0.2-1.2,2.3-1.1,2.7c0.4,0.1,2.7-1.3,2.8-0.9C72,175.9,71.4,177.2,70.8,177.8
	L70.8,177.8z M65.4,184.4c-0.3,0.2-0.7,0.4-0.8,0.5c-2.3,1.9-2,3.4-0.9,4.7c2.2,2.5,7.4,4.5,4.3,7.4c-0.7,0.6-2.2-3.3-2.5-3.8
	c-0.4-0.7-1.3-1.4-2.3-2c-0.5-0.4-1.1-0.7-1.5-0.9c-2.4-1.2-2.8-1.9-3.2,0.5c-0.1,0.4,0.6,7.1-0.9,3.9c-0.9-2.1-1.6-4.1-2.8-6
	c-0.8-0.6-1.7-1.2-2.6-1.7c-0.3-0.2-0.6-0.4-1-0.6c-0.7-0.4-1.4-0.7-2.1-1.1l-0.2-0.1c-1.5-0.9-0.7-1,0.6-0.9c0.8,0,1.7,0.2,2.4,0.3
	c0.6,0.1,1,0.1,1.1,0.1h0c2.3-0.2,1.8-0.7,0.9-2.8l-0.1-0.3c-0.1-0.4-0.3-0.8-0.5-1.2c-0.5-0.9-1-1.9-1.6-2.5
	c-0.1-0.1-0.2-0.2-0.3-0.3c-0.3-0.2-1.5-0.9-2.5-1.5c-0.3-0.2-0.6-0.4-0.8-0.6c-0.3-0.3-0.5-0.6-0.3-0.7c0.2-0.2,0.5-0.4,0.7-0.5
	c0.4-0.2,0.7-0.3,1.1-0.3c1,0,1.9,1,2.7,2.3c0.6,0.8,1.1,1.7,1.7,2.5c0.3,0.4,0.5,0.7,0.8,1c1.2,1.3,2.7,1.7,4.8-0.5
	c0.7-0.7,3.4-4.2,2.2-1.3c-0.9,2.1-2.3,4.2-3.2,6.3c-0.2,0.4-0.3,1.1-0.3,1.6c0.6-0.1,1.1-0.1,1.6-0.3c2.1-0.7,4.2-1.9,6.3-2.5
	c0.1,0,0.2-0.1,0.3-0.1C68.5,182.2,66.7,183.5,65.4,184.4L65.4,184.4z M51.3,193.7l-1.4,4.3c-0.8,2.5-1.3,3.7-2.7,4.8
	c-0.4,0.3-0.9,0.6-1.4,0.9c-0.1,0.1-0.3,0.1-0.4,0.2c-0.7,0.4-1.5,0.4-2.1,0.1c-1-0.4-1.9-1.5-2.6-2.6l0,0c-0.3-0.2-0.5-0.4-0.8-0.6
	c-1.4-1.3-2.3-2.8-1.3-4.4c1.3-2,2.2-2.8,3.7-3.3c0.3-0.1,0.7-0.2,1.1-0.3c0.5-0.1,1-0.2,1.6-0.4L47,192l2.3-0.5
	c0.1,0,0.3-0.1,0.4-0.1c0.5-0.1,0.9-0.4,1.3-0.3c0.3,0,0.4,0.2,0.6,0.5C52.4,192,51.7,192.7,51.3,193.7L51.3,193.7z M60.5,199.6
	c0.4,1,0.6,2.2,0.7,2.8c0.4,4.2-2.5,8.7-3.9,7.3c-0.4-0.4-0.7-1.3-0.7-2.9c0-3,2.5-5.7,1.5-8.7C59.3,197.5,60.1,198.4,60.5,199.6
	L60.5,199.6z M45.5,184.3c-0.1,0-0.3-0.1-0.4-0.1c-1.5-0.5-3.1-0.1-4.6,0.3c-1.3,0.3-2.5,0.7-3.8,0.5c-6.8-0.7-0.5-5.2,4.9-4.1
	l0.1,0c1,0.2,3.2,0.8,3.9,1.8C45.9,183.2,46,183.7,45.5,184.3L45.5,184.3z M133.9,145.9C133.9,145.9,134,146,133.9,145.9
	c0.5,0.1,1.4,0.2,2.4,0.1c1.9-0.1,4.1-0.5,3.1-1.5c-0.7-0.8-1.5-1-2.3-0.9c-1.2,0.1-2.3,1-2.9,1.8
	C134.1,145.6,134,145.8,133.9,145.9L133.9,145.9z M135.1,149.9c0.2,0,0.3,0,0.2-0.1c-0.1-0.1-0.1-0.1-0.1-0.2
	c-0.8-0.9-1.1-1.8-1.5-2.6c-0.2-0.6-0.5-1.1-0.9-1.6c-0.7-0.7-1.2-1.5-1.6-2.4c-0.8-1.6-1.2-3.5-1.5-5.3c-0.1-0.4-0.1-0.8-0.2-1.3
	c-0.6-3.8-1.2-7.7-3.7-9.9c-1.9,4.4,1.3,10,1.9,15.4c0.1,0.6,0.1,1.1,0.1,1.6c0,1.1-0.1,2.1-0.4,3.1c-0.5,1.5,0.1,3-0.5,5.1
	c-0.1,0.2,0.9-0.4,1.9-1.2c1-0.7,1.9-1.4,2-1.5c0.5,0.1,1.3,0.3,2.2,0.5C133.8,149.7,134.7,149.9,135.1,149.9L135.1,149.9z
	 M126.5,147.6L126.5,147.6L126.5,147.6c-0.1,0.2-0.4,0.3-0.8,0.5c-1.7,0.9-5.3,2.3-4.8,0.6c0.8-2.5,3.6-2.3,5.1-1.4
	C126.2,147.3,126.3,147.4,126.5,147.6L126.5,147.6z M111.3,142.4c0.8-0.1,2,0.2,2.9,0.8c0.9,0.7,1.5,1.8,1,3.2
	c-0.3,1-1.1,0.4-1.9-0.6C112.4,144.8,111.4,142.9,111.3,142.4L111.3,142.4z M122.4,170.5c0.5,1.2,1.5,2.1,3,2.5
	c0.2,0.1,0.4,0.1,0.6,0.1c-0.2,0-0.4-0.1-0.6-0.1c-1.3-0.3-2.7-0.1-3.9,0.2c-1.4,0.5-2.7,1.2-3.9,2.2c-0.3,0.2-0.6,0.4-0.8,0.7
	c-3.9,3.1-7,7.3-9.6,6.3c0,0-0.1-0.1-0.2-0.1c-1-0.7-1.8-3.9-2.8-7.5c-0.9-3.1-2.1-6.4-3.8-8.7c-0.7-1-1.6-1.7-2.6-2.2
	c-0.1-0.1-0.2-0.1-0.4-0.2c-0.1,0-0.1,0-0.2,0c-0.1,0-0.2-0.1-0.3-0.1c0.1,0,0.3,0.1,0.4,0.1c0.1,0,0.1,0,0.2,0.1
	c0.1,0,0.3,0.1,0.4,0.1c1.3,0.3,2.4,0.2,3.4-0.3c2.6-1.4,4.1-5.2,5.1-8.1c0.6-1.9,3.5-11.8,4.7-12.7c0.2,0.5,1.1,2.6,2.2,3.9
	c0.9,1.2,2,1.8,2.7-0.2c0.5-1.4-0.4-2.7-1.5-3.7c-0.8-0.7-1.8-1.2-2.4-1.4c0.1-0.4,1.9-1.9,4-3.5c3-2.3,6.6-4.8,6.8-4.9l0,0
	c0,0,3.3,9.6,3.8,12.6c0.1,0.4,0.1,0.7,0,0.8c-0.1,0-0.2-0.1-0.3-0.1c-1.7-0.4-5.1-0.4-5.8,1.9c-0.9,3.4,3,1.5,5.1,0.3
	c0.3-0.2,0.6-0.3,0.8-0.4l0.3-0.2c0.5,1.4-2.9,11.2-3.5,13.1C122.2,163.9,121.2,167.8,122.4,170.5L122.4,170.5z M107.7,143.2
	c-0.3-0.8-0.5-1.6-0.6-2c-0.1,0-0.9-0.4-1.8-0.7l-0.5-0.2c-0.6-0.3-1.2-0.6-1.6-0.8c-0.3-0.2-0.4-0.3-0.3-0.3
	c0.2-0.1,0.3-0.1,0.5-0.1c0.9-0.2,1.5-0.6,2.2-1c0.3-0.2,0.5-0.3,0.8-0.4c0.4-0.2,0.8-0.4,1.2-0.5c0.9-0.2,1.7-0.5,2.5-0.9
	c3.5-1.8,6.1-5.6,9.1-8c1.5-1.2,3-2,4.8-2.2c-0.7,3.2-3.7,5.5-6.6,8c-2.5,2.1-5.1,4.3-6,7.3c-0.5,1.5-1.9,2.4-2.5,4.4
	C108.6,145.9,108.1,144.6,107.7,143.2L107.7,143.2z M106.2,136.8c-0.1,0-0.2-0.1-0.3-0.2c-0.4-0.2-0.9-0.6-1.5-1
	c-1.6-1.2-3.2-2.9-1.8-3.2c1.1-0.2,2,0.1,2.6,0.7c0.6,0.6,1,1.5,1.1,2.3C106.3,136,106.3,136.4,106.2,136.8L106.2,136.8z M93,140.5
	l-0.3,0.1c-4.3,0.9-10.8,2.9-9,8.5c-0.5-2.3-2.8-3.9-5.4-5.3c-4.3-2.2-9.6-3.7-10.4-6c0-0.1-0.1-0.2-0.1-0.2
	c-0.3-1.1,0.3-2.3,1.3-3.6c2.9-3.9,9.2-8.7,8.1-13.9c0.5,4,3.8,4.8,7.2,4.7c1.6-0.1,3.2-0.4,4.6-0.7c1.3-0.3,6.5-1.5,10-2.1
	c1.6-0.2,2.9-0.4,3.3-0.2c-0.5,0.8-5,6.6-1,6.1l0.2,0c2.6-0.5,2.8-4.3,2.4-5.9c0.4-0.1,2.3,0.5,4.4,1.4c0.5,0.2,1.1,0.4,1.6,0.7
	l0.6,0.2c1,0.4,2,0.9,2.9,1.2c1.6,0.7,2.7,1.2,2.7,1.2c0,0.1-2.6,3.2-5,5.8c-1.8,1.9-3.4,3.6-3.9,3.6c-0.1-0.3-0.2-0.5-0.3-0.9
	c-0.1-0.3-0.2-0.6-0.4-0.8c-0.3-0.6-0.8-1.3-1.3-1.8c-0.7-0.7-1.7-1.1-2.7-0.9c-3.1,0.8-0.4,2.9,1.6,4.2c0.7,0.4,1.3,0.8,1.6,0.9
	l0.1,0c0,0.1-0.1,0.1-0.1,0.1c-0.3,0.3-1.1,0.5-2.1,0.9c-1.7,0.5-4,1.1-6.1,1.5C95.6,140,93.9,140.3,93,140.5L93,140.5z
	 M101.3,127.4c-0.1,0-0.2,0.1-0.2,0.1c-2.2,0.5,0.9-4.9,1.6-5.5c0.1,0.1,0.2,0.3,0.3,0.4C103.7,123.8,103.7,126.7,101.3,127.4
	L101.3,127.4z M99.6,119.8c0.7-0.8,1.5-1.7,2-2.1c0-0.1-0.2-1.7-0.3-3c-0.1-1-0.1-1.8,0-1.7c0.1,0.1,0.3,0.3,0.4,0.4
	c1.2,1.1,2.5,1.5,3.4,2.3c0.1,0.1,0.2,0.2,0.3,0.3c1.2,1.3,2.6,2.1,4.3,2.8c0.5,0.2,1.1,0.4,1.7,0.6c0.2,0.1,0.4,0.1,0.6,0.2
	c1,0.3,2,0.6,3,0.8c2.1,0.6,4.2,1.1,5.9,2.1c1.1,0.6,2,1.3,2.7,2.3c-1.1,0.4-2.3,0.4-3.5,0.3c-1.9-0.2-4-1-6-1.8
	c-1-0.4-2-0.8-2.9-1.1c-0.2-0.1-0.4-0.1-0.6-0.2c-0.6-0.2-1.1-0.3-1.7-0.5c-1.7-0.4-3.5-0.6-5.1-0.2c-0.2,0-0.3,0-0.4,0.1
	c-1.3,0.1-2.5-0.3-4.1-0.1c-0.2,0-0.4,0.1-0.6,0.1C98.4,121.3,98.9,120.6,99.6,119.8L99.6,119.8z M105.4,114.5
	c-0.1,0.1-0.3,0.2-0.4,0.2c-0.2-0.9,0.4-7,1.9-5.4c0,0,0.1,0.1,0.1,0.1C108.6,111.4,106.9,113.8,105.4,114.5L105.4,114.5z M95,104.9
	c0.9,1,4.4,5,7,7.5c1.2,1.1,2.1,1.9,2.6,2c0-0.9-0.2-8.2,2.6-5.6c0.1,0,0.1,0.1,0.2,0.2c1.8,1.8-0.2,5.1-1.4,6.2
	c0.2,0.3,2.1,0.9,4.4,1.5c0.6,0.1,1.1,0.3,1.7,0.4l0.6,0.1c1,0.2,2.1,0.5,3,0.7c1.9,0.4,3.3,0.7,3.3,0.7c0-0.1-0.2-5.1-0.6-9.1
	c-0.3-2.2-0.5-4.1-0.8-4.3c-0.3,0.3-0.8,0.6-1.3,0.9c-0.2,0.1-0.5,0.2-0.7,0.3c-0.6,0.3-1.3,0.4-2,0.5c-0.8,0-1.6-0.2-2.2-0.9
	c-1.9-2.3,1-2.5,3.3-2.5c0.7,0,1.3,0.1,1.8,0.1l0.6,0c0-0.2-0.1-0.5-0.4-0.8c-0.3-0.5-0.7-1.1-1.3-1.8c-1.1-1.5-2.7-3.2-4.1-4.8
	c-1.3-1.4-2.4-2.6-2.9-3.1l-0.2-0.2c-2.9-3.3-6.7-8.5-2.1-11.9c-2.4,2.2-5.3,2.2-8.3,1.4c-4-1.1-8.1-3.7-10.9-4.6
	c-0.4-0.1-0.7-0.2-1-0.3c-0.7-0.1-1.3-0.1-1.7,0.3c-0.7,0.6-0.5,2.6-0.1,5.3c0.1,0.7,0.3,1.5,0.4,2.3c1,5.6,2.1,12.7-1.3,15.9
	c2.7-2.9,5.9-1.8,8.5,0.3C92.9,102.7,94,103.9,95,104.9L95,104.9z M117,104.2c-0.1,0.3-0.3,0.6-0.5,0.9c-0.2,0.3-0.5,0.6-0.9,0.8
	c-0.6,0.4-1.3,0.7-2.1,0.7c-0.7,0-1.4-0.3-2-1c-0.9-1,1-1.4,2.8-1.5c0.7,0,1.3,0,1.8,0c0.2,0,0.4,0,0.6,0
	C116.9,104.1,117,104.2,117,104.2L117,104.2z M117.3,100.4c-1-0.2-1.8-0.3-1.7-0.1c0.5,0.6,0.9,1.2,1.2,1.8c0.1,0.3,0.2,0.6,0.4,0.8
	c0.3,0.7,0.5,1.3,1,1.8c0.5,0.5,0.8,1,1.2,1.6c1.9,3.3,2,7.8,2.9,11.6c0.5,2.1,1.3,4.1,2.8,5.4c1.5-3.3,0.1-7.2-1-11.1
	c-0.8-2.9-1.3-5.9-0.5-8.6c0.5-1.5-0.1-3,0.5-5.1c0.1-0.3-1.7,1-2.9,1.9c-0.6,0.4-1,0.7-1,0.8c-0.5-0.1-1.4-0.4-2.3-0.5
	C117.7,100.5,117.5,100.5,117.3,100.4L117.3,100.4z M124.5,102.6c0.3-0.3,1.8-1,3.1-1.5c1.5-0.5,2.8-0.6,2.5,0.5
	c-0.5,1.6-2,2.1-3.3,2C125.9,103.5,125,103.1,124.5,102.6L124.5,102.6z M139.1,107c-0.1,0-0.2,0-0.4,0c-1.7,0-4.4-1.5-3.6-4.1
	c0.6-1.8,3,2,3.8,3.6C139,106.7,139.1,106.9,139.1,107L139.1,107z M128.1,78.8c2,2.6,0.9,7.1-0.1,10.3c-0.6,1.9-4,11.6-3.5,13
	c0.4-0.2,1.9-1.1,3.4-1.7c1.7-0.7,3.4-0.8,2.7,1.5c-0.5,1.7-2.3,2.2-3.9,2.2c-0.9,0-1.7-0.1-2.2-0.3c-0.2,0.4,0.3,2.2,0.9,4.3
	c1,3.1,2.4,7,2.7,7.9c0.1,0.1,0.1,0.2,0.1,0.2c0.1,0,9.3-6.6,10.2-8c0,0,0-0.1,0.1-0.1h0c-1.5-0.5-4.7-2.6-3.8-5
	c1.3-3.5,3.6,1,4.5,3c0.2,0.4,0.3,0.6,0.3,0.8l0.1,0c1.3-1.1,4.1-10.8,4.7-12.6c0.9-2.9,2.5-6.8,5.1-8.1c1.1-0.6,2.3-0.7,3.8-0.1
	c0,0,0,0,0,0c0.1,0.1,0.2,0.1,0.4,0.1c-0.1-0.1-0.2-0.1-0.4-0.1c0,0,0,0,0,0c-1.2-0.5-2.2-1.3-3-2.4c-0.8-1.1-1.5-2.5-2-3.9
	c-0.1-0.3-0.2-0.6-0.3-0.9c-1.5-4.2-2.3-8.8-4.7-9.5l-0.1,0c-1.5-0.4-3.7,1.1-6.1,2.9c-2.6,1.9-5.5,4.2-8.2,5
	c-1.1,0.4-2.3,0.5-3.3,0.3c0,0,0,0-0.1,0c-0.1,0-0.2-0.1-0.3-0.1c0.1,0,0.2,0,0.3,0.1c0,0,0.1,0,0.1,0
	C126.7,77.4,127.5,78,128.1,78.8L128.1,78.8z M142.8,106.3c0.2,0.7,0.5,1.4,0.6,1.9c0.1,0.1,1.2,0.5,2.3,1c1.1,0.5,2.2,1,1.9,1.1
	c-1.1,0.2-1.9,0.7-2.6,1.1c-0.7,0.4-1.3,0.8-2,0.9c-0.8,0.2-1.6,0.5-2.4,0.9c-1.5,0.8-2.9,2-4.3,3.2c-0.3,0.3-0.6,0.6-0.9,0.9
	c-2.9,2.9-5.7,6-9.2,6.4c1-4.9,7.3-7.6,10.9-11.9c0.4-0.5,0.8-1,1.1-1.5c0.4-0.6,0.7-1.3,0.9-2c0.5-1.5,1.9-2.4,2.5-4.4
	C141.8,103.5,142.4,104.9,142.8,106.3L142.8,106.3z M144.2,112.6c0.1,0,0.2,0.1,0.3,0.2c0.5,0.3,1.2,0.7,1.9,1.3
	c1.4,1.1,2.7,2.6,1.4,2.9c-0.9,0.2-1.6,0-2.2-0.4c-0.9-0.6-1.3-1.7-1.5-2.6C144.1,113.5,144.1,113,144.2,112.6L144.2,112.6z
	 M152.6,109.9c1.8-0.4,3.5-0.7,4.5-0.9c0.2-0.1,0.4-0.1,0.6-0.1c1.7-0.4,3.7-0.9,5.4-1.7c2.7-1.3,4.7-3.4,3.6-6.8
	c0.6,2.9,3.1,4.6,6.2,5.9c3.5,1.4,7.6,2.1,10.4,3c0.5,0.2,1,0.4,1.4,0.6c1,0.4,1.6,1,1.7,1.7c0.2,1.2-1.6,3.1-3.9,5.2
	c-0.7,0.6-1.4,1.3-2.2,2c-4,3.6-8.2,7.7-7.4,11.2c-0.5-3.5-3-4.6-6-4.7c-2-0.1-4.1,0.3-5.8,0.7c-0.7,0.1-2.4,0.6-4.3,1
	c-1.9,0.4-4,0.9-5.7,1.2c-1.6,0.3-2.9,0.4-3.3,0.2c0.5-0.8,4.9-6.6,1-6.1c-0.1,0-0.2,0-0.2,0c-2.6,0.5-2.7,4.3-2.4,5.9
	c-0.3,0.1-1.9-0.3-3.8-1c-0.7-0.2-1.4-0.5-2.1-0.8c-1.2-0.4-2.3-0.9-3.4-1.3c-1.2-0.5-2.2-0.9-2.9-1.2l-0.5-0.2
	c-0.2-0.1-0.3-0.2-0.3-0.2c0,0,0.2-0.3,0.6-0.7c0.3-0.3,0.6-0.6,1-1c1.3-1.4,3.2-3.5,4.9-5.2c1.7-1.8,3.2-3.2,3.7-3.2
	c0.1,0.4,0.3,1.1,0.6,1.7c0.4,0.8,1,1.6,1.7,2.1c0.7,0.5,1.4,0.8,2.3,0.5c2.9-0.7,0.7-2.6-1.2-3.9c-0.8-0.5-1.6-1-2-1.2l-0.1,0
	c0-0.1,0.1-0.1,0.1-0.1c0.4-0.3,1.4-0.7,2.7-1C148.9,110.8,150.9,110.3,152.6,109.9L152.6,109.9z M148.6,122.7c0.1,0,0.1,0,0.2-0.1
	c2.2-0.5-0.9,4.9-1.6,5.5c-0.1-0.1-0.2-0.3-0.3-0.4C146.2,126.3,146.2,123.4,148.6,122.7L148.6,122.7z M145,135.4
	c-0.2,0-0.3,0.1-0.5,0.2c-1.4,0.8-3.1,3-1.6,5c0,0.1,0.1,0.1,0.2,0.2C144.6,142.4,145.2,136.3,145,135.4L145,135.4z M150.3,130.3
	c0.7-0.8,1.2-1.5,1-1.4c-0.2,0-0.4,0.1-0.6,0.1c-1.6,0.2-2.9-0.2-4.1-0.1c-0.1,0-0.3,0-0.4,0c-1.5,0.3-2.9,0.3-4.4,0
	c-0.7-0.1-1.4-0.3-2.2-0.6c-1.1-0.3-2.3-0.8-3.4-1.2c-1-0.4-2-0.7-2.9-1c-0.2-0.1-0.4-0.1-0.6-0.2c-2.1-0.6-4.1-0.9-6-0.2
	c1.2,1.6,3,2.6,5.1,3.3c0.2,0.1,0.4,0.1,0.6,0.2c1,0.3,2,0.6,3,0.8c1.2,0.3,2.4,0.6,3.5,1c0.7,0.2,1.4,0.5,2.1,0.8
	c1.4,0.6,2.6,1.4,3.7,2.5c0.1,0.1,0.2,0.2,0.3,0.3c1,0.9,2.2,1.2,3.4,2.3c0.2,0.1,0.3,0.3,0.4,0.4c0.2,0.1,0.1-0.7,0-1.8
	c-0.1-1.3-0.3-2.9-0.3-3C148.8,132,149.7,131.1,150.3,130.3L150.3,130.3z M118.4,178.6c0.5-0.2,1.1-0.4,1.6-0.6
	c1.4-0.5,2.9-0.8,4.2-1.1c0.9-0.2,1.7-0.3,2.5-0.4c0,0,0,0,0.1,0c1.9-0.7,3.7-1.4,5.5-2.3c1.3-0.6,2.4-1.3,3.6-2
	c0.4,0,0.8,0.1,1.2,0.1c1.8,0.2,3.6,0.2,5.3,0.1c0.6,0,1.2-0.1,1.8-0.1c2.4-1.4,4.7-2.2,7-2.6c-1.4-0.2-3.2-0.1-5.3,0.3
	c-1.2,0.3-2.5,0.3-2.6-0.4c0-0.2,0-0.4,0.2-0.7c0.2-0.3,0.4-0.6,0.9-1c1.2-1.1,1.4-2.8,0.9-4.6c-0.5-1.9-1.8-4.1-3.4-6.1
	c-0.9-1.2-2-2.3-3.1-3.3c-1.3-1.1-2.6-2.1-3.9-2.9c-0.7-0.4-1.4-0.7-2-1c-0.6-0.2-1.2-0.4-1.8-0.5c-1,0.6-1.9,1.6-2.7,2.7
	c-2.9,3.9-4.9,10.2-4.6,14.7c0.2,2.2,0.9,3.9,2.3,4.7c0.2,0.1,0.4,0.2,0.6,0.2c0.8,0.2,1.2,0.5,1.5,0.7c0.4,0.4,0.2,0.9-0.4,1.2
	c-0.4,0.3-1.1,0.5-1.6,0.6c-0.3,0.1-0.6,0.2-0.9,0.3c-1.9,0.5-3.4,1.2-4.5,2C119.5,177.4,118.9,178,118.4,178.6L118.4,178.6z
	 M230.6,163.8c-2.6-0.1-3.7-0.6-5.1-1.9c-0.5-0.4-0.9-0.9-1.5-1.6l-3-3.3c-0.7-0.8-1.7-1.1-1-1.9c-0.1-1,0.9-0.7,1.9-0.9l4.4-1
	c0.8-0.2,1.5-0.3,2.1-0.4c2-0.3,3.1,0,5.3,1.4c1.8,1.1,1.3,3.4,0.2,5.4C233.6,161.7,232.7,163.9,230.6,163.8L230.6,163.8z
	 M216.5,163.9c0.4,3.1,3.8,4.5,5,7.3c0.2,0.5,0.4,1,0.5,1.4c0.4,1.3,0,2-0.7,2.1c-1.5,0.2-4.7-2.3-5.8-5.6
	C215.1,167.7,214.1,163.7,216.5,163.9L216.5,163.9z M224.4,141.2c2.8-2.1,6.9-2.2,8-1.2c0.5,0.4,0.4,1.1-0.6,2
	c-0.3,0.3-0.7,0.5-1.2,0.9c-2.6,1.5-6.2,0.8-8.3,3.1C220.1,144.8,223.2,142.1,224.4,141.2L224.4,141.2z M213.2,157.3
	c-1.4-2-1.5-1.2-3.1,0.9c-0.8,1-2.1,3-2.3,4.2c-0.1,0.6,0.2,4.8-0.7,4.5c-0.5-0.2-1-0.4-1.2-0.7c-2.9-2.8,6.8-9.8-0.7-11.7
	c-0.2,0-0.4-0.1-0.7-0.1c-1.5-0.3-4.2-0.7-1.5-1.1c0.6-0.1,1.3-0.1,1.9-0.2c1.7-0.1,3.5-0.1,5.2-0.2h0.1c0.5-0.1,1-0.3,1.5-0.5
	c-0.3-0.4-0.6-0.8-1-1.2l0-0.1c-1.3-1.1-2.8-2.1-4.1-3.1c-0.5-0.4-1-0.8-1.5-1.2c-2-1.8,0.5-0.7,1.9,0c0.3,0.1,0.5,0.2,0.6,0.3
	c7.3,2.8,3.4-8.6,7.3-9.2c0.4-0.1,0.8,0,1.4,0.1c0.9,0.3-1.8,3.5-2.1,4.1c-0.5,1.1-0.7,3.4-0.6,4.7c0.1,2.7-0.3,3.4,2,2.5
	c0.4-0.1,5.9-4,3.8-1.2c-1.3,1.9-2.7,3.4-3.8,5.5c-0.3,2.2-0.1,4.5-0.1,6.8C215.6,164,213.4,157.6,213.2,157.3L213.2,157.3z
	 M199.8,151c-1.2,0.3-2,0.1-3.2-0.4c-0.3-0.1-0.6-0.3-0.9-0.6c-0.5-0.4-1-1.1-1.1-1.7c0-0.3,0.9-0.3,1.8-0.3c0.5,0,1,0,1.1-0.1
	c0-0.2-0.4-0.4-0.9-0.8c-0.7-0.5-1.5-1-1.3-1.2c0.4-0.5,1.2-0.7,1.9-0.7c0.4,0,0.8,0,1.1,0.1c1.2,0.3,2.1,0.6,2.8,1.5
	c0.1,0.2,0.5,0.4,1.1,0.7c1,0.6,2.6,1.3,3.9,2c1.6,0.8,2.8,1.5,2.3,1.8c0.2,0.5-1.2,0.5-3,0.2c-1.5-0.2-3.1-0.5-4.3-0.6
	C200.5,151,200,151,199.8,151L199.8,151z M192.8,146.6c-0.9,1.1-3.8,1.7-4.3,2.3c-0.6,0.7,1.8,9.6,2.8,15c0.3,1.7,0.5,3,0.4,3.7
	c-0.1,1.6-1,1.6-2,1c-1.1-0.7-2.2-2.3-2.5-3.4c-1.8-7.5,0.9-12.7-2.9-16.6c-1-1-2.5-2-4.7-2.8c-0.3-0.1-0.7-0.3-1.1-0.4
	c-0.4-0.1-1.1-0.4-1.8-0.7c-1.1-0.5-2.3-1.1-2.8-1.5l-0.1-0.1c-0.5-0.4-0.9-0.9-1.1-1.3c-0.4-0.7-0.4-1.3-0.1-1.8
	c0.1-0.6,0.4-1.1,1.1-1.4c0.4-0.2,0.9-0.3,1.6-0.4h0.1c0.6,0,1.9,0.2,3.1,0.4c0.8,0.2,1.5,0.3,1.9,0.4c0.4,0.1,0.7,0.2,1.1,0.3
	c2.3,0.6,4,0.7,5.4,0.4c5.3-0.9,6.1-6.8,11.9-11.9c0.9-0.8,2.8-1.4,4.1-1.4c1.1,0.1,1.8,0.6,1,1.9c-0.3,0.6-1.3,1.6-2.5,2.8
	c-4,3.9-11.1,9.8-11,10.7C190.7,143,192.8,145,192.8,146.6L192.8,146.6L192.8,146.6z M140.4,178.4c0.3,0.8,0.5,1.5,0.6,2
	c1.2,5.2,3.2,7.2,5.7,8.1c2.9,1,6.5,0.6,10.8,1.6c0.5,0.1,1,0.3,1.5,0.4c0.3,0.1,0.6,0.2,0.9,0.3c0.6,0.2,1.3,0.6,1.9,1.2
	c1.6,1.4,2.6,3.4,0.1,3.4c-0.3,0-0.7-0.1-1.2-0.1c-0.8-0.2-1.8-0.4-3-0.8c-0.4-0.1-0.9-0.3-1.4-0.4c-3.5-1.1-7.7-2.5-10.3-3.2
	c-1.3-0.4-2.2-0.5-2.5-0.3c-0.7,0.5-1.4,3.3-2.7,4.1l-0.1,0c-1.4-0.2-3.3-2.4-4.2-2.6c-0.1,0-0.3,0.1-0.6,0.2
	c-1.3,0.8-4.4,3.7-7.4,6.5c-2.2,2-4.4,4-5.7,5c-0.4,0.2-0.7,0.4-0.9,0.5c-3.1,1.4-1.7-3.5-0.1-5.1c1.1-1,2.2-1.9,3.3-2.6
	c1.8-1.3,3.6-2.1,5.1-3.1c3.6-2.2,5.8-4.5,4.3-11.7c-0.1-0.3-0.1-0.8-0.2-1.3c-0.2-1.4-0.3-3.2-0.2-3.9c0.3-1.8,1.2-2.6,2.1-2.6
	c0.1,0,0.1,0,0.2-0.1c0.8-0.3,1.7,0.1,2.7,1.5C139.5,176,140,177.2,140.4,178.4L140.4,178.4z M143.9,197.5c0.3,0.4,0.5,0.9,0.7,1.3
	c0.3,1.2,0.5,2.1,0.1,3.2c-0.4,1,0.8,9.2-0.3,8.6c-0.5,0.7-1.9-2.9-2.9-5.4c-0.5-1.1-0.8-2-1.1-2.2c-0.9-0.8-1.1-1.7-1.3-2.9
	c-0.1-0.9,0.1-2.3,0.9-2.9c0.3-0.3,1.4,2.2,1.8,2.3c0.3-0.3,0.2-2.9,0.6-2.9C143,196.6,143.5,197,143.9,197.5L143.9,197.5z
	 M147.7,207.6c0.4,2.8,1.7,3.4,3.3,3.2c0.6-0.1,1.2-0.2,1.8-0.5c1.2-0.4,2.5-1.1,3.7-1.4c1.3-0.4,2.4-0.4,3.1,0.7
	c0.2,0.3,0.3,0.6,0.4,1c0.1,0.3-0.3,0.4-0.9,0.4c-0.9,0.1-2.4-0.1-3.2-0.1c-0.2,0-0.4,0-0.5,0c-0.8,0.1-2,0.6-3.1,1.1
	c-0.5,0.3-0.9,0.5-1.3,0.8c-0.2,0.2-0.4,0.3-0.7,0.4c-1.6,1-2.2,1.2-0.8,2.4c0.1,0.1,0.2,0.1,0.3,0.2c0.1,0.1,0.5,0.3,1.1,0.6
	c0.9,0.5,2.2,1.2,2.7,1.6c0.3,0.3,0.3,0.5-0.2,0.6c-0.2,0-0.4,0-0.7,0c-0.8-0.1-1.7-0.2-2.5-0.3c-0.5-0.1-1-0.1-1.5-0.2
	c-0.9-0.1-1.7-0.1-2.6-0.1c-2.1,0.9-4,2.2-5.9,3.4c-3,1.7,1.3-3.4,1.5-3.7c1-2.3,0.3-1.9-2.3-2.3c-0.3-0.1-0.7-0.1-1.1-0.1
	c-1.3-0.1-2.8-0.1-3.7,0.3c-0.6,0.2-4.1,2.5-4.3,1.7c-0.9-4.5,5.5-2.5,8.5-3.8c1.2-0.6,1.9-1.7,1.2-3.9l0-0.2c-0.3-1-2-5.1,0-2.5
	c0.2,0.3,0.4,0.6,0.6,0.9c1.1,1.6,2.1,3.5,3.2,5c0.3,0.4,0.8,0.8,1.2,1.1c0.2-0.5,0.5-1,0.6-1.5c0.4-2.3,0.5-4.8,1-7
	C147.4,202.1,147.6,206.6,147.7,207.6L147.7,207.6z M151,225.9l0.8,0.8c0.7,0.7,1.2,1.3,1.7,1.9c1,1.4,1.4,2.6,1.2,5
	c-0.1,1.8-1.8,2.6-3.7,2.8c-0.2,0-0.5,0-0.8,0c-0.9,0.4-1.9,0.7-2.7,0.7c-1.1,0-2.1-0.3-2.6-1.4l-0.1-0.2c-0.4-0.9-0.7-1.6-0.9-2.2
	c-0.4-1.5-0.1-2.8,0.7-5.1l1.4-4.3c0.3-1,0.1-2,1.1-1.8c0.2-0.1,0.3-0.2,0.5-0.2c0.5,0,0.7,0.7,1.2,1.3c0,0,0.1,0.1,0.1,0.1
	L151,225.9L151,225.9z M156.7,218.5c1.2-0.6,3.6,0.3,4.5,0.7c0.2,0.1,0.5,0.2,0.7,0.3c4.6,2.5,6.6,9,0.9,5.8
	c-0.9-0.4-1.5-1.2-2.2-1.9c-1.3-1.5-2.5-3.2-4.4-3.7c-0.1,0-0.1-0.1-0.2-0.1C156,219.1,156.3,218.7,156.7,218.5L156.7,218.5z
	 M133.9,231.8c-0.5,0.7-0.9,1.2-1.3,1.5c-2.8,2.2-3-4.1,0.2-7.8c0.6-0.6,1.9-1.9,3-2.4c0.8-0.3,1.5-0.2,1.9,0.7
	C135.2,225.7,135.7,229.4,133.9,231.8L133.9,231.8z M76.3,111.1c-0.3,0.2-0.7,0.3-1.3,0.4c-0.2,0-0.4,0.1-0.6,0.1
	c-0.4,0-1.1,0-1.8-0.2c-1.2-0.2-2.5-0.5-3.2-0.7l-0.1,0c-0.3-0.1-0.6-0.2-0.8-0.2c-1.7-0.4-3.1-0.6-4.4-0.6
	c-6.6,0.1-7.1,6.5-13.3,12c-0.9,0.8-2.7,1.4-4,1.3c-1.2,0-1.8-0.5-1-1.9c0.4-0.6,1.3-1.6,2.5-2.8c4-3.9,11-9.7,10.9-10.6
	c-0.1-0.9-2.2-2.9-2.2-4.4l0.1-0.1c0.9-1.2,3.8-1.7,4.3-2.3c0.6-0.7-1.8-9.7-2.8-15.1c-0.3-1.6-0.5-2.9-0.4-3.6c0.1-1.6,1-1.6,1.9-1
	c1.1,0.7,2.3,2.3,2.5,3.5c1.9,8.1-1.4,13.6,3.9,17.5c1,0.7,2.3,1.4,3.9,2c0.3,0.1,0.5,0.2,0.8,0.3l0,0c0.7,0.2,2,0.8,3,1.3
	c0.7,0.4,1.3,0.7,1.6,0.9c0.1,0.2,0.3,0.3,0.4,0.4c0.4,0.4,0.6,0.8,0.8,1.1c0.3,0.6,0.2,1.2,0,1.6C77.1,110.4,76.9,110.8,76.3,111.1
	L76.3,111.1z M53.4,102.7c0.7,0.5,1.5,1,1.3,1.2c-0.4,0.5-1.2,0.7-1.9,0.8c-0.4,0-0.7,0-1.1-0.1c-1.2-0.3-2-0.6-2.8-1.5
	c-0.1-0.2-0.5-0.4-1.1-0.7c-1-0.6-2.6-1.3-3.9-2c-1.6-0.8-2.8-1.6-2.3-1.9c-0.2-0.5,1.2-0.5,3-0.2c1.5,0.2,3.1,0.4,4.3,0.6
	c0.6,0.1,1.1,0.1,1.3,0c1.2-0.3,2-0.1,3.2,0.4c0.3,0.1,0.6,0.3,0.9,0.5c0.6,0.5,1.1,1.1,1.1,1.7c0,0.3-0.9,0.3-1.8,0.3
	c-0.5,0-1,0-1.1,0.1C52.5,102.1,52.9,102.4,53.4,102.7L53.4,102.7z M43.1,103.1c-0.3-0.1-0.5-0.2-0.7-0.3c-7.3-2.8-3.4,8.5-7.3,9.1
	c-0.4,0.1-0.9,0-1.4-0.1c-0.8-0.3,1.8-3.5,2.1-4.1c0.6-1.1,0.7-3.4,0.6-4.7c-0.1-2.7,0.3-3.3-2-2.5c-0.4,0.1-5.9,4-3.9,1.2
	c1.3-1.9,2.8-3.4,3.8-5.5c0.3-2.3,0.1-4.5,0.1-6.8c0-3.5,2.2,2.9,2.5,3.2c1.4,2,1.5,1.2,3.1-0.9c0.9-1.1,2-3,2.2-4.2
	c0.1-0.6-0.2-4.8,0.7-4.5c0.5,0.2,0.9,0.4,1.2,0.7c3,2.8-6.9,9.8,0.7,11.7c0.2,0,0.4,0.1,0.7,0.2c1.5,0.3,4.2,0.7,1.5,1.1
	c-0.6,0.1-1.3,0.1-1.9,0.1c-1.7,0.1-3.5,0-5.2,0.2h-0.1c-0.5,0.1-1,0.3-1.5,0.5c0.3,0.4,0.6,0.9,0.9,1.2l0.1,0.1
	c1.3,1.1,2.7,2.1,4.1,3.1c0.5,0.4,1,0.8,1.5,1.2C46.9,104.9,44.5,103.8,43.1,103.1L43.1,103.1z M33.5,86c-0.4-3.1-3.8-4.6-5-7.3
	c-0.3-0.6-0.4-1-0.5-1.4c-0.3-1.3,0-1.9,0.6-2c1.5-0.3,4.8,2.3,5.9,5.6C34.9,82.2,35.9,86.2,33.5,86L33.5,86z M25.6,108.7
	c-2.8,2-6.8,2.2-8,1.2c-0.5-0.5-0.4-1.2,0.7-2.1c0.3-0.2,0.7-0.5,1.2-0.8c2.6-1.5,6.2-0.7,8.3-3C29.9,105.1,26.7,107.8,25.6,108.7
	L25.6,108.7z M28.2,95.7l-4.4,1c-0.8,0.2-1.5,0.3-2.2,0.4c-2,0.3-3.1,0-5.3-1.4c-1.8-1.1-1.2-3.4-0.2-5.4c0.3-2.2,1.2-4.4,3.3-4.3
	c2.6,0.1,3.7,0.6,5.1,1.9c0.4,0.4,0.9,1,1.5,1.6l3,3.3c0.7,0.8,1.7,1.1,1,1.9C30.2,95.8,29.2,95.5,28.2,95.7z"/>
</svg>
