<?xml version="1.0" encoding="utf-8"?>
<!-- Generator: Adobe Illustrator 28.1.0, SVG Export Plug-In . SVG Version: 6.00 Build 0)  -->
<svg version="1.1" id="Layer_1" xmlns="http://www.w3.org/2000/svg" xmlns:xlink="http://www.w3.org/1999/xlink" x="0px" y="0px"
	 viewBox="0 0 250 250" style="enable-background:new 0 0 250 250;" xml:space="preserve">
<style type="text/css">
	.st0{fill:#EFEAFF;}
</style>
<g>
	<g>
		<path class="st0" d="M116.3,133.2c0.1,0.5-1.8,2.1-2.1,2.9c-0.3,0.8-1.5,2.8-2.3,3.8c0.3,0,0.7,0.1,1.1,0.2
			c0.7,0.1,1.3,0.2,1.6-0.8c0.1-0.3,0.2-0.6,0.4-1.1C115.6,136.6,116.6,134,116.3,133.2C116.4,133.2,116.3,133.2,116.3,133.2
			c0-0.1-0.1-0.1-0.1-0.1C116.2,133.1,116.3,133.1,116.3,133.2z"/>
	</g>
	<g>
		<path class="st0" d="M111.1,140.5c0,0.1-0.1,0.3-0.1,0.4c0.2-0.3,0.5-0.6,0.7-0.8c0.1-0.1,0.2-0.2,0.2-0.3
			C111.6,139.9,111.3,140,111.1,140.5z"/>
	</g>
	<g>
		<path class="st0" d="M116.1,133.1C116.1,133.1,116.1,133,116.1,133.1c-0.8-0.2-3.2,0.5-4.9,1c-0.6,0.2-1.1,0.3-1.4,0.4
			c-1,0.3-1,1-0.8,1.7c0.1,0.3,0.1,0.7,0.1,0.9c1-0.7,3.1-1.8,4-2.1C113.9,134.7,115.6,133.1,116.1,133.1z"/>
	</g>
	<g>
		<path class="st0" d="M104.5,120.7c-0.1,0-0.3,0.1-0.4,0.1c0.4,0.1,0.7,0.1,1,0.2c0.1,0,0.2,0,0.3,0.1
			C105.2,120.7,105,120.6,104.5,120.7z"/>
	</g>
	<g>
		<path class="st0" d="M109.8,121.1c-0.9,0.1-3.3,0.1-4.4-0.1c0.5,0.8,0.2,2.4,1.8,2c1.2-0.3,5.3-0.8,6.1-1.5
			c0.1-0.1,0.1-0.2,0.1-0.3C113.3,122,110.7,121,109.8,121.1z"/>
	</g>
	<g>
		<path class="st0" d="M113.4,121.3L113.4,121.3c-0.3-1.1-3.5-3.8-4.3-4.7c-1.1-1.2-1.8,0.3-2.6,0.7c1,0.5,3.2,1.8,3.8,2.4
			C110.9,120.2,113.2,120.8,113.4,121.3z"/>
	</g>
	<g>
		<path class="st0" d="M109.3,137.1c-0.1,0-0.2,0.1-0.2,0.2c-0.3,0.2-0.6,0.4-0.9,0.7c0.1,0,0.3,0,0.4-0.1
			C109.1,137.7,109.2,137.4,109.3,137.1z"/>
	</g>
	<g>
		<path class="st0" d="M127.8,144.6c0,0.1,0,0.2,0,0.2c0,0.3,0.1,0.6,0.1,0.9c0-0.1,0.1-0.1,0.1-0.2
			C128.2,145.1,128.1,144.8,127.8,144.6z"/>
	</g>
	<g>
		<path class="st0" d="M143.3,132.3c0.1,0.1,0.3,0.1,0.4,0.2c0.4,0.2,0.9,0.4,1.4,0.6c-0.2-0.2-0.4-0.4-0.5-0.6
			C144,132,143.7,132.1,143.3,132.3z"/>
	</g>
	<g>
		<path class="st0" d="M128,140.1c0.1-0.8-0.5-3-0.2-3.5c0,0-0.1,0-0.1,0.1c-0.7,0.8-1.4,4.9-1.8,6.1c-0.5,1.6,1.3,1.4,2,1.9
			C127.7,143.5,127.8,140.9,128,140.1z"/>
	</g>
	<g>
		<path class="st0" d="M140.1,128.4c0.8-0.1,3.1-0.1,4.3,0c-0.3-0.8-0.3-2.2-1.7-1.9c-1.2,0.3-5.3,0.8-6.1,1.4
			c-0.1,0.1-0.1,0.2-0.1,0.3C136.3,127.5,139.2,128.6,140.1,128.4z"/>
	</g>
	<g>
		<path class="st0" d="M144.4,128.5c0.2,0.4,0.4,0.7,1,0.5c0.3-0.1,0.5-0.1,0.8-0.2c-0.5-0.1-1-0.1-1.4-0.2
			C144.7,128.5,144.6,128.5,144.4,128.5z"/>
	</g>
	<g>
		<path class="st0" d="M136.5,128.4c0.3,1,3.5,3.7,4.4,4.6c1,1.1,1.7-0.1,2.4-0.6c-1.1-0.5-3.1-1.8-3.7-2.3
			C139,129.5,136.8,128.9,136.5,128.4z"/>
	</g>
	<g>
		<path class="st0" d="M129.3,139.8c0.5,0.7,1.7,2.9,2.2,3.9c0.4-0.8,2.1-1.5,0.9-2.7c-0.9-0.9-3.4-4.2-4.4-4.6
			c-0.1,0-0.2,0-0.3,0.1C128.3,136.4,128.8,139.1,129.3,139.8z"/>
	</g>
	<g>
		<path class="st0" d="M106.5,117.4c-0.1,0-0.2-0.1-0.3-0.1c-0.3-0.1-0.6-0.3-1-0.4c0.1,0.1,0.1,0.2,0.2,0.3
			C105.9,117.5,106.2,117.5,106.5,117.4z"/>
	</g>
	<g>
		<path class="st0" d="M131.7,144.6c0,0,0.1,0.1,0.2,0.1c-0.1-0.3-0.2-0.6-0.3-0.8c0-0.1-0.1-0.2-0.1-0.3
			C131.4,144,131.4,144.3,131.7,144.6z"/>
	</g>
	<g>
		<path class="st0" d="M122.2,104.9C122.2,104.9,122.2,104.8,122.2,104.9c0-0.3-0.1-0.6-0.1-0.9l0,0
			C122,104.5,122,104.7,122.2,104.9z"/>
	</g>
	<g>
		<path class="st0" d="M119.5,94c2.2,2.3,2.3,7.2,2.6,10.1c1.7-5.5,7-8.1,12.1-9.9c3,4.1,5.9,8.4,5.1,13.5c0,0.3-0.1,0.6-0.2,0.9
			c0.8-1,1.7-2.2,2.7-3.3c0.6-0.7,1.3-1.3,2-1.9c0.8-0.7,1.7-1.2,2.6-1.4c1.3-0.3,2.4-0.4,3.4-0.5l0,0l0,0c0.1-1.3,0-2.5-0.3-3.5
			c-0.7-2.6-2.6-4.7-4.9-7.2c-1.2-3.8-2.9-8,3.2-6.1c13,4,5.5-6.7,9.6-5.4c10.8,3.3,2.5-4.3,1.8-8.7c-0.7-4.3,23.3,1.2,20.8-14.3
			c-0.7-4-8.7-0.3-9.2-3.3c-1.4-8.3-11.8-0.3-14.8,2.1c-1.8,1.4-2.6,1.2-2.9,0.3c-0.7-2.4,2-9.9,2.4-11.4c0.7-2.4,20.3-7.3,10-13.7
			c-6.9-4.3,1.8-14.9-6.1-17.3c-7.9-2.4-6.6,11.2-14.8,10.9c-12.1-0.5,1.2,14.6,0.5,16.9c-0.7,2.2-4.4,16.5-6.7,9
			c-1.2-3.6-5.2-16.1-11-10c-0.8,0.8-2,0.2-3.3-0.7c-2-1.4-4.4-3.5-6.1-1.7c-3.3,3.4-3.5,6.7-2.2,9.6c2.9,6.7,13.4,11.8,11.3,13.9
			c-3.1,3.2-14.2,4.9-3.4,8.2c4.2,1.3-8,5.8,4.7,9.8l0.2,0.1c6.1,1.9,2.3,4.4-0.8,6.8c-4.8,1.1-8.3,2-10.6,6.4
			C118,92.5,118.7,93.2,119.5,94z M132.1,84.8c3.9-1.9,0.4-5.5,3.7-6.5c1.8-1.6,4.1-3.3,0.6-4.4c-0.9-0.3-1.5-0.5-2-0.8
			c-3.8-2.2,1.5-4.8-0.5-5.4c-6-1.9,0.3-3.2,2.2-5.4c1.8-2.1-11-7.3-4.6-14.9c1.7-2,2.8,4.1,4.4,3.5c4.4-1.6,5.4,16.1,11-1.9
			c0,0-3.1-23,7.5-19.7s-4.7,20.6-4.7,20.6c-2.1,6.8-1.9,9-0.6,9.4c2.1,0.5,6.9-4,8.6-1.6c1,1.4,5.3-3,5.6-0.4
			c1.1,9.9-12.5,7-12.2,9.7c0.3,2.8,4.8,7.5-1.3,5.6c-2.3-0.7,1.7,6-5.6,3.7c-3.5-1.1-2.6,1.6-2,4c2.2,2.7-2.8,3.7-0.7,7.5
			c5,8.9,4.6,12.9,3.5,14.5c-0.2,0.3-0.5,0.6-0.8,0.7c-0.3,0.2-0.6,0.3-0.8,0.2c-0.1-5-4.9-14.5-7.6-14.4
			c-2.2-1.7-11.2,3.6-14.1,7.7C120.9,95.9,118.6,91.5,132.1,84.8z"/>
	</g>
	<g>
		<path class="st0" d="M239.1,97.8c-1.9-8-13.1,0-16.9-7.2c-0.4-0.8-0.8-1.4-1.2-1.9c-5.3-6.2-10.9,10.4-13.1,10.9
			c-2.2,0.5-16.4,4.6-11.1-1.3c2.6-2.8,11.3-12.7,3.1-14.6c-2.9-0.7,1.3-8.4-2.6-9.4c-15.3-3.6-11.5,20.8-15.7,19.8
			c-4.3-1-11.4-9.8-8.8,1.2c1,4.3-9.2-4-6.1,9.2c1.5,6.2-2.6,4.2-6.3,2.8c-2.4-2.5-4.3-4.5-7-5.4c-1-0.3-2.2-0.5-3.5-0.5
			c-0.1,1-0.3,2.2-0.7,3.4c-0.3,0.9-0.8,1.7-1.5,2.5c-0.5,0.6-1.1,1.1-1.7,1.6c-1.2,1-2.6,1.9-3.7,2.7c0.3-0.1,0.7-0.1,1-0.2
			c4.9-0.3,9.2,2.6,12.9,5.7c-2.2,4.9-4.5,9.9-9.9,11.6c2.9,0.4,7.3,0.9,9.3,3c0.9,0.9,1.6,1.8,2.1,2.7c4.2-2,5.3-5.3,6.7-9.9
			c2.6-2.9,5.4-6.6,6.9-0.3c1.6,7,3.9,7,5.8,6c1.8-0.9,3.2-2.5,3.7-0.5c2.6,11,5,0,8.4-2.9c3.3-2.8,10.8,20.7,22.9,10.6
			c3.1-2.6-4.1-7.6-1.8-9.5c6.5-5.4-5.7-10.3-9.3-11.7c-7.3-2.9,7.2-5.6,9.4-6.1c2.4-0.6,16.6,13.8,16.9,1.7
			C227.4,103.8,241,105.8,239.1,97.8z M202.1,108.1c-0.8,0.2-1.5,0.4-2.2,0.6c-7.1,1.9-7,3.4-5.2,4.9c1.9,1.6,5.7,3.2,4.8,5.3
			c-0.7,1.6,5.3,3.1,3.2,4.6c-6.5,4.8-10.6-2.9-13.1-5.2c-0.6-0.5-1.1-0.7-1.5-0.4c-2.3,1.7-4,7.9-5.5,1.8c-0.6-2.4-4.3,4.5-6-3
			c-0.8-3.5-2.7-1.4-4.4,0.3c-1.2,3.2-4.6-0.5-6.7,3.2c-7.6,13-11.9,10.4-12.3,9.5c4.3-2.6,10-11.6,8.5-13.9
			c0.3-2.7-8.7-7.8-13.7-8.2c0-0.2,0.1-0.5,0.3-0.8c0.1-0.2,0.4-0.4,0.7-0.6c1.6-1.1,5.6-1.3,14.3,4.4c3.6,2.4,5-2.5,7.5-0.1
			c2.3,0.8,4.9,1.8,4.1-1.7c-1.8-7.4,4.7-3,4.1-5.4c-1.5-6.2,2.9-1.3,5.7-0.9c2.7,0.5,0.7-13.2,10.5-11.5c2.5,0.5-2.1,4.4-0.8,5.6
			c3.6,3-11.2,12.8,7.2,8.5c0,0,3.1-2.4,6.9-4.5c5.5-3,12.4-5.3,13.9,1C224.8,112.5,202.1,108.1,202.1,108.1z"/>
	</g>
	<g>
		<path class="st0" d="M118.3,105L118.3,105c0.1,0.2,0.1,0.4,0.2,0.6v0.1C118.6,105.5,118.6,105.3,118.3,105z"/>
	</g>
	<g>
		<path class="st0" d="M145,133.1c3.4,4.1,3.1,9.7,2.3,14.8c-5.5,0.7-11.2,1.2-15.4-3.1c1,2.7,3.1,7.1,2.2,10.1
			c-0.3,1.1-0.7,2.1-1.1,2.9c3.9,2.8,7.4,2.1,12.2,0.9c0.5,0.1,1,0.2,1.5,0.3c3.4,0.7,6.3,1.6,2.2,5.5c-9.8,9.4,3.2,8,0.1,11
			c-8.1,7.8,2.6,4.3,6.7,5.8c4.1,1.5-12.4,19.8,2.4,25.1c3.8,1.4,4.5-7.4,7.3-6.4c8,2.9,6-10.1,5.4-13.9c-1.2-7.8,8.5,3.3,10,5
			c1.7,1.8-3.5,21.3,7.1,15.4c7.1-3.9,12.2,8.8,18.1,3.1c6-5.7-6.6-11.3-2.3-18.2c6.4-10.3-13.3-6-15-7.8
			c-1.6-1.7-12.3-11.8-4.6-10.2c3.7,0.8,16.6,3.3,14.1-4.7c-0.9-2.9,7.9-3.1,6.7-7c-4.6-15-23.7,0.6-25-3.5c-1.3-4.2,2.6-14.8-5.5-7
			c-3.2,3-1.2-9.9-11-0.5c-4,3.8-4.8,1-5.3-2.4c-0.1-0.5-0.2-1.1-0.3-1.7c1.3-4.6,2.2-8-0.2-12c-0.9,0.4-2,0.8-3.3,1.1
			C151.6,136.2,147.7,134.3,145,133.1z M160.4,156.9c0.5,2.4,0.9,5.2,3.5,2.7c5.5-5.3,4.9,2.5,6.7,0.8c4.6-4.4,2.7,1.9,3.6,4.5
			c1,2.6,11.8-6.1,15.2,3.2c0.9,2.4-4.9,0.4-5.2,2.1c-0.8,4.7-16.7-3.1-3.7,10.5c0,0,21.6,8.5,13.6,16.2s-15.7-14.1-15.7-14.1
			c-13-13.6-6,2.6-10.7,3.2c-1.7,0.2,0,6.1-2.4,5.1c-9.2-3.9,0-14.3-2.6-15.4c-2.6-1.1-8.9,0.5-4.3-3.8c1.8-1.7-6-1.4-0.5-6.7
			c2.6-2.5-0.1-3-2.5-3.7c-3.4,0.6-1.9-4.2-6.2-4.2c-0.3,0-0.7,0-1,0c-14.1-0.1-14-5-13.4-5.8c4.4,2.4,15.1,2.8,16.3,0.3
			c2.5-1.1,2.3-11.5,0.1-16c0.9-0.6,5.7-0.4,5.2,13.8c0,0.3,0,0.6,0,0.9C156.2,154.9,161.1,153.6,160.4,156.9z"/>
	</g>
	<g>
		<path class="st0" d="M108.1,137.9c-0.4,0.1-0.7,0.1-1.1,0.2c-5,0.5-9.4-2.5-13.2-5.6c2.2-5.1,4.6-10.2,10.3-11.7
			c-2.9-0.5-7.6-0.9-9.7-3.1c-0.8-0.9-1.5-1.7-2-2.5c-4.3,2-5.5,5.3-6.9,10c-2.6,2.9-5.3,6.6-6.8,0.4l0,0c-3.2-13.2-8.5-1.3-9.6-5.5
			c-2.6-11-5,0-8.4,2.9c-2.3,1.9-6.6-8.5-12.9-12c-2.9-1.6-6.2-1.7-10,1.4c-2,1.7,0.3,4.4,1.6,6.6c0.7,1.2,1.1,2.3,0.3,3
			c-6.5,5.4,5.7,10.3,9.3,11.7c7.3,2.9-7.2,5.6-9.4,6.1c-2.4,0.6-16.6-13.7-16.9-1.6c-0.2,8.1-13.7,6.1-11.8,14.1s13.1,0,16.9,7.2
			c5.7,10.7,11.9-8.5,14.3-9c1.7-0.4,10.3-2.9,12-1.4c0.5,0.5,0.4,1.3-0.9,2.7c-2.6,2.9-11.3,12.7-3,14.6c2.9,0.7-1.3,8.4,2.7,9.4
			c15.3,3.6,11.4-20.8,15.7-19.8s11.4,9.7,8.8-1.2c-1-4.3,9.2,4,6-9.3c-1.5-6.2,2.6-4.2,6.3-2.8c2.4,2.5,4.4,4.6,7.1,5.4
			c1,0.3,2.2,0.5,3.5,0.4c0.1-1,0.3-2,0.7-3.2C101.9,142.1,105.7,139.6,108.1,137.9z M86.9,139.1c-3.6-2.4-5,2.5-7.5,0.2
			c-2.3-0.8-4.9-1.8-4.1,1.7c1.8,7.4-4.7,3-4.1,5.4c1.5,6.2-2.9,1.4-5.7,0.9c-2.7-0.5-0.7,13.3-10.5,11.5c-2.5-0.4,2.1-4.5,0.8-5.6
			c-2.1-1.7,1.8-5.6,2.2-7.9c0.3-1.7-1.5-2.5-9.4-0.6c0,0-18.2,14.3-20.8,3.6c-2.6-10.8,20.1-6.5,20.1-6.5
			c18.3-4.4,0.7-6.5,2.6-10.8c0.7-1.6-5.3-3.1-3.2-4.6c8-5.9,12.4,7.2,14.6,5.5c2.3-1.7,4-8,5.5-1.8c0.5,2.2,3.6-3.2,5.5,1.1
			c0.2,0.5,0.4,1.1,0.6,1.8c0.8,3.5,2.7,1.4,4.4-0.3c1.2-3.2,4.6,0.5,6.7-3.2c7.5-13.1,11.8-10.5,12.3-9.5
			c-4.3,2.6-10,11.6-8.5,13.9c-0.3,2.7,8.8,7.8,13.8,8.2C102.2,143.1,99.5,147.3,86.9,139.1z"/>
	</g>
	<g>
		<path class="st0" d="M105.3,116.8c-3.4-3.8-3.4-8.9-2.7-13.7c0.1-0.5,0.2-1,0.2-1.4c0.5,0,1-0.1,1.4-0.2
			c5.1-0.5,10.3-0.6,14.1,3.5c-1-2.7-3.1-7.2-2.2-10.3c0.3-1.1,0.7-2,1.1-2.8c-0.6-0.4-1.2-0.8-1.8-1.1c-3.3-1.6-6.4-0.9-10.5,0
			c-3.9-0.8-8.4-1.4-3.7-5.8c9.9-9.3-3.1-8,0-11c8.2-7.7-2.5-4.3-6.7-5.9c-0.4-0.1-0.6-0.4-0.7-0.9c-0.5-4,11.7-19.4-1.6-24.3
			c-3.8-1.4-4.5,7.4-7.4,6.4c-7.9-2.9-6,10.1-5.5,13.9c1.2,7.8-8.4-3.4-10-5.1c-1.7-1.8,3.6-21.2-7-15.4c-7.1,3.9-12.1-8.9-18.1-3.2
			s6.5,11.3,2.2,18.2c-6.4,10.3,13.3,6.1,15,7.9c1.6,1.7,12.2,11.9,4.5,10.3c-3.7-0.8-16.6-3.4-14.2,4.7c0.9,2.9-8,3.1-6.8,7
			c4.1,13.6,20.2,2.2,24.1,3c0.4,0.1,0.7,0.3,0.8,0.7c1.3,4.2-2.7,14.8,5.5,7c3.2-3,1.1,9.9,11,0.6c4.7-4.4,5,0.1,5.6,4
			c-1.2,4-2.1,7.1-0.6,10.5c0.2,0.6,0.5,1.1,0.9,1.7c0.9-0.4,1.9-0.8,3.1-1C98.5,113.5,102.6,115.6,105.3,116.8z M93.6,98.9
			c0.2-4.3-4.6-3.1-3.9-6.4c-0.5-2.4-0.9-5.2-3.5-2.7c-5.6,5.2-4.9-2.6-6.7-0.9c-4.6,4.3-2.6-1.9-3.6-4.5l0,0
			c-1.1-2.4-11.8,6-15.2-3.3c-0.9-2.4,4.9-0.4,5.2-2.1c0.8-4.7,16.7,3.2,3.7-10.5c0,0-21.5-8.6-13.5-16.3
			c8.1-7.6,15.6,14.2,15.6,14.2c12.9,13.7,6-2.6,10.7-3.1c1.8-0.2,0-6.1,2.4-5.1c9.1,3.9,0.1,14.1,2.4,15.4h0.1
			c2.6,1.1,8.9-0.5,4.3,3.9c-1.8,1.7,6,1.5,0.5,6.7c-2.6,2.5,0.1,3,2.5,3.7c3.4-0.6,1.9,4.2,6.2,4.2c5.8,0,9.4,0.8,11.5,1.7
			c3.4,1.5,3.2,3.6,2.9,4.2c-1.4-0.8-3.4-1.3-5.5-1.7c-4.6-0.8-9.9-0.4-10.8,1.2c-1.7,0.8-2.2,5.9-1.6,10.5c0.3,2.1,0.8,4.1,1.4,5.6
			c-0.6,0.3-2.7,0.4-4-3.1C93.8,108.3,93.3,104.7,93.6,98.9z"/>
	</g>
	<g>
		<path class="st0" d="M122.1,109.6c-0.1,0.8,0.5,3.1,0.2,3.5c0.1,0,0.1,0,0.2-0.1c0.7-0.8,1.5-4.8,1.9-6.1c0.5-1.7-1.5-1.4-2.1-2.1
			C122.3,105.9,122.3,108.7,122.1,109.6z"/>
	</g>
	<g>
		<path class="st0" d="M128,145.8c-1.7,5.4-6.9,8-11.9,9.9c-3-4.1-6-8.3-5.3-13.4c0.1-0.4,0.2-0.8,0.3-1.3c-1.9,2.3-4.5,6.1-7.5,6.8
			c-1.2,0.3-2.2,0.4-3.2,0.5l0,0l0,0c-0.1,1.3,0,2.5,0.3,3.6c0.7,2.7,2.6,4.8,5,7.3c1.2,3.7,3,8-3.1,6.1c-13-3.9-5.4,6.7-9.6,5.5
			c-10.8-3.2-2.5,4.4-1.7,8.7s-23.3-0.9-20.6,14.6c0.7,4,8.7,0.2,9.2,3.2c1.5,8.3,11.8,0.2,14.7-2.2c6.1-4.9,1.3,9,0.6,11.2
			c-0.7,2.2-17.4,6.8-11.6,12.4c0.5,0.4,1.1,0.9,1.8,1.4c7,4.2-1.6,14.9,6.3,17.3c7.9,2.3,6.5-11.3,14.7-11.1
			c12.1,0.4-1.4-14.6-0.7-16.9c0.7-2.2,4.2-16.5,6.6-9c1.2,3.6,5.4,16.1,11.1,9.9c2-2.2,6.6,5.3,9.4,2.4
			c10.7-11.5-12.3-20.3-9.3-23.5s14.1-5,3.3-8.3c-2.1-0.6-0.2-2.1,0.8-3.8c1-1.8,0.9-4-5.8-6c-6.2-1.8-2.4-4.4,0.7-6.8
			c4.8-1.2,8.2-2.1,10.4-6.4c-0.8-0.6-1.6-1.2-2.4-2.1C128.5,153.4,128.3,148.7,128,145.8z M118.2,164.9c-3.8,2-0.3,5.5-3.6,6.6
			c-1.8,1.7-4,3.4-0.6,4.4c7.3,2.2,0.3,5.5,2.6,6.2c6.1,1.8-0.3,3.2-2.1,5.4c-0.3,0.4-0.1,0.9,0.3,1.5c2,2.6,9.6,7.2,4.4,13.4
			c-1.7,2-2.8-4.1-4.4-3.4c-2.2,0.8-3.6-3.1-5.1-5.1c-1.4-1.8-2.9-2-5.1,4.9c-0.2,0.7-0.5,1.4-0.7,2.3c0,0,3.3,23-7.3,19.8
			c-6.4-1.9-3.5-9.1-0.1-14.4c2.2-3.5,4.6-6.2,4.6-6.2c5.4-18.1-5.3-3.9-8.1-7.7c-1-1.4-5.3,3-5.6,0.5c-1.2-9.9,12.4-7.1,12.1-9.9
			c-0.3-2.8-4.9-7.5,1.2-5.7c2.3,0.7-1.7-5.9,5.6-3.8c3.5,1,2.6-1.6,1.9-4c-2.2-2.6,2.7-3.7,0.6-7.5c-7.6-13-3.2-15.5-2.1-15.4
			c0.1,5,5,14.5,7.8,14.3c2.2,1.6,11.1-3.7,14-7.8C129.4,153.7,131.7,158.1,118.2,164.9z"/>
	</g>
	<g>
		<path class="st0" d="M120.8,109.8c-0.6-0.7-1.8-3.1-2.2-4.1c-0.2,0.9-2.2,1.6-1,2.8c0.9,0.9,3.3,4.2,4.3,4.6c0.1,0,0.2,0,0.3-0.1
			C121.7,113,121.3,110.5,120.8,109.8z"/>
	</g>
	<g>
		<path class="st0" d="M133.9,116.7L133.9,116.7C133.8,116.7,133.8,116.6,133.9,116.7c-0.8-0.3,1.5-2.2,1.9-3
			c0.3-0.8,1.5-2.7,2.2-3.7c-0.3,0-0.6-0.1-0.9-0.2c-0.7-0.2-1.3-0.3-1.6,0.7c-0.1,0.3-0.2,0.7-0.4,1.2c-0.6,1.6-1.6,4-1.4,4.8
			C133.7,116.6,133.8,116.7,133.9,116.7C133.8,116.7,133.8,116.7,133.9,116.7c0.9,0.2,3.5-0.7,5.2-1.2c0.4-0.1,0.7-0.2,1-0.3
			c0.9-0.2,1-0.8,0.8-1.4c-0.1-0.3-0.1-0.7-0.2-1c-1,0.7-3.1,1.7-3.9,2C136.1,115,134.5,116.6,133.9,116.7z"/>
	</g>
	<g>
		<path class="st0" d="M139,109.3c0.1-0.3,0.1-0.5,0.2-0.8c-0.3,0.4-0.6,0.8-0.9,1.1c-0.1,0.1-0.2,0.2-0.3,0.4
			C138.4,110,138.8,109.9,139,109.3z"/>
	</g>
	<g>
		<path class="st0" d="M140.7,112.8c0.1-0.1,0.2-0.2,0.3-0.2c0.3-0.3,0.7-0.5,1.2-0.8c-0.3,0-0.5,0.1-0.8,0.1
			C140.8,112,140.7,112.4,140.7,112.8z"/>
	</g>
</g>
</svg>
