<?xml version="1.0" encoding="utf-8"?>
<!-- Generator: Adobe Illustrator 28.1.0, SVG Export Plug-In . SVG Version: 6.00 Build 0)  -->
<svg version="1.1" id="Layer_1" xmlns="http://www.w3.org/2000/svg" xmlns:xlink="http://www.w3.org/1999/xlink" x="0px" y="0px"
	 viewBox="0 0 250 250" style="enable-background:new 0 0 250 250;" xml:space="preserve">
<style type="text/css">
	.st0{fill:#ECFFEF;}
</style>
<g>
	<g>
		<path class="st0" d="M125.2,125.1c-0.1-0.1,0,0.1,0.2,0.4C125.2,125.1,125.1,124.9,125.2,125.1z"/>
	</g>
	<g>
		<path class="st0" d="M217.7,122.3c-1.6-0.2-2.9-0.6-3.7-1.3c0.7-0.4,2.1-1.2,3.7-2.2c3.2-2.1,7.3-4.9,7.8-6.3
			c0.6-1.7-3.1-0.1-7.8,2.3c-6.3,3.3-14.2,8.1-15.2,8.6c-3.9,1.4-6.1,1.5-6.4-0.5c-2.2-4.5,10.9-12.2,14.3-14.2
			c3.5-2,5.8-3.6,7.2-4.6c2.4-1.8,1.9-2.4,0-2.1c-3.6,0.6-12.4,4.2-18.4,8.2c-3.6,2.4-7.7,5.4-12,7.9c-3.7,2.1-7.5,3.9-11.5,4.5
			c-2.5,0.4-5.1,0.4-7.6-0.2c-0.4-0.1-0.7-0.2-1.1-0.3c-0.1-1.2,0.3-2.5,1.1-3.7c1.6-2.6,4.7-5.1,7.6-7.4c3.8-3,7.1-5.6,5.8-7.4
			c-0.7-1-4.4-0.1-5.4,0c-0.1,0-0.2,0-0.4,0.1c-1.5,0.4-4.4,1.8-7.6,3.5c-3.8,2-7.9,4.4-10,5.5c-0.9,0.5-1.4,0.8-1.4,0.8
			c0.5-0.5,0.9-1.1,1.4-1.7c2.1-3.1,2.8-7.2,0.2-6.1c0.9-0.8,0.6-1.5-0.2-2c-1.5-0.9-4.8-1.1-7.4-0.5c-0.1,0,3.4-1.9,7.4-4.2
			c3.8-2.2,7.9-4.7,10-6.4c0.5-0.4,0.8-0.7,1-0.9c0.7-0.8,3.3-3.5,2.8-4.6s-1.9-1.1-3.8-0.6c-2.7,0.7-6.4,2.3-10,3.5
			c-3.7,1.2-7.3,1.8-9.5,0.1c1.3-5.4,5-9.4,9.5-12.6c3.1-2.2,6.6-4,10-5.6c2.5-1.2,4.9-2.3,7.1-3.3l0.5-0.2c3.9-2,8.2-4.8,11.5-7.4
			c5.7-4.4,8.1-7.9,0-3.9c-1.4,0.7-3,1.5-5,2.6c-1.2,0.7-3.7,2-6.5,3.3c-2.5,1.1-5.2,2.2-7.6,2.7c-2.5,0.5-4.5,0.4-5.4-1
			c-1.5-1.3-0.4-3.1,2.8-5.7c0.3-0.2,1.2-0.7,2.6-1.4c2-1.1,4.7-2.6,7.6-4.2c6.5-3.8,13.3-8.1,10.9-8.5c-1.6-0.3-7.5,2.5-10.9,4.3
			c-1,0.5-1.8,0.9-2.2,1.2c-0.3-1.6,0.7-4,2.2-6.7c3.1-5.8,8.1-12.8,5.4-15.7c-1.8-0.4-3.7,1.1-5.4,3.5c-2.6,3.5-5.2,8.8-7.6,11.9
			c-0.9,1.2-1.9,2-2.8,2.3c0-2.4-0.4-12.5-1.8-14.2c-2.6-3.2-1.8,23.4-1.8,25.4c-0.7,4.1-1.7,6-3.5,5.3h-0.1
			c-4.9-0.6-5.1-15.5-5.2-19.4c-0.3-23.9-5.1-2.9-4.3,10.5c0.7,10.6,3.4,25.5-5.4,33.8c-6.7-3.1-4.4-22.2-9-21.7
			c-1.2,0.1-2.2,3.7-2.6,4.7c-1.2,3.2-0.8,21.8-0.9,21.7c-1.1-3.9-5.3-8.7-5.8-5.7c-0.4-3-4.8,1.9-5.9,5.8c0,0.2,0.4-18.5-0.8-21.7
			c-0.4-1-1.4-4.6-2.6-4.7c-4.6-0.5-2.3,18.6-9.1,21.7c-0.1-0.1-0.3-0.3-0.4-0.4c-8.4-8.4-5.7-23-5-33.4C102,40,97.2,19,96.8,42.9
			c-0.1,4-0.3,19.1-5.3,19.4c-1.6,0.6-2.5-0.7-3.2-3.7c-0.1-0.5-0.2-1-0.3-1.6c0-2,0.9-28.6-1.7-25.4c-1.4,1.6-1.8,11.7-1.8,14.1
			c-2-0.7-4.1-4.1-6.2-7.8c-1.3-2.3-2.7-4.7-4.1-6.6c-1.7-2.3-3.5-3.9-5.3-3.5c-2.7,2.9,2.2,10,5.3,15.8c1.4,2.7,2.5,5.1,2.2,6.7
			c-0.4-0.3-1.2-0.7-2.2-1.2c-3.5-1.8-9.3-4.6-11-4.3c-2.4,0.4,4.5,4.7,11,8.5c1.4,0.8,2.8,1.6,4.1,2.3c3.1,1.7,5.5,3,6,3.3
			c3.2,2.6,4.3,4.4,2.8,5.7c-1.3,2-5,1.4-8.9,0c-1.4-0.5-2.8-1.1-4.1-1.7c-2.8-1.3-5.3-2.7-6.6-3.4c-2-1.1-3.6-1.9-4.9-2.6
			c-8.2-4-5.7-0.5,0,3.9c3.3,2.5,7.5,5.4,11.5,7.4l0.4,0.2c1.2,0.6,2.4,1.2,3.7,1.8c3.2,1.5,6.8,3.1,10.1,5.1
			c6,3.5,11.2,8,12.8,14.7c-2.9,2.1-8,0.5-12.8-1.3c-4.5-1.7-8.6-3.4-10.1-2.3c-0.2,0.1-0.3,0.3-0.4,0.6c-0.2,0.4,0,1,0.4,1.7
			c0.7,1.2,1.9,2.5,2.3,3c0.9,1.1,4.2,3.2,7.7,5.4c5.1,3.1,10.7,6.2,10.6,6.2c-4-1-10.4,0.7-7.7,2.2c-2.6-1.5-0.8,4.8,2,7.7
			c0,0-2.1-1.2-4.9-2.9c-3.1-1.8-7-4.1-10.1-5.6c-1.8-0.9-3.3-1.5-4.1-1.7h-0.1c-1.1-0.2-4.7-1.1-5.4-0.1c-1.3,1.7,1.8,4.3,5.5,7.3
			c1.4,1.1,2.8,2.3,4.1,3.5c2.7,2.6,4.8,5.3,4.6,7.9c-1.5,0.5-3.1,0.7-4.6,0.7c-1.4,0-2.7-0.1-4.1-0.3c-4-0.7-7.8-2.6-11.5-4.8
			c-4.2-2.6-8.2-5.6-11.7-8c-6.2-4.2-15.4-8.1-18.7-8.5c-1.5-0.2-1.8,0.3,0,1.8c1.3,1.1,3.7,2.8,7.5,5.1c3.4,2.1,16.3,10,14.1,14.4
			c-0.4,1.9-2.5,1.8-6.4,0.4c-1-0.6-9-5.6-15.2-9c-4.5-2.4-8.1-4-7.5-2.4c0.5,1.3,4.4,4.2,7.5,6.3c1.6,1.1,3.1,2,3.8,2.4
			c-0.8,0.7-2.1,1-3.8,1.2c-6.6,0.8-18.2-1.1-19.5,3.3c1.3,4.4,13,2.7,19.5,3.6c1.6,0.2,2.9,0.6,3.7,1.3c-0.7,0.4-2.1,1.3-3.7,2.3
			c-3.2,2.1-7.2,4.9-7.7,6.3c-0.6,1.6,3.1,0.1,7.7-2.3c6.3-3.3,14.2-8.2,15.2-8.7c3.9-1.4,6-1.5,6.4,0.4
			c2.2,4.5-10.8,12.3-14.3,14.3c-3.6,2.1-5.9,3.7-7.3,4.8c-2.2,1.8-1.8,2.3,0,2c3.5-0.6,12.4-4.2,18.5-8.3c3.6-2.4,7.6-5.4,11.9-7.9
			c3.7-2.1,7.5-3.9,11.5-4.6c1.3-0.2,2.7-0.3,4.1-0.3c1.5,0,3,0.3,4.5,0.8c0.2,2.6-1.8,5.3-4.5,7.7c-1.3,1.2-2.7,2.4-4.1,3.5
			c-3.7,3-7,5.6-5.7,7.4c0.7,1,4.4,0.1,5.4-0.1c0.1,0,0.2,0,0.3-0.1c0.9-0.2,2.4-0.9,4.1-1.7c3.1-1.5,7-3.7,10.1-5.5
			c2.8-1.6,4.8-2.8,4.8-2.7c-2.9,3-4.5,9.3-1.8,7.7c-2.3,1.5,3.7,3.3,7.7,2.3c0.1,0-5.5,3-10.6,6.1c-3.6,2.2-6.9,4.3-7.8,5.4
			c-0.4,0.5-1.6,1.7-2.3,2.8c-0.4,0.7-0.7,1.4-0.5,1.8c0.1,0.3,0.3,0.5,0.5,0.6c1.6,1,5.7-0.7,10.1-2.3c4.7-1.7,9.8-3.3,12.7-1.2
			c-1.6,6.6-6.8,11.1-12.7,14.5c-3.3,1.9-6.8,3.5-10.1,5c-1.4,0.6-2.7,1.2-3.9,1.8l-0.2,0.1c-3.9,1.9-8.2,4.7-11.5,7.2
			c-6,4.6-8.7,8.3,0,4c1.3-0.6,2.8-1.4,4.6-2.4c1.3-0.7,3.9-2.1,6.8-3.4c1.3-0.6,2.7-1.2,4.1-1.6c3.8-1.3,7.4-1.8,8.6,0.1
			c1.5,1.3,0.3,3.1-2.9,5.7c-0.5,0.3-2.8,1.5-5.8,3.1c-1.3,0.7-2.7,1.5-4.1,2.3c-4.9,2.8-10.1,5.9-11.5,7.6c-0.5,0.5-0.5,0.9,0,1
			h0.1c1.7,0.3,8-2.7,11.4-4.4c0.8-0.4,1.4-0.8,1.8-1c0.3,1.4-0.6,3.6-1.8,5.9c-3.1,5.9-8.7,13.5-5.9,16.5c2,0.5,4-1.4,5.9-4.1
			c1.4-2,2.7-4.3,4.1-6.6c2-3.3,4-6.3,5.8-7c0,2.4,0.3,12.5,1.7,14.2c2.6,3.2,1.9-23.4,1.9-25.4c0.2-1.1,0.4-2,0.6-2.7
			c0.7-2.2,1.6-3.1,2.9-2.6c5,0.3,5.2,15.5,5.2,19.5c0.2,23.9,5.1,2.9,4.3-10.4c-0.6-10.5-3.3-25.2,5.3-33.4
			c0.1-0.1,0.2-0.2,0.3-0.3c6.7,3.1,4.3,22.2,8.9,21.7c1.2-0.1,2.3-3.7,2.7-4.7c1.2-3.2,0.9-21.8,1-21.7c1.1,4,5.3,8.7,5.8,5.8
			c0.4,3,4.8-1.9,6-5.8c0-0.2-0.5,18.5,0.7,21.7c0.4,1,1.4,4.6,2.6,4.8c4.6,0.5,2.4-18.6,9.2-21.6c8.8,8.3,6,23.2,5.2,33.8
			c-1,13.4,3.8,34.4,4.2,10.5c0.1-4,0.5-19.1,5.4-19.4c0.1,0,0.1,0,0.2,0c1.7-0.5,2.7,1.4,3.4,5.4c0,2-1.1,28.5,1.6,25.4
			c1.4-1.6,1.8-11.7,1.9-14.1c1,0.4,2.1,1.5,3.2,2.9c2.4,3.4,5,8.8,7.6,12.1c1.6,2,3.2,3.2,4.8,2.8c2.6-2.7-1.8-9.3-4.8-15
			c-1.7-3-2.9-5.8-2.6-7.5c0.5,0.3,1.4,0.8,2.6,1.4c3.5,1.8,9,4.4,10.6,4.2c2.3-0.4-4.2-4.6-10.6-8.3c-2.8-1.6-5.6-3.2-7.6-4.3
			c-1.5-0.8-2.6-1.4-2.9-1.6c-3.2-2.7-4.3-4.5-2.8-5.7c1-1.4,3.1-1.5,5.7-0.9c2.4,0.5,5.1,1.7,7.6,2.8c2.7,1.3,5,2.6,6.2,3.3
			c2.1,1.2,3.9,2.1,5.3,2.8c7.6,3.7,5.4,0.5,0-3.8c-3.2-2.6-7.5-5.5-11.5-7.6c-0.2-0.1-0.5-0.2-0.7-0.3c-2.1-1.1-4.5-2.1-6.9-3.3
			c-3.4-1.6-6.9-3.4-10-5.6c-4.6-3.2-8.4-7.3-9.6-12.8c2.3-1.6,5.9-1,9.6,0.2c3.6,1.2,7.3,2.9,10,3.5c1.9,0.5,3.2,0.4,3.7-0.7
			c0.5-1.1-2.1-3.8-2.8-4.7c-0.2-0.2-0.5-0.5-1-0.9c-2-1.6-6.2-4.2-10-6.5c-4-2.3-7.4-4.3-7.4-4.3c2.4,0.6,5.7,0.3,7.4-0.5
			c1.1-0.5,1.4-1.1,0.4-1.7c2.1,1.2,1.4-2.5-0.4-5.5c-0.5-0.8-1-1.6-1.6-2.2c0,0,0.6,0.3,1.6,1c2.2,1.3,6.2,3.8,10,5.8
			c3.3,1.8,6.3,3.3,7.5,3.5h0.1c1.1,0.2,4.6,1.1,5.3,0.1c1.3-1.7-1.8-4.3-5.3-7.2c-2.8-2.3-5.9-5-7.6-7.6c-0.8-1.3-1.3-2.7-1.1-4
			c0.4-0.1,0.8-0.2,1.1-0.3c2.5-0.6,5.1-0.5,7.6,0c4,0.8,7.8,2.6,11.5,4.9c4.2,2.6,8.1,5.6,11.6,8c6.3,4.3,15.6,8.3,18.8,8.6
			c1.3,0.1,1.6-0.4,0-1.8c-1.3-1.1-3.7-2.8-7.6-5.2c-3.4-2.1-16.3-10.1-14-14.5c0.4-1.9,2.5-1.8,6.4-0.3c1,0.6,9,5.7,15.2,9.1
			c4.5,2.4,8.1,4,7.5,2.4c-0.5-1.3-4.3-4.2-7.5-6.3c-1.6-1.1-3.1-2-3.8-2.4c0.8-0.7,2.1-1,3.8-1.2c6.6-0.7,18.2,1.2,19.5-3.2
			C235.9,121.5,224.2,123.2,217.7,122.3z M163.3,45.1c-0.2-0.8-0.4-6.3,0.6-4.2s-0.9,10.5,3.9,5.2c0.2-0.2,0.3-0.4,0.5-0.5
			c2.9-3.5,4.8-8.7,7.6-12.5c1-1.3,2.1-2.4,3.3-3.2c0.4-0.3-1.5,3.7-1.2,3.5c0.1,0.3,2.5-3.3,2.4-2.8c-0.1,3.6-2.4,7.1-4.6,10.7
			c-1.5,2.5-3.1,4.9-3.8,7.3c-1.6,4.9,1.2,3.2,3.8,1.9c1-0.5,2-1,2.6-1.1c1.9-0.2-1.1,1.6-2.6,2.3c-0.3,0.2-0.6,0.3-0.7,0.3
			c-2.4,0.7-4.7,2.1-6.9,3.7c-1.8,1.3-3.6,2.6-5.2,3.6C163.1,55.1,164.4,49.5,163.3,45.1z M151.4,73.9c0.7-4.8-0.9-9.8-1.3-14.4
			c-0.1-1.4,0-8.1,2.9-4.7c3.8,4.5-0.4,7.8,5.3,9.8c0.4,0.2,0.9,0.3,1.5,0.4c4.2,4.4,5.5,1.9,8.5,1c1-0.3,2.1-0.5,3.6-0.2
			c4.3,0.8-1.4,4.3-2.7,4.8c-0.3,0.2-0.6,0.3-1,0.4c-3.2,1.3-6.8,2.4-10,4.1c-0.8,0.4-1.5,0.9-2.2,1.5c-2.5,2-3.4,4-6.3,5.6
			C149.7,78.9,151,77.1,151.4,73.9z M78.3,53.4c-1.1-0.6-2.3-1.1-3.4-1.5c-0.1,0-0.4-0.1-0.7-0.3c-1.5-0.7-4.6-2.5-2.7-2.3
			c0.7,0.1,1.7,0.6,2.7,1.1c1.7,0.9,3.6,2,4.1,1c0.2-0.3,0.2-0.9,0-1.8c-0.1-0.3-0.2-0.7-0.3-1.1c-0.8-2.4-2.3-4.8-3.8-7.2
			c-2.2-3.6-4.5-7.2-4.6-10.7c0-0.5,2.4,3.1,2.5,2.8c0.3,0.1-1.6-3.8-1.2-3.5c1.3,0.8,2.4,1.9,3.3,3.2c1.5,2.1,2.8,4.6,4.1,7
			c1.2,2.2,2.4,4.4,3.9,6.1c4.8,5.3,2.9-3.1,3.9-5.2c1-2.1,0.8,3.4,0.6,4.2c-1.1,4.4,0.2,9.9,0.3,14.1
			C84.4,57.6,81.4,55.1,78.3,53.4z M93.9,76.6c-1.6-1.3-3.6-2.2-5.5-3c-2.6-1.1-5.3-1.9-7.6-3c-0.5-0.2-1.5-0.8-2.4-1.5
			c-1.6-1.2-3-2.8-0.2-3.3c0.1,0,0.1,0,0.2,0c5.2-0.8,6.2,3.6,10.1,1c0.6-0.4,1.2-0.9,1.9-1.7C98.2,63,93,59.6,97,54.8
			c2.8-3.4,3,3.4,2.9,4.7c-0.4,4.6-2,9.7-1.3,14.4c0.5,3.2,1.7,5,1.7,8.3C97.4,80.5,96.4,78.6,93.9,76.6z M36.7,131.3
			c-0.6,0.6-5.3,3.4-3.9,1.6c1.4-1.9,9.5-4.4,2.6-6c-1-0.2-2-0.3-3-0.4c-5.6-0.3-12.3,1-16.8-1.4c-0.4-0.2,3.9-0.5,3.6-0.8
			c0.3-0.2-4.1-0.5-3.6-0.7c4.5-2.4,11.1-1,16.7-1.2c1.1-0.1,2.1-0.2,3.1-0.4c7-1.5-1.2-4.1-2.5-6s3.3,1,3.9,1.6
			c3.2,3.2,8.6,4.9,12.3,6.9C45.4,126.5,39.9,128.2,36.7,131.3z M74.2,125.3c-2.2,0.9-4.2,1-6.7,2c-1.7,0.7-3.3,1.7-4.8,2.8
			c-2.5,1.8-4.7,3.9-7.1,5.5c-1.1,0.8-7,4-5.5-0.2c2.2-5.9,7.7-3.2,5.5-10.9c2.3-7.7-3.3-5-5.4-10.9c-1.5-4.2,4.4-0.9,5.5-0.1
			c2.3,1.6,4.5,3.8,6.9,5.6c1.5,1.2,3.1,2.2,4.8,2.9c2.5,1,4.4,1.1,6.6,2c0.4,0.2,0.9,0.4,1.4,0.7C75.1,124.9,74.7,125.2,74.2,125.3
			z M86.4,204.4c0.2,0.8,0.4,6.3-0.6,4.2s1-10.5-3.9-5.2c-1.3,1.5-2.5,3.3-3.6,5.3c-1.3,2.4-2.6,4.9-4.1,7.1
			c-1.1,1.6-2.3,2.9-3.8,3.9c-0.4,0.3,1.5-3.7,1.2-3.5c0-0.4-2.5,3.3-2.4,2.8c0.1-3.8,2.7-7.6,5.1-11.4c1.4-2.2,2.7-4.4,3.4-6.6
			c1.5-4.6-1-3.4-3.4-2.1c-1.1,0.6-2.3,1.2-3,1.3c-2.1,0.2,1.7-1.9,3-2.5c0.1-0.1,0.2-0.1,0.3-0.1c1.3-0.3,2.5-0.9,3.8-1.6
			c3-1.7,5.8-4.1,8.4-5.6C86.6,194.5,85.3,200.1,86.4,204.4z M98.3,175.7c-0.7,4.8,0.9,9.8,1.3,14.4c0.1,1.3-0.1,8.1-2.9,4.7
			c-4-4.8,1.1-8.3-6.7-10.3c-0.6-0.6-1.1-1.1-1.6-1.5c-4-3-4.9,1.5-10.1,0.8c-0.1,0-0.3,0-0.5-0.1c-2.9-0.5-1.3-2.2,0.5-3.5
			c0.9-0.6,1.8-1.1,2.2-1.3c2.4-1.1,5.2-1.9,7.8-3c1.9-0.8,3.8-1.7,5.4-2.9c2.5-2,3.5-4,6.3-5.6C100.1,170.7,98.8,172.5,98.3,175.7z
			 M168.2,194.6c2.1,1.5,4.3,2.8,6.5,3.4c0.2,0,0.6,0.2,1,0.5c1.6,0.8,4.1,2.3,2.3,2.2c-0.6,0-1.4-0.5-2.3-0.9
			c-2.7-1.4-5.8-3.4-4.2,1.7c0.8,2.6,2.5,5.3,4.2,8c2.1,3.4,4.1,6.7,4.1,10.1c0,0.5-2.4-3.1-2.5-2.8c-0.3-0.1,1.6,3.8,1.2,3.5
			c-1.1-0.7-2-1.6-2.8-2.6c-2.9-3.6-4.8-9-7.6-12.7c-0.3-0.4-0.6-0.7-0.9-1c-4.8-5.3-2.9,3.1-3.9,5.2c-1,2.1-0.8-3.4-0.5-4.2
			c1.2-4.4-0.1-9.9-0.2-14.1C164.4,191.8,166.3,193.2,168.2,194.6z M155.9,173.3c0.8,0.6,1.6,1.1,2.4,1.6c3.1,1.7,6.8,2.8,10,4.2
			c0.2,0.1,0.5,0.2,0.8,0.3c1.2,0.6,7,4.1,2.6,4.8c-1.4,0.2-2.5,0.1-3.4-0.1c-3.3-0.9-4.5-3.7-8.8,0.8c-0.4,0.1-0.8,0.2-1.1,0.3
			c-6.2,1.9-1.8,5.3-5.6,9.8c-2.9,3.4-3-3.4-2.8-4.7c0.4-4.6,2.1-9.6,1.4-14.4c-0.4-3.2-1.7-5-1.7-8.3
			C152.4,169.3,153.3,171.3,155.9,173.3z M132.2,95c1.8-0.9,0.6-17.3,1.3-20.3c2.2-9.2,3.4,0.3,3.4,4.3c0,2.9,1.2,7.8,2.8,10
			c1,1.4,2.1,2.3,3.8,3.1c0.1,0.1,0.2,0.2,0.3,0.4c0.2,0,0.3,0,0.4,0c1.6,1.2,2.9,1.6,4.6,1.8c2.5,0.3,6.9-0.9,9.5-2.2
			c0.2-0.1,0.4-0.2,0.6-0.3c3.4-1.9,12.3-5.7,5.4,0.8c-0.8,0.8-3.2,2.2-6,3.8c-5,2.8-11.1,6.2-11,7.5c0.1,2.1,5-0.6,0.7,1.8
			c-6.8,3.9-13.3,7.1-19,12.3c1.7-7.5,1.2-14.7,1.2-22.6C130.2,90.4,130.3,95.9,132.2,95z M88.4,94.4c-1.3-0.8-2.3-1.4-2.8-1.9
			c-5.4-5.1-1-3.9,2.8-2.1c1,0.5,1.9,0.9,2.6,1.3c2.5,1.4,7.3,2.9,10.1,2.6c1.7-0.2,3-0.6,4.6-1.8c0.1-0.1,0.3-0.1,0.5,0l0,0
			c0-0.2,0.1-0.3,0.2-0.4c1.8-0.8,2.8-1.7,3.8-3.1c1.6-2.2,2.8-7.1,2.8-10c0-3.9,1.2-13.4,3.4-4.3c0.7,3-0.5,19.5,1.3,20.3
			c1.9,0.9,1.9-4.6,1.9,0.3c0,7.9-0.5,15,1.2,22.6c-4.5-4.1-9.4-7-14.7-9.9c-1.4-0.8-2.8-1.6-4.3-2.4c-4.3-2.5,0.6,0.3,0.7-1.8
			C102.7,102.2,93.4,97.4,88.4,94.4z M88.4,136.4c-3.6,2-7.8,4.5-10.1,5.6c-0.5,0.2-0.9,0.4-1.2,0.5c-1.3,0.4-2.2,0.6-2.9,0.7
			c-2.1,0.2-1.5-0.9,0-2.2c1.1-1,2.8-2.2,4.1-3c0.3-0.2,0.6-0.3,0.8-0.5c2.5-1.4,6.2-4.9,7.3-7.4c0.7-1.5,1-2.9,0.8-4.9
			c0-0.1,0.1-0.3,0.2-0.4c-0.1-0.1-0.2-0.3-0.2-0.4c0.2-1.9,0-3.3-0.7-4.9c-1.1-2.5-4.7-6-7.2-7.5c-0.3-0.2-0.6-0.4-1-0.6
			c-1.4-0.9-3-2.1-4.1-3.1c-1.3-1.2-1.8-2.2,0-2.1c0.7,0.1,1.7,0.3,3.1,0.7c0.3,0.1,0.6,0.2,1,0.4c2.2,1.1,6.4,3.7,10.1,5.8
			c3.4,1.9,6.4,3.5,7.2,3c1.8-1.1-3-4,1.2-1.5c3.2,1.9,6.3,3.8,9.4,5.5c3.4,1.9,6.8,3.6,10.7,4.8c-3.8,1.2-7.3,2.8-10.7,4.7
			c-3.1,1.7-6.2,3.6-9.5,5.5c-4.3,2.4,0.5-0.4-1.2-1.5C94.7,133.1,91.8,134.5,88.4,136.4z M117.7,154.7c-1.8,0.9-0.7,17.3-1.4,20.3
			c-2.3,9.2-3.4-0.4-3.4-4.3c0-2.9-1.1-7.8-2.8-10c-1-1.4-2-2.3-3.8-3.1c-0.1,0-0.1-0.1-0.2-0.2c0-0.1-0.1-0.1-0.1-0.2
			c-0.2,0-0.3,0-0.4,0c-1.6-1.2-2.9-1.6-4.6-1.8c-2.7-0.3-7.6,1.1-10.1,2.5c-0.7,0.4-1.6,0.9-2.6,1.3c-3.8,1.7-8.3,3-2.8-2.1
			c0.5-0.4,1.5-1.1,2.8-1.9c5-3,14.3-7.7,14.2-9.3c-0.1-2.1-5,0.6-0.7-1.8c1.4-0.8,2.8-1.6,4.2-2.4c5.3-2.9,10.3-5.8,14.8-9.8
			c-1.7,7.5-1.3,14.7-1.3,22.6C119.6,159.3,119.6,153.8,117.7,154.7z M158.3,153.7c2.8,1.6,5.1,3,6,3.8c6.8,6.5-2,2.8-5.4,0.8
			c-0.2-0.1-0.4-0.2-0.5-0.3c-2.6-1.3-7-2.6-9.5-2.3c-1.7,0.2-3,0.6-4.6,1.8c-0.1,0.1-0.3,0.1-0.5,0c0,0.2-0.1,0.3-0.2,0.3
			c-1.8,0.8-2.8,1.7-3.8,3.1c-1.6,2.2-2.8,7.1-2.9,10c0,3.9-1.3,13.4-3.4,4.3c-0.7-3,0.6-19.5-1.2-20.4c-1.9-0.9-2,4.6-1.9-0.3
			c0.1-7.9,0.5-15-1.1-22.6c5.7,5.2,12.1,8.4,18.9,12.4c4.3,2.5-0.6-0.3-0.7,1.8C147.2,147.3,153.3,150.8,158.3,153.7z M158.3,144.3
			c-0.6-0.3-1.5-0.5-2.8-0.8c-2.2-0.5-8.6-0.7-12.6-3.1c-8.2-4.9-15.9-13-17.5-14.9c0.9,2.3,4.1,13,4.1,22.5c0,4.7-3,10.3-3.8,12.4
			c-0.5,1.5-0.7,2-0.9,2.6c-0.2-0.6-0.3-1.1-0.8-2.6c-0.7-2.1-3.7-7.7-3.6-12.5c0.2-9.5,3.3-20.3,4.2-22.6
			c-1.5,1.9-9.3,10-17.5,14.8c-0.3,0.2-0.6,0.4-1,0.5c-4,1.9-9.6,2-11.7,2.4c-1.6,0.3-2.5,0.5-3,0.8c0.6-0.3,1.2-1,2.1-2.1
			c1.5-1.7,4.9-7.1,9-9.4c1.2-0.6,2.4-1.3,3.6-1.8c7.6-3.5,15.9-5.5,18-5.8c-2.1-0.3-10.5-2.3-18-5.9c-1.2-0.6-2.4-1.2-3.5-1.8
			c-4.1-2.3-7.4-7.8-8.9-9.5c-1-1.1-1.7-1.8-2.2-2.1c0.6,0.3,1.5,0.5,2.9,0.8c2,0.4,7.7,0.6,11.7,2.5c0.3,0.1,0.6,0.3,0.9,0.5
			c8.2,4.8,16,12.9,17.5,14.8c-0.9-2.3-4.1-13-4.2-22.5c0-4.7,3-10.3,3.7-12.4c0.5-1.5,0.7-2,0.9-2.6c0.2,0.6,0.3,1.1,0.8,2.6
			c0.7,2.1,3.7,7.7,3.7,12.4c-0.1,9.5-3.2,20.3-4.1,22.6c1.5-1.9,9.2-10,17.4-14.8c4.1-2.4,10.4-2.6,12.6-3c1.3-0.3,2.2-0.4,2.8-0.6
			c-0.5,0.5-0.9,1.2-1.8,2.1c-1.5,1.7-4.9,7-9,9.3c-8.3,4.6-19.2,7.2-21.7,7.6c2.4,0.4,13.3,3.1,21.5,7.8c4.1,2.4,7.4,7.8,8.8,9.5
			C157,143.3,157.7,143.9,158.3,144.3z M163.6,119.9c-0.7,1.5-1,2.9-0.8,4.9c0,0.1-0.1,0.3-0.2,0.4c0.1,0.1,0.2,0.3,0.2,0.4
			c-0.2,1.9,0,3.3,0.7,4.9c0.8,1.8,2.8,4.1,4.8,5.8c0.8,0.7,1.7,1.3,2.4,1.8c1.5,0.9,3.8,2.6,5.2,3.9c1.1,1.1,1.5,2,0,1.9
			c-0.7,0-1.7-0.3-3.2-0.7c-0.8-0.2-2.4-1.1-4.3-2.3c-3.1-1.8-7.1-4.3-10-5.8c-1.9-1-3.4-1.5-3.8-1.2c-1.8,1.1,3,4-1.2,1.5
			c-6.8-4-12.7-8-20-10.5c7.4-2.3,13.4-6.2,20.2-10c4.3-2.4-0.5,0.4,1.2,1.5c0.5,0.3,1.8-0.2,3.7-1c2.9-1.4,6.8-3.7,10-5.5
			c2.1-1.2,3.9-2.1,4.7-2.4c1.2-0.4,2.2-0.6,2.8-0.6c2.2-0.2,1.5,0.9,0,2.3c-1.4,1.2-3.5,2.6-4.9,3.4c-0.8,0.5-1.8,1.1-2.7,1.9
			C166.3,116.1,164.4,118.2,163.6,119.9z M194.3,125.5c-2.3,7.7,3.3,5,5.3,11c1.5,4.2-4.4,0.8-5.5,0.1c-2.3-1.6-4.5-3.7-6.8-5.6
			c-1.5-1.2-3.1-2.2-4.9-2.9c-2.5-1-4.4-1.1-6.6-2c-0.5-0.2-0.9-0.4-1.4-0.7c0.5-0.3,0.9-0.5,1.4-0.7c2.2-0.9,4.2-1,6.7-1.9
			c1.7-0.7,3.3-1.6,4.8-2.7c2.5-1.8,4.7-3.9,7.1-5.5c1.1-0.8,7.1-3.9,5.5,0.2C197.7,120.5,192.2,117.7,194.3,125.5z M230.8,125.9
			c-0.3,0.2,4.1,0.5,3.6,0.8c-4.5,2.3-11.1,0.9-16.7,1.1c-1.1,0-2.1,0.1-3.1,0.3c-7,1.4,1.2,4.1,2.5,6s-3.3-1-3.9-1.6
			c-3.2-3.2-8.6-4.9-12.3-6.9c3.7-2,9.2-3.6,12.4-6.8c0.6-0.6,5.3-3.4,3.9-1.6c-1.4,1.9-9.6,4.4-2.6,6c0.9,0.2,2,0.3,3,0.4
			c5.6,0.4,12.3-0.9,16.8,1.5C234.9,125.4,230.5,125.7,230.8,125.9z"/>
	</g>
	<g>
		<path class="st0" d="M125.2,124.7c0,0.2,0.1,0,0.2-0.4C125.1,124.6,125,124.8,125.2,124.7z"/>
	</g>
	<g>
		<path class="st0" d="M124.9,124.6c0.1,0.1,0-0.1-0.2-0.4C124.8,124.6,124.9,124.8,124.9,124.6z"/>
	</g>
	<g>
		<path class="st0" d="M125.4,124.9c-0.2,0.1,0,0.1,0.5,0C125.4,124.8,125.2,124.8,125.4,124.9z"/>
	</g>
	<g>
		<path class="st0" d="M124.8,125.1c0-0.2-0.1,0-0.2,0.4C124.9,125.1,125,125,124.8,125.1z"/>
	</g>
	<g>
		<path class="st0" d="M124.6,124.9c0.2-0.1,0-0.1-0.5,0C124.6,125,124.8,125,124.6,124.9z"/>
	</g>
</g>
</svg>
