<?xml version="1.0" encoding="utf-8"?>
<!-- Generator: Adobe Illustrator 28.1.0, SVG Export Plug-In . SVG Version: 6.00 Build 0)  -->
<svg version="1.1" id="Layer_1" xmlns="http://www.w3.org/2000/svg" xmlns:xlink="http://www.w3.org/1999/xlink" x="0px" y="0px"
	 viewBox="0 0 250 250" style="enable-background:new 0 0 250 250;" xml:space="preserve">
<style type="text/css">
	.st0{opacity:0.79;}
	.st1{opacity:0.4;}
	.st2{fill:#FFCFCF;}
	.st3{opacity:0.6;}
	.st4{fill:#FFE8E7;}
	.st5{fill:#FFFFFF;}
</style>
<g class="st0">
	<g class="st1">
		<g>
			<path class="st2" d="M141.8,136c16.9,10.9,29.9,28,37.8,46.6c-11-19.7-29.4-35-50.2-43.7c6.5,17.1,8.7,34.5,17.5,50.4
				c2.8,5.1,6.1,10,9.9,14.4c0.4,0.4,0.9,0.8,1.3,1.2c3.4,2.9,7.3,5.4,11.8,6.1c4.4,0.7,9.4-0.9,11.8-4.7c1.8-2.9,2-6.7,4.6-8.9
				c4.1-3.6,11.1-0.4,15.9-3.2c2.6-1.5,3.9-4.6,3.9-7.6c0.1-3-1-5.9-2.2-8.6c-2.6-5.6-6.2-10.8-10.6-15.2c-0.3-0.2-0.6-0.5-1-0.7
				C176.8,151,159.8,142.2,141.8,136z"/>
		</g>
		<g>
			<path class="st2" d="M136.9,119.7c16.9-10.9,37.9-15.6,58-15.1c-22.5,1.9-44,12.2-60.6,27.6c18.2,1.2,35,6.3,53.2,4.9
				c5.8-0.5,11.6-1.4,17.2-3.1c0.6-0.2,1.1-0.5,1.6-0.7c4-1.9,8-4.4,10.4-8.2c2.5-3.7,3.1-8.9,0.6-12.7c-1.9-2.8-5.3-4.6-6.2-7.9
				c-1.6-5.3,4.2-10.3,3.6-15.8c-0.3-3-2.6-5.5-5.3-6.7c-2.7-1.3-5.8-1.5-8.8-1.5c-6.2,0-12.4,1.2-18.2,3.3c-0.4,0.2-0.7,0.4-1,0.6
				C165,93.9,150,105.9,136.9,119.7z"/>
		</g>
		<g>
			<path class="st2" d="M114.6,116.8c-2.9-19.9,1.4-41,10.2-59.1c-7.6,21.3-7.1,45.2,0.1,66.6c8.6-16.1,20.3-29.3,26.4-46.4
				c2-5.4,3.5-11.1,4.3-17c0-0.6,0-1.2,0-1.8c-0.1-4.5-0.8-9.1-3.2-12.9s-6.9-6.5-11.3-5.8c-3.3,0.5-6.4,2.9-9.8,2.4
				c-5.5-0.7-7.6-8.1-12.9-9.8c-2.8-0.9-6,0.1-8.3,2.1c-2.3,1.9-3.8,4.6-5,7.3c-2.5,5.7-4.1,11.8-4.5,18c0,0.4,0.1,0.8,0.1,1.2
				C102.8,80.5,107.4,99.2,114.6,116.8z"/>
		</g>
		<g>
			<path class="st2" d="M108.9,137.2c-19.6-4.7-37.5-16.5-51.1-31.3c16.9,14.9,39.3,23.3,61.9,24.5c-11.8-13.9-19.7-29.6-33.3-41.7
				c-4.3-3.8-9.1-7.3-14.2-10.3c-0.6-0.2-1.1-0.5-1.7-0.7c-4.2-1.6-8.7-2.7-13.1-1.8c-4.4,0.8-8.6,4-9.6,8.3c-0.7,3.3,0.3,7-1.4,10
				c-2.7,4.8-10.4,4.1-13.9,8.3c-1.9,2.3-2.1,5.7-1.2,8.5c0.9,2.8,2.9,5.2,5,7.4c4.3,4.5,9.4,8.1,15,10.8c0.4,0.1,0.8,0.2,1.2,0.3
				C70.8,134.8,89.8,137.4,108.9,137.2z"/>
		</g>
		<g>
			<path class="st2" d="M125.7,149c-9,18-24.6,32.8-42.2,42.6c18.4-13.1,31.7-33,38-54.6c-16.3,8.3-33.4,12.4-48.3,22.9
				c-4.7,3.3-9.2,7.2-13.2,11.4c-0.4,0.5-0.7,1-1,1.5c-2.5,3.7-4.6,7.9-4.8,12.4s1.9,9.3,5.9,11.2c3,1.5,6.9,1.3,9.4,3.6
				c4.1,3.7,1.6,11,4.9,15.4c1.8,2.4,5,3.4,8,3.1c3-0.3,5.8-1.6,8.3-3.2c5.3-3.2,10.1-7.3,14-12.1c0.2-0.4,0.4-0.7,0.6-1
				C114.7,185.5,121.5,167.5,125.7,149z"/>
		</g>
	</g>
	<g class="st3">
		<path class="st4" d="M114.3,90.6l0.3,0.4c2.2,2.8,1.9,7.3-1.1,9.5c-0.1,0.1-0.2,0.1-0.3,0.2c5,8.7,9.9,17.5,13.2,26.9
			c0,0.1,0,0.1,0,0.2c6.8-5.9,13.8-11.8,20.8-17.5c-1.4-2.8-0.9-6.3,1.7-8.4l0.8-0.6c2.8-2.2,7.3-1.9,9.5,1.1c2.1,3,1.9,7.1-1.1,9.5
			l-0.8,0.6c-2.1,1.6-5.1,1.9-7.5,0.6c-7.1,5.8-14.1,11.7-21,17.7c7.9,4.5,17.3,8.5,24.2,14.7c2.8-1.5,6.4-1,8.5,1.7l0.6,0.8
			c2.2,2.8,1.9,7.3-1.1,9.5c-3,2.1-7.1,1.9-9.5-1.1l-0.6-0.8c-1.6-2-1.9-5.1-0.7-7.4c-6.8-6.1-16.7-10.2-24.3-14.6
			c-0.1-0.1-0.1-0.1-0.2-0.2h-0.1c-2.8,8.1-5,16.4-6.7,24.8c0.5,0.4,1,0.8,1.4,1.3c0.5,0.7,0.9,1.5,1.2,2.4c1.2,2.2,1.1,5.2-0.5,7.2
			c-2.4,3-6.2,3.5-9.4,1.5c-2.3-1.5-3.9-4.9-3.3-7.6c0.4-1.8,1-3.3,2.5-4.5c1.1-0.9,2.8-1.5,4.4-1.4c1.6-7.7,3.6-15.3,6.1-22.9
			c-10.2,0-20.4,0.1-30.6,0.1c-0.5,0-0.9-0.2-1.2-0.4c-2.6,2.6-7.1,3.5-10-0.2c-5.4-6.8,5.1-15.2,10.5-8.4c1.4,1.7,1.7,3.5,1.4,5.2
			c10.7,0,21.4-0.1,32-0.1l0,0c0.1,0,0.1-0.1,0.2-0.1c-0.4-0.2-0.7-0.5-0.9-1c-3.3-9.5-8.3-18.4-13.4-27.2c-2,0.1-4.1-0.7-5.5-2.5
			l-0.3-0.4c-2.2-2.8-1.9-7.3,1.1-9.5C107.8,87.4,112,87.7,114.3,90.6z"/>
		<path class="st5" d="M93.1,103.6l0.5,0.1c3.4,1,5.8,4.8,4.7,8.3c0,0.1-0.1,0.2-0.1,0.3c9.1,4.1,18.3,8.4,26.4,14.1
			c0.1,0,0.1,0.1,0.1,0.1c2.1-8.8,4.3-17.6,6.6-26.4c-2.8-1.5-4.4-4.6-3.5-7.8l0.3-0.9c1-3.4,4.8-5.8,8.3-4.7
			c3.5,1.1,5.7,4.7,4.7,8.3l-0.3,0.9c-0.7,2.5-3.1,4.5-5.7,4.9c-2.3,8.9-4.6,17.7-6.7,26.7c9-1,19-3.2,28.2-2.3
			c1.5-2.8,4.6-4.5,7.8-3.6l0.9,0.3c3.4,1,5.8,4.8,4.7,8.3c-1.1,3.5-4.7,5.7-8.3,4.7l-0.9-0.3c-2.5-0.7-4.5-3-4.9-5.6
			c-9.1-1-19.5,1.5-28.3,2.4c-0.1,0-0.2,0-0.3,0c0,0,0,0,0,0.1c2.5,8.2,5.5,16.2,9.1,24c0.6,0,1.3,0,1.9,0.2
			c0.8,0.3,1.7,0.7,2.4,1.2c2.2,1.1,3.9,3.6,3.8,6.1c-0.2,3.8-3,6.5-6.8,6.7c-2.8,0.2-6-1.7-7.1-4.2c-0.7-1.7-1.1-3.3-0.6-5.1
			c0.4-1.4,1.4-2.9,2.7-3.7c-3.2-7.2-6-14.6-8.4-22.1c-8.3,6-16.5,12-24.8,18c-0.4,0.3-0.8,0.4-1.2,0.3c-0.5,3.7-3.7,7-8.3,5.7
			c-8.3-2.3-4.7-15.3,3.7-13c2.1,0.6,3.5,1.9,4.1,3.4c8.6-6.3,17.3-12.6,25.9-18.9c0,0,0,0,0-0.1s0-0.1,0.1-0.2
			c-0.4,0.1-0.8,0-1.3-0.3c-8.2-5.8-17.5-10.1-26.7-14.2c-1.6,1.3-3.7,1.8-5.9,1.2l-0.5-0.1c-3.4-1-5.8-4.8-4.7-8.3
			C86,104.8,89.5,102.6,93.1,103.6z"/>
	</g>
</g>
</svg>
