<?xml version="1.0" encoding="utf-8"?>
<!-- Generator: Adobe Illustrator 28.1.0, SVG Export Plug-In . SVG Version: 6.00 Build 0)  -->
<svg version="1.1" id="Layer_1" xmlns="http://www.w3.org/2000/svg" xmlns:xlink="http://www.w3.org/1999/xlink" x="0px" y="0px"
	 viewBox="0 0 250 250" style="enable-background:new 0 0 250 250;" xml:space="preserve">
<style type="text/css">
	.st0{fill:#E3FFF3;}
</style>
<g>
	<path class="st0" d="M231.4,126.3c-3.1-8.9-12.4-6.8-15.2-10.5c-2.9-3.8,5.3-11.5,1.6-12.8c-2.7-1-9.6,5.9-11.2,3
		c-2.5-4.4,8.8-25.2-3.3-18.4c-1.4,0.8-2.8,2.1-4.2,3.6c-2.6,2.6-5.3,5.5-8.9,6.4l-0.2,0.1c-4.6,1-5.1-2.4-3.6-6.9
		c-3-0.7-5.1-1.8-5.4-3.4c0-0.2,0-0.4,0-0.7c0.1-0.8,0.6-1.7,1.6-2.6c2-2,4.7-2.9,7.4-3.6c2.9-0.8,5.8-1.2,8-2.4
		c0.4-0.2,0.8-0.5,1.1-0.7c3.5-2.3,2.6-3.9,0-5.3c-2.3-1.2-5.9-2.2-9.1-3.2c-2.9-0.9-5.3-1.9-6-3.2c-1.1-2,3.1-3.7,6-5.5
		c1.2-0.8,2.2-1.6,2.4-2.4c0.3-1.3-0.8-1.8-2.4-2.1c-2.8-0.5-7.3-0.3-9-2.5c-0.2-0.2-0.3-0.4-0.4-0.7c-0.6-1.5-0.2-3.3,0.4-5.4
		c0.9-3.2,2.1-7,0-10.9c-0.4-0.7-0.8-1.4-1.4-2.1c-1.5-0.3-2.8-0.3-4-0.1c-1.5,0.2-2.7,0.8-3.9,1.5c-2.4,1.5-4.2,3.7-6,5.1
		c-0.9,0.7-1.8,1.2-2.8,1.4c-1,0.1-1.9-0.3-2.7-0.9c-0.6-0.5-1.1-1-1.6-1.7c-1.8-2.3-3.4-5.3-4.9-5.6c-0.4-0.1-0.7,0-1.1,0.4
		c-2.2,1.9,0.3,11.2-3,11.2c-0.7,0-1.6-0.4-2.6-1.1c-1.8-1.3-4-3.4-6.1-5.4c-2.5-2.4-4.9-4.5-6.6-4.6c-1.4-0.1-2.3,1.2-2.3,4.9
		c0,3.3,1.8,7.3,2.3,11.3c0.2,1.3,0.2,2.5,0,3.8c-0.1,0.4-0.1,0.8-0.3,1.2c-1.4,4.8-5.1,3.4-8.3-0.2c-0.4,0.4-0.8,0.8-1.2,1.1
		c-3,2.6-6.1,3.2-7.2-1.1c-1.5-5.6,2.4-11.6,2.5-16.3c0.1-6.8-2.9-5.5-6.7-2.4c-1.3,1.1-2.7,2.4-4,3.6c-2.2,2.1-4.4,4-6.1,4.5
		c-0.3,0.1-0.6,0.2-0.9,0.2c-3.3,0-0.5-9.3-2.7-11.3c-1-0.9-2-0.2-3.1,1.2c-1.7,2.1-3.6,5.6-6.1,6.3c-0.4,0.1-0.8,0.2-1.3,0.1
		c-0.2,0-0.3-0.1-0.5-0.1c-1.5-0.4-2.9-1.8-4.3-3.3c-2.4-2.4-5.2-5.2-9.8-5.1c-0.6,0-1.2,0.1-1.8,0.2c-1.6,1.8-2.3,3.6-2.6,5.4
		c-0.2,1.2-0.1,2.3,0,3.4c0.5,3.7,2.2,7.1,1.1,9.5c-0.2,0.6-0.6,1-1.1,1.4c-1.1,0.8-2.8,1.1-4.5,1.2C63.2,54,61,54,59.9,54.7
		c-0.6,0.3-0.9,0.8-0.7,1.5c0.1,0.4,0.3,0.8,0.7,1.2c1.2,1.3,3.7,2.5,5.5,3.7c1.6,1.1,2.6,2.1,2,3.2c-0.3,0.6-1,1.1-2,1.5
		c-1.4,0.7-3.4,1.3-5.5,1.9c-3.3,1-6.9,1.9-8.8,3.1c-1.6,1-2,2.3,0,4c0.5,0.4,1.2,0.9,2,1.4c1.8,1.1,4.3,1.6,6.8,2.3
		c1.9,0.5,3.8,1.1,5.5,2c1.1,0.6,2,1.2,2.9,2.1c3.2,3.3,1.2,5.4-2.9,6.4c-0.3,0.1-0.7,0.2-1,0.2c1.4,4.6,0.8,8.1-4,6.8
		c-0.2,0-0.3-0.1-0.5-0.1c-3.6-1.2-6.3-4.4-8.8-7c-1.2-1.2-2.4-2.4-3.6-3.1c-11.9-7.1-1.1,13.9-3.8,18.3c-1.7,2.8-8.4-4.2-11.1-3.3
		C29,102,37,109.9,34,113.7c-2.9,3.6-12.1,1.3-15.4,10.1c3.1,8.9,12.4,6.7,15.2,10.5c2.9,3.8-5.3,11.5-1.6,12.8
		c2.7,1,9.6-5.9,11.2-3c2.5,4.4-8.8,25.2,3.3,18.4c1.6-0.9,3-2.3,4.5-3.9c2.5-2.5,5.1-5.2,8.6-6.1l0.2-0.1c4.6-1,5.3,2.2,3.8,6.7
		c0.6,0.1,1.2,0.3,1.8,0.5c3.5,1.2,5,3.3,1.9,6.4c-0.6,0.6-1.2,1.1-1.9,1.5c-1.7,1-3.6,1.6-5.5,2.1c-2.9,0.7-5.8,1.2-7.9,2.4
		c-0.3,0.2-0.6,0.4-0.9,0.5c-3.9,2.4-2.9,4.1,0,5.5c2.3,1.1,5.8,2.1,8.8,3.1c2.4,0.8,4.4,1.6,5.5,2.6c0.2,0.2,0.4,0.4,0.6,0.7
		c0.4,0.7,0.1,1.4-0.6,2.1c-1.2,1.2-3.7,2.3-5.5,3.5c-1.2,0.8-2.2,1.6-2.4,2.4c-0.3,1.3,0.8,1.8,2.4,2.1c1.6,0.3,3.7,0.4,5.5,0.7
		c1.8,0.4,3.3,1,3.9,2.5c1.7,4.2-4.7,10.8,0.6,17.9c0.1,0.2,0.3,0.4,0.4,0.5c1.5,0.3,2.8,0.3,4,0.1c4.6-0.7,7.2-4.5,9.8-6.6
		c0.9-0.7,1.9-1.3,2.9-1.4c0.5-0.1,1,0,1.5,0.2c0.6,0.2,1.2,0.7,1.8,1.2c2.4,2.3,4.2,6.8,6.1,6.8c0.3,0,0.6-0.1,1-0.4
		c2.2-1.9-0.3-11.2,3-11.2c0.8,0,1.8,0.5,2.8,1.3c1.9,1.3,4,3.5,6.1,5.5c1.4,1.4,2.8,2.6,4,3.4c2.6,1.8,4.5,1.5,4.6-3.9
		c0-4.7-3.6-10.8-2-16.3c1.4-4.8,4.9-3.7,8.1,0c0.2-0.3,0.5-0.5,0.7-0.7c3.1-2.9,6.5-3.5,7.7,0.9c1.5,5.6-2.4,11.6-2.4,16.3
		c-0.1,5.4,1.8,5.7,4.5,4.1c1.9-1.2,4.3-3.5,6.6-5.6s4.4-3.9,6.1-4.3c0.2-0.1,0.4-0.1,0.6-0.1c3.3,0,0.6,9.3,2.7,11.3
		c1.1,1,2.2,0,3.4-1.5c1.4-1.8,3-4.5,4.9-5.6c0.5-0.3,1-0.5,1.6-0.5c0.2,0,0.4,0,0.6,0c1.8,0.3,3.2,1.8,4.9,3.4
		c1.6,1.7,3.5,3.5,6,4.4c1.1,0.4,2.4,0.7,3.9,0.6c0.6,0,1.1-0.1,1.8-0.2c6.2-7.1-0.3-14.1,1.5-18.4c0.4-0.9,1.2-1.5,2.2-1.9
		c2.8-1.1,7.3-0.6,9-1.6c0.6-0.3,0.8-0.8,0.7-1.5c-0.1-0.4-0.3-0.8-0.7-1.2c-2.3-2.4-9-4.6-7.5-7c0.9-1.5,4.1-2.5,7.5-3.5
		c3.5-1,7.3-2,9.1-3.4c1.2-0.9,1.4-2,0-3.4c-0.5-0.5-1.3-1.1-2.4-1.7c-1.8-1.1-4.2-1.6-6.7-2.3c-3.1-0.8-6.2-1.8-8.5-4.1
		c-0.2-0.2-0.4-0.4-0.5-0.6c-1.5-1.9-1.3-3.3,0-4.4c1-0.8,2.5-1.4,4.4-1.8c-1.4-4.6-0.6-7.9,4.1-6.6c0.2,0,0.3,0.1,0.5,0.1
		c3.7,1.2,6.5,4.6,9.1,7.3c1.1,1.1,2.2,2.1,3.3,2.8c12,7.1,1.1-13.9,3.7-18.3c1.7-2.8,8.4,4.2,11.1,3.3c3.7-1.2-4.3-9.1-1.3-12.8
		C218.8,132.7,228.1,135.1,231.4,126.3z M130.6,60.7c0.1-0.2,1.9,0.6,3.8,0.9c2.7,0.5,5.8,0.1,5.9-5c0-2.8-3.1-16.2,0.7-13.3
		c0.1,0.1,0.2,0.2,0.3,0.3c1.6,1.5,3.6,3.6,5.7,5.1c1.5,1,3.1,1.8,4.8,1.8c1,0,1.5-0.4,1.9-1c0.9-1.5,0.6-4.3,1.4-5.6
		c1.4-2.2,2.4-2.4,3.4-1.7c0.5,0.4,1.1,0.9,1.6,1.6c0.7,0.8,1.5,1.7,2.4,2.2c1.1,0.6,2.1,0.8,3.1,0.7c2.3-0.2,4.1-2.2,6-4.2
		c1.2-1.3,2.4-2.5,3.9-3.1c0.3-0.2,0.7-0.3,1.1-0.4c0.6,2.2-0.3,4.6-1.1,6.9c-0.9,2.6-1.6,5.2,0,7.2c0.4,0.5,0.9,0.9,1.5,1.3
		c1.1,0.7,2.7,1,3.9,1.3c1.9,0.5,3.2,1.2,1.4,4.3c-0.3,0.5-0.8,1-1.4,1.4c-1.7,1.3-3.9,2.6-2.7,4.7c0.6,1.1,1.6,2,2.7,2.7
		c2.5,1.6,5.9,2.4,8.4,3.2c0.2,0.1,0.4,0.2,0.6,0.2c1,0.5,0.8,1.1,0,1.8c-1.7,1.3-6,2.9-9,4c-1.1,0.4-2,0.8-2.5,1.1
		c-1.7,0.9-2.6,2-2.9,3c-0.3,0.7-0.2,1.5,0,2.2c0.8,2.7,4.1,5,4,5.3c-0.6,1.3-2.2,2.4-4,3.4c-1.3,0.7-2.7,1.4-3.9,2
		c-0.4,0.2-0.8,0.4-1.2,0.6c-1.4,0.8-0.3-0.3,1.2-1.6c1.6-1.4,3.6-3,3.7-3.2l0.1-0.1c0.4-0.5,0.3-1,0-1.7c-1-2.2-4.3-5.5,0-9.2
		c0.7-0.6,1.5-1.2,2.6-1.7c1-0.6,2-1,2.9-1.4c3.8-1.8,6-2.6,0.1-5.1h-0.1c-13.1-5.8,4.1-13.6-5.4-15.8c-0.1,0-0.2,0-0.3-0.1
		c-3.9-0.8-3.6-5-2.9-9.6c-0.2,0.2-0.4,0.3-0.6,0.5c-2.1,1.5-4.1,2.8-6,2.9c-1.2,0.1-2.3-0.3-3.3-1.5c-0.9-1-1.6-1.6-2.2-1.8
		c-0.6-0.2-1.1-0.2-1.6,0.1c-1.6,0.9-2.8,4.1-4.9,5.7c-1.5,1.2-3.6,1.5-6.7-0.5c-0.4-0.3-0.9-0.6-1.4-1c-6.3-4.8-4.3-0.3-4.4,5.7
		c0,1.3-0.1,2.3-0.3,3.2c-1,4.5-4.1,4.3-6.6,4.3c-1.5,0-2.7,0-3,1c-0.1,0.4-1.9,9.9-1.8,6.6C129.7,68.3,129,63,130.6,60.7z
		 M193.6,115.7c-1.8-3.1-1.3-7,3.2-6.9c2.1,0.1,0,4.1,0.6,5c0.4,0.6,1,1.3,1.7,2c3,2.8,8.2,6.3,8.7,10.2c-0.6,3.8-5.7,7-8.7,9.7
		c-0.9,0.8-1.6,1.5-2,2.2c-0.5,0.9,1.5,5-0.7,5c-4.5,0.1-4.9-3.8-3-6.9c1.2-2.1,2.4-4.3,1-6c-1-1.3-2.6-1.1-3.9-2.1
		c-0.2-0.2-0.4-0.3-0.5-0.5c-0.4-0.4-0.3-0.8,0-1.1c0.1-0.2,0.4-0.3,0.6-0.4c-0.3-0.1-0.5-0.3-0.6-0.5c-0.3-0.3-0.3-0.7,0-1.1
		c0.1-0.2,0.3-0.4,0.6-0.5c1.3-1,2.9-0.7,3.9-2C196,120,194.8,117.8,193.6,115.7z M190.2,114.1c-0.1,0.2-0.1,0.4-0.2,0.6
		c-0.3,0.9-0.6,1.8-0.9,2.8c-1.1,3.1-3.2,5.3-4.5,8.2c1.2,3,3.3,5.2,4.2,8.3c0.4,1.2,0.7,2.3,1,3.4c1.2,4.7-7.2,0.7-8.2-2.6
		c-0.2-0.5-0.4-1-0.7-1.4c-0.9-1.6-2.3-3-2.3-5.2c0-0.8,0-1.9,0.2-2.6c-0.1-0.7-0.1-1.8-0.1-2.6c0.1-2,1.3-3.4,2.2-4.8
		c0.4-0.6,0.7-1.1,0.9-1.8c0.9-2.7,6.7-5.7,8.1-4.2C190.3,112.7,190.4,113.2,190.2,114.1z M166.2,154.8c0.4,1.9,3.3,4.9,3.2,6.2
		c-0.3,3.2-1.8,4.9-3.7,5.3c-2,0.4-4.3-0.6-5.5-3c-0.2-0.4-0.4-0.9-0.6-1.4c-0.3-1.1,0-2.2,0.6-3.4c0.8-1.9,2.2-3.9,2.1-5.5
		c0-0.6-1.1-2.4-2.1-4.3c-0.6-1.2-1.2-2.4-1.6-3.5c-0.1-0.2-0.1-0.4-0.2-0.6h0.2c0.5-0.1,1-0.2,1.6-0.2c1.8-0.2,4-0.1,5.5,0
		c1,0,1.7,0,2-0.2c1.5-0.8,2.6-3,4-4.7c0.7-0.9,1.6-1.7,2.6-1.9c0.4-0.1,0.9-0.2,1.3-0.2c2.7-0.2,4.8,1.3,5.4,3.3
		c0.2,0.8,0.3,1.6,0,2.5c-0.4,1.2-1.3,2.4-2.9,3.4c-0.5,0.3-1.4,0.3-2.6,0.2c-1.3-0.1-2.8-0.3-3.9-0.1c-0.2,0-0.4,0.1-0.6,0.1
		c-2.3,0.8-3,2.1-2.9,3.9C166.6,151.2,165.8,152.3,166.2,154.8z M124.7,139.4c0.1,0,0.1-0.1,0.2-0.1c2.4,0.9,1.5,13.8,1.5,16.1
		c0,3.2-0.9,4.6-1.6,4.5h-0.1c-0.8,0.1-1.8-1.3-1.7-4.5C122.9,153.1,122.5,140.8,124.7,139.4z M125,128.5c-0.1,0-0.2,0-0.3,0
		c-1.8-0.1-3.2-1.6-3.2-3.5c0-1.8,1.4-3.3,3.2-3.5c0.1,0,0.2,0,0.3,0c1.9,0,3.5,1.6,3.5,3.5S126.9,128.5,125,128.5z M81.2,149.4
		c0.1-1.8-0.5-3.1-2.8-4c-1-0.3-2.5-0.2-3.9-0.1c-1.3,0.1-2.6,0.2-3.1-0.2s-0.9-0.7-1.3-1.1c-2.4-2.5-1.9-5.3,0-6.8
		c1.1-0.9,2.7-1.4,4.4-1.2c0.3,0,0.7,0.1,1,0.2c2.8,0.8,4,5.5,6.4,6.8c0.3,0.2,1.2,0.2,2.4,0.2c1.3,0,2.9,0,4.3,0.1
		c0.6,0,1.2,0.1,1.8,0.2c0.3,0.1,0.5,0.1,0.7,0.2c-0.2,0.6-0.4,1.2-0.7,1.9c-0.5,1.1-1.2,2.3-1.8,3.3c-0.9,1.5-1.6,2.7-1.6,3.2
		c-0.1,1.4,0.9,3,1.6,4.7c0.7,1.5,1.2,2.9,0.8,4.3c-0.2,0.7-0.5,1.3-0.8,1.9c-1.1,1.6-2.7,2.5-4.3,2.5c-2.2,0-4.3-1.7-4.5-5.5
		c-0.1-1.3,3-4.2,3.4-6.2C83.6,151.4,82.8,150.3,81.2,149.4z M56.4,134.4c1.8,3.1,1.3,7-3.2,6.9c-2.1-0.1,0-4.1-0.5-5
		c-0.3-0.6-0.8-1.1-1.4-1.7c-2.9-2.9-8.5-6.4-9-10.4c0.6-3.9,6-7.3,9-10.1c0.7-0.7,1.4-1.3,1.7-1.9c0.5-0.9-1.5-5,0.7-5
		c4.5-0.1,4.9,3.8,3,7c-1.2,2.1-2.4,4.3-1,6c1,1.3,2.6,1.1,3.9,2.1c0.2,0.2,0.4,0.3,0.5,0.5c0.3,0.4,0.3,0.8,0,1.1
		c-0.1,0.2-0.4,0.3-0.6,0.4c0.3,0.1,0.5,0.3,0.6,0.5c0.3,0.3,0.3,0.7,0,1.1c-0.1,0.2-0.3,0.3-0.6,0.5c-1.3,1-2.9,0.7-3.9,2
		C54.1,130,55.2,132.3,56.4,134.4z M59.8,136c0.1-0.2,0.1-0.4,0.2-0.6c0.3-0.9,0.6-1.9,0.9-2.8c1.1-3.1,3.1-5.2,4.5-8.2
		c-1.2-3-3.3-5.2-4.3-8.4c-0.4-1.2-0.7-2.3-1-3.4c-0.1-0.2-0.1-0.4-0.1-0.6s0-0.3,0-0.4c0.2-1.9,3.2-1.1,5.5,0.5
		c1.3,0.9,2.5,2.1,2.8,3.2s1.1,2.1,1.7,3.1s1.2,2.1,1.2,3.5c0,0.8,0,1.9-0.2,2.6c0.1,0.7,0.2,1.8,0.1,2.6c-0.1,1.3-0.6,2.4-1.2,3.3
		c-0.7,1.1-1.5,2.1-1.9,3.3c-0.3,1-1.4,2.1-2.6,2.9c-2,1.4-4.6,2.2-5.5,1.3C59.7,137.4,59.6,136.8,59.8,136z M81.6,99.7
		c1.4-0.4,2.5-2,2.1-4.4c-0.3-1.9-3.3-4.9-3.2-6.2c0.3-3.3,1.9-4.9,3.8-5.3c1.5-0.3,3.1,0.2,4.3,1.5c0.7,0.7,1.3,1.7,1.7,3
		c0.5,1.8-0.7,3.7-1.7,5.6c-0.6,1.2-1.1,2.3-1,3.3c0,0.4,0.5,1.2,1,2.3c0.5,1,1.2,2.2,1.8,3.3c0.5,1,0.9,1.9,1.1,2.8
		c-0.3,0.1-0.7,0.2-1.1,0.2c-0.6,0.1-1.2,0.1-1.8,0.2c-1.5,0.1-3.1,0-4.3,0c-1,0-1.7,0-2,0.2c-2.4,1.2-3.7,5.9-6.5,6.6
		c-0.4,0.1-0.9,0.2-1.3,0.2c-1.8,0.1-3.4-0.5-4.4-1.6c-1.5-1.5-1.8-3.9,0-6.1c0.5-0.5,1.1-1.1,1.8-1.6c0.5-0.3,1.5-0.3,2.6-0.2
		c1.5,0.1,3.4,0.4,4.4,0C81.2,102.7,81.7,101.5,81.6,99.7z M113.3,128.8c-1.1,0.4-2.2,0.7-3.2,0.6c-0.3,0-0.6,0-0.8,0.1
		c-1.9,0.4-4.2,2.1-6.1,2.9c-0.3,0.1-0.6,0.2-0.8,0.3c-2.7,0.7-2.4-4.8-2.3-7.9c-0.1-3-0.2-8.5,2.4-7.7c0.2,0.1,0.4,0.1,0.7,0.2
		c1.8,0.8,4.1,2.6,6.1,3.1c0.3,0.1,0.6,0.1,0.9,0.1c1,0,2.1,0.2,3.1,0.6c2.2,0.9,4,2.5,2.8,3.8C117.2,126.3,115.5,127.9,113.3,128.8
		z M71.8,114.4c0.1-0.3,1.3-0.1,2.6,0c1,0.1,2,0.1,2.6-0.1c1.9-0.7,3.6-8,6.8-6.1c0.1,0.1,0.3,0.2,0.4,0.3c1.2,1,0.8,2.7,0,4.5
		c-1.1,2.4-3,5-3.5,6.6c-0.4,1.4,0,3.2,0.3,4.9c-0.4,1.6-0.7,3.4-0.4,4.9c0.4,1.7,2.6,4.7,3.6,7.3c0.5,1.4,0.6,2.6,0,3.5
		c-0.2,0.3-0.4,0.5-0.8,0.7c-3.3,1.9-4.8-5.5-6.7-6.2c-0.6-0.2-1.5-0.2-2.4-0.2c-1.4,0.1-2.7,0.2-2.8-0.1c-0.1-0.2,0.7-6,1.2-9.9
		C72.4,120.5,71.7,114.6,71.8,114.4z M84.2,131.7c-0.7-2.3-0.9-4.8-0.7-7.1c-0.2-2.2,0-4.5,0.7-6.6c0.8-2.6,2.1-4.9,4.2-6.4l0.1-0.1
		c0.6-0.4,1.2-0.7,1.8-0.8c2.3-0.6,4.6,0.8,6.1,2.8c0.3,0.4,0.6,0.9,0.9,1.4c2,3.8,1.4,7.1-0.5,9.9c1.9,2.9,2.4,6.3,0.3,10
		c-0.2,0.3-0.4,0.7-0.6,1c-1.5,2.1-3.8,3.5-6.1,3.1c-0.6-0.1-1.2-0.4-1.8-0.7c-0.1-0.1-0.3-0.2-0.4-0.3
		C86.2,136.2,85,134.1,84.2,131.7z M94.4,107.2c0.2-0.4,0.9-0.4,2-0.1c0.7,0.2,1.5,0.6,2.6,1.2c0.7,0.4,2.3,1.2,4.2,2.3
		c2,1.1,4.3,2.4,6.1,3.7c1.8,1.3,3,2.5,2.8,3.3c-0.5,0.4-1.5,0.2-2.8-0.3c-1.8-0.7-4-2-6.1-3.2c-2.5-1.5-4.6-3-5.5-3.5
		c-0.5-0.3-0.9-0.6-1.3-0.8C94.7,108.6,94.1,107.7,94.4,107.2z M96.4,139.4c0.3-0.2,0.6-0.4,1-0.6c0.9-0.5,3.2-2,5.8-3.5
		c2.1-1.2,4.4-2.4,6.1-3c1.3-0.4,2.3-0.6,2.7-0.2c0.1,0.8-1,2-2.7,3.1c-1.7,1.2-4.1,2.5-6.1,3.5s-3.8,1.9-4.5,2.3
		c-0.9,0.5-1.6,0.8-2.3,1.1c-1.3,0.5-2.1,0.5-2.4,0C93.8,141.6,94.5,140.6,96.4,139.4z M113.6,114.7c-0.1-0.1-0.2-0.3-0.2-0.4
		c-0.8-1.1-2.5-2.1-4-3c-0.9-0.6-1.8-1.1-2.4-1.7c-1.3-1.3,0.4-2.8,2.4-4.1c1.1-0.7,2.3-1.3,3.3-1.8c0.2-0.2,0.5-0.3,0.8-0.5
		c2.6-1.6,6.5-3.7,7.1-1.3c0.5,2.2-0.4,6.4,0.9,8.4c1.6,2.6,1.7,7.8-0.9,7.4C119.5,120.1,115,117.4,113.6,114.7z M119.8,96.3
		c-1.7,2.7-4,4.1-6.4,4.4c-0.8,0.1-1.6,0.1-2.4,0.1c-0.4,0.9-1,1.7-1.6,2.4c-1.5,1.6-3.4,2.6-6.1,2.8c-0.2,0-0.5,0-0.8,0
		c-2.3,0-4.6-0.7-6-2.3c-0.9-1-1.3-2.3-1.1-4c0.2-1.2,0.6-2.3,1.1-3.4c1.4-2.7,3.9-5,6.8-6.6c0.4-0.2,0.8-0.4,1.3-0.6
		c1.5-1,3.1-1.8,4.8-2.4c1.3-0.4,2.7-0.7,4-0.7c1.7-0.1,3.3,0.2,4.8,0.8C122,88.7,121.8,93.1,119.8,96.3z M113.3,84.2
		c-1.4,0-2.8,0-4,0c-0.8,0-1.5,0.1-2,0.2c-1.4,0.4-2.8,1.6-4.1,2.7l0,0c-1.6,0.5-3.3,1.1-4.4,2.1c-0.7,0.7-1.5,2.1-2.4,3.5
		c-1.7,2.9-3.7,6-6.1,4.7h-0.1c-1.7-1-1-2.9,0.1-4.7c0.9-1.6,2.1-3.3,2-4.2c-0.1-1-1.3-2.5-2-3.6c-0.3-0.5-0.5-0.9-0.4-1
		c0,0,0.2-0.1,0.4-0.2c1-0.5,3.6-1.6,6.1-2.6c0.9-0.4,1.9-0.8,2.7-1.1c1.2-0.9,2.7-2,4.1-2.9c2.2-1.6,4-2.9,4.1-2.9
		c0.4,0,1.1,2.1,2,3.5c0.2,0.4,0.5,0.7,0.7,0.9c0.6,0.5,1.9,0.5,3.3,0.5c2.5,0,5.4,0,5.3,2.4C118.6,83.7,116.1,84.1,113.3,84.2z
		 M104.9,71.4c-0.8,0.8-1.2,1.9-1.8,2.9c-0.6,1.1-1.3,2.2-2.5,3c-0.7,0.4-1.6,0.9-2.3,1.2c-0.5,0.4-1.2,0.9-1.9,1.2
		c-0.1,0.1-0.2,0.1-0.3,0.2c-2,1-3.9,0.5-5.8,0.5c-0.5,0-1,0-1.5,0.1c-0.1,0-0.2,0-0.3,0c-1.2,0.1-2.9-0.4-4.3-1.3
		c-2.6-1.5-4.5-4-1.6-4.7c0.5-0.1,1-0.2,1.6-0.4c0.6-0.1,1.3-0.3,2-0.4c0.8-0.2,1.6-0.2,2.4-0.3c0.6,0,1.2,0,1.8,0
		c1.7,0.1,3.4,0.2,5.2,0c0.3-0.4,0.6-0.9,0.9-1.3c1.4-2.2,2.3-4.5,4.2-6.6c0.8-0.9,1.6-1.8,2.5-2.6l0.1-0.1
		C106.6,59.8,107.3,68.9,104.9,71.4z M103.2,60.1c-0.9,0.4-2,0.6-3.2,0.6s-2.5,0-3.6,0.3c-1,0.3-1.8,0.8-2.2,1.8
		c-0.6,1.5,0.4,2.8,0.2,4.4c-0.2,1.4-0.9,1.6-1.8,1c0,1.1-0.4,1.7-1.7,1.1c-0.2-0.1-0.3-0.2-0.5-0.3c-0.7-0.4-1.2-1-1.8-1.5
		c-0.4-0.3-0.8-0.6-1.4-0.7c-1.2-0.1-2.2,0.4-3,1.2c-0.7,0.7-1.3,1.7-1.9,2.7c-1.8,3.1-5.4,4.7-7.6,0.7c-1-1.9,3.5-2.1,4.1-3
		c1.8-3.1,1.4-12.1,5.3-15.1h0.1c1.3-0.4,2.8-0.4,4.3-0.1c0.6,0.1,1.2,0.3,1.8,0.4c2.1,0.6,4.2,1.5,6.1,2.2c1.3,0.5,2.5,0.8,3.4,0.8
		c0.7,0,2.1-1.8,3.3-2.3c0.5-0.2,1-0.2,1.3,0.4C106.1,57.3,105.1,59.2,103.2,60.1z M81.1,178.3c0.9,1.5,1.8,3.1,3.1,3.7
		c0.5,0.2,1,0.3,1.6,0.2c1.2-0.2,1.9-1.1,2.8-1.8c0.3-0.2,0.6-0.4,1-0.6c0.3-0.1,0.6-0.2,0.8-0.2c0.7-0.1,1,0.5,1,1.3
		c0.9-0.6,1.6-0.5,1.8,1c0.2,1.6-0.8,2.9-0.3,4.4c0.6,1.5,2,2,3.6,2.2c0.7,0.1,1.4,0.1,2.1,0.1c1.9,0,3.8,0.7,4.6,1.9
		c0.7,1,0.8,2.2,0,3.8c-0.1,0.2-0.2,0.3-0.3,0.5c-1.1,1.8-3.5-2-4.6-2c-0.5,0-1.2,0.1-1.9,0.3c-1.7,0.4-3.9,1.3-6.1,2
		c-0.6,0.2-1.2,0.4-1.8,0.5c-1.5,0.4-3,0.7-4.3,0.5c-0.6-0.1-1.2-0.2-1.7-0.4c-3.8-3.1-3.3-12.2-5-15.3c-0.3-0.5-2-0.9-3.1-1.4
		c-0.8-0.4-1.3-0.9-0.9-1.7c0.3-0.5,0.6-0.9,0.9-1.2C76.6,173.9,79.6,175.6,81.1,178.3z M103.2,187.3c-0.4,0.1-0.9-0.2-1.5-0.8
		c-0.8-0.8-1.6-1.7-2.4-2.7c-1.2-1.4-2-3-2.8-4.5c-0.6-1.2-1.2-2.3-2-3.4c-1.4-0.2-2.7-0.2-4-0.2c-0.6,0-1.2,0-1.8,0
		c-1.2,0-2.3-0.1-3.6-0.3l-0.8-0.2c-0.9-0.2-1.8-0.4-2.7-0.7c-3.3-0.9-0.4-3.9,2.7-5.2c1.3-0.6,2.7-0.8,3.6-0.6
		c0.2,0.1,0.5,0.1,0.7,0.1c0.6,0.1,1.2,0,1.8,0c1.5-0.1,3.2-0.2,4.8,0.7c0.4,0.2,0.9,0.5,1.3,0.8c0.3,0.2,0.6,0.4,0.9,0.7
		c0.7,0.2,1.6,0.7,2.3,1.2c2.1,1.3,2.5,3.6,3.6,5.3c0.2,0.3,0.3,0.5,0.5,0.7C105.6,180.3,105.3,187,103.2,187.3z M103.2,173.4
		c-1.6-1.2-3.5-2.6-5-3.8l-1.7-0.8c-2.2-1-4.6-2.1-6.1-2.8c-0.8-0.4-1.3-0.6-1.3-0.7c-0.2-0.3,0.6-1.2,1.3-2.3
		c0.5-0.8,1.1-1.6,1.2-2.3s-0.5-1.8-1.2-3c-1.3-2.2-2.8-4.7-0.6-5.9c0.2-0.1,0.4-0.2,0.6-0.3c2.5-0.6,4.4,3.4,6.1,6.3
		c0.6,1,1.1,1.8,1.6,2.3c1,1,2.8,1.6,4.4,2.2c0.3,0.2,0.5,0.5,0.8,0.7c1,0.9,2.1,1.7,3.2,2c0.7,0.2,1.7,0.3,2.9,0.3
		c1.3,0,2.7,0,4,0.1c2.4,0.2,4.4,0.9,4.4,2.9c0,2.1-2.2,2.3-4.4,2.3c-1.6,0-3.2-0.1-4,0.2c-0.1,0.1-0.2,0.1-0.3,0.2
		c-1.2,0.9-2.3,4.4-2.8,4.4C106.1,175.5,104.8,174.6,103.2,173.4z M117.3,162.9c-1.3,0.5-2.6,0.7-4,0.7c-1.3,0-2.7-0.2-4-0.6
		c-2-0.6-3.9-1.6-5.6-2.8c-0.2-0.1-0.3-0.2-0.5-0.2c-2.7-1.4-5.2-3.5-6.8-6c-0.8-1.4-1.4-2.9-1.6-4.5c-0.2-1.9,0.4-3.3,1.6-4.3
		c1.4-1.2,3.6-1.8,5.6-1.7c0.4,0,0.8,0,1.1,0.1c2.7,0.4,4.7,1.6,6.1,3.5c0.4,0.6,0.8,1.2,1.1,1.9c1-0.1,2,0,2.9,0.2
		c2.3,0.5,4.3,1.9,5.9,4.5C121.1,156.9,121.3,161.3,117.3,162.9z M120,148c-0.6,2.3-4.1,0.4-6.7-1.2c-0.5-0.3-0.9-0.6-1.3-0.8
		c-0.8-0.4-1.8-1-2.8-1.6c-2.2-1.4-4.1-3.1-2.7-4.4c0.6-0.6,1.6-1.2,2.7-1.8c1.6-0.9,3.3-1.8,4-3c0-0.1,0.1-0.1,0.1-0.2
		c1.5-2.7,6-5.3,6.8-2.9c2.5-0.4,2.5,4.9,0.8,7.4C119.8,141.6,120.6,145.8,120,148z M125.3,110.7c-0.2-0.1-0.4-0.3-0.6-0.5
		c-1.7-2.6-1.2-13.4-1.2-15.6c0-2.3,0.6-3.7,1.2-4.2c0.2-0.2,0.5-0.3,0.7-0.3c0.8-0.2,1.8,1.3,1.8,4.5
		C127.2,97,127.7,109.8,125.3,110.7z M157.2,63.6c-0.5-1.4-1.9-2-3.5-2.1c-0.7-0.1-1.5-0.1-2.2-0.1c-1.8,0-3.5-0.6-4.5-1.7
		c-0.9-1-1.1-2.5,0-4.3l0.1-0.2c1.1-1.8,3.5,2,4.6,2c0.6,0,1.2-0.1,2-0.3c1.4-0.4,3.1-1,4.9-1.6c0.5-0.2,1.1-0.4,1.6-0.5
		c1.9-0.6,3.8-1,5.5-0.9c0.7,0,1.3,0.2,1.9,0.4c3.1,2.5,3.2,8.8,4.1,12.8c0.2,1,0.5,1.8,0.8,2.4c0.3,0.5,1.9,0.9,3.1,1.4
		c0.8,0.4,1.4,0.9,0.9,1.7c-0.3,0.5-0.6,0.9-0.9,1.3c-1.2,1.2-2.6,1.3-3.9,0.7c-1.1-0.5-2-1.5-2.8-2.8c-0.9-1.6-1.8-3.2-3.2-3.7
		c-0.5-0.2-1-0.3-1.5-0.2c-1.6,0.2-2.2,1.7-3.7,2.3c-0.1,0-0.2,0.1-0.3,0.1c-1.1,0.4-1.5-0.2-1.4-1.2c-0.1,0-0.1,0.1-0.2,0.1
		c-0.9,0.5-1.5,0.3-1.7-1.1C156.8,66.3,157.8,65.1,157.2,63.6z M147.1,62.7c0.4,0,0.9,0.2,1.4,0.8c0.8,0.8,1.6,1.7,2.4,2.7
		c1.3,1.5,2.1,3.1,2.9,4.7c0.6,1.1,1.2,2.2,2,3.3c1,0.1,2,0.2,2.9,0.2c0.5,0,1.1,0,1.6,0c1.6,0,3.1,0,4.8,0.3l0.7,0.2
		c1,0.2,1.9,0.4,2.8,0.7c3.3,0.9,0.4,3.9-2.8,5.2c-1.3,0.5-2.6,0.8-3.6,0.6c-0.6-0.1-1.3-0.2-1.9-0.1c-0.5,0-1.1,0.1-1.6,0.1
		c-1.2,0-2.4,0-3.7-0.7c-0.4-0.2-0.8-0.5-1.2-0.7s-0.7-0.5-1-0.7c-0.7-0.2-1.6-0.8-2.3-1.2c-2-1.3-2.5-3.3-3.4-5
		c-0.2-0.3-0.4-0.7-0.7-1C144.4,69.6,144.8,62.7,147.1,62.7z M147.1,76.8c1.5,1.2,3.4,2.6,4.9,3.7l1.8,0.8c1.7,0.8,3.5,1.6,4.9,2.2
		c0.6,0.3,1.2,0.5,1.6,0.7c0.5,0.2,0.8,0.4,0.8,0.4c0.1,0.2-0.3,0.8-0.8,1.6c-0.6,0.8-1.3,1.9-1.6,2.7c0,0.1-0.1,0.2-0.1,0.3
		c0,0.2,0,0.5,0.1,0.8c0.3,0.9,1,2,1.6,3.1c1.1,2,2,4,0.1,5l-0.1,0.1c-0.6,0.3-1.1,0.3-1.6,0.2c-1.9-0.6-3.5-3.6-4.9-6
		c-0.6-1.1-1.2-2-1.7-2.5c-1-1-2.7-1.7-4.3-2.2c-0.2-0.2-0.4-0.4-0.7-0.6c-1.1-0.9-2.2-1.8-3.3-2.2c-0.7-0.2-1.6-0.2-2.7-0.3
		c-2.1,0-4.8,0-6.6-0.6c-1.2-0.4-2.1-1.1-2-2.4c0-1.3,0.9-1.9,2-2.1c2.2-0.5,5.4,0.2,6.6-0.5c0,0,0.1,0,0.1-0.1
		c1.2-0.9,2.3-4.4,2.8-4.4C144,74.5,145.4,75.5,147.1,76.8z M178.2,135.6c-0.1,0.3-1.3,0.1-2.6,0c-1-0.1-2-0.1-2.6,0.1
		c-0.4,0.2-0.8,0.6-1.3,1.3c-1.5,2.2-3.1,6.3-5.6,4.8c-0.1-0.1-0.3-0.2-0.4-0.3c-1.2-1-0.8-2.7,0-4.6c1.1-2.4,3-5,3.5-6.5
		c0.4-1.4,0.1-3.2-0.3-4.9c0.4-1.6,0.8-3.4,0.4-4.9c-0.4-1.7-2.7-4.8-3.6-7.4c-0.5-1.3-0.6-2.5,0-3.4c0.2-0.3,0.4-0.5,0.8-0.7
		c2.4-1.3,3.8,2.1,5.2,4.4c0.5,0.9,1,1.6,1.5,1.8c0.6,0.2,1.4,0.2,2.3,0.2c1.4-0.1,2.7-0.2,2.8,0s-0.7,6-1.2,10
		C177.6,129.6,178.2,135.5,178.2,135.6z M165.8,118.4c0.7,2.3,0.9,4.8,0.7,7.2c0.2,2.2,0,4.5-0.7,6.6c-0.8,2.6-2.1,4.9-4.2,6.4
		c-0.4,0.3-0.9,0.6-1.3,0.7c-0.5,0.2-1.1,0.3-1.6,0.3c-1.8,0-3.6-1.1-4.9-2.6c-0.4-0.5-0.8-1.1-1.1-1.6c-2-3.8-1.4-7.2,0.6-10
		c-1.9-2.9-2.4-6.2-0.3-9.9c0.2-0.4,0.5-0.9,0.8-1.3c1.3-1.6,3-2.8,4.9-2.9c0.5,0,1.1,0.1,1.6,0.2c0.5,0.2,1.1,0.5,1.6,0.9
		C163.8,113.9,165,116,165.8,118.4z M134.4,122.6c1.3-1.1,3.6-1.9,5.5-1.8c0.4,0,0.7,0,1.1-0.1c1.9-0.5,4.2-2.2,6.1-2.9
		c0.2-0.1,0.4-0.1,0.6-0.2c2.7-0.7,2.4,4.8,2.3,7.8c0.1,3,0.2,8.6-2.5,7.8c-0.1,0-0.3-0.1-0.4-0.1c-1.8-0.7-4.1-2.5-6.1-3.1
		c-0.4-0.1-0.8-0.2-1.2-0.2c-1.8,0.1-4.1-0.8-5.3-2c-0.9-0.8-1.3-1.8-0.6-2.6C133.2,124.3,133.6,123.4,134.4,122.6z M138.1,118
		c-0.1-0.9,1.1-2,2.9-3.3c1.8-1.2,4.1-2.5,6.1-3.5s3.7-1.8,4.3-2.2c0.9-0.5,1.7-0.9,2.4-1.1c1.3-0.4,2-0.4,2.2,0
		c0.3,0.5-0.4,1.5-2.2,2.7c-0.3,0.2-0.7,0.5-1.1,0.7c-0.8,0.5-3.1,1.9-5.6,3.4c-2.1,1.2-4.3,2.4-6.1,3.1
		C139.6,118.2,138.6,118.4,138.1,118z M141,132.8c1.8,0.7,4,2,6.1,3.3c2.4,1.5,4.4,2.9,5.2,3.3c0.6,0.3,1.1,0.7,1.5,1
		c1.5,1.1,2,2,1.8,2.4c-0.2,0.3-0.8,0.4-1.8,0.1c-0.7-0.2-1.7-0.7-2.9-1.3c-0.6-0.4-2.1-1.1-3.8-2.1c-2-1.1-4.2-2.4-6.1-3.6
		c-1.9-1.4-3.3-2.7-3.2-3.6C138.4,132,139.5,132.2,141,132.8z M132.8,87.2c0.5-0.2,1.1-0.4,1.7-0.5c2.1-0.5,4.4-0.3,6.6,0.4
		c1.9,0.6,3.8,1.5,5.4,2.7c0.2,0.1,0.4,0.2,0.6,0.3c2.7,1.4,5.2,3.6,6.7,6.1c0.8,1.3,1.3,2.8,1.5,4.3c0.2,1.8-0.4,3.2-1.5,4.2
		c-1.4,1.3-3.6,1.9-5.7,1.8c-0.3,0-0.7,0-1-0.1c-2.7-0.3-4.7-1.5-6.1-3.3c-0.5-0.6-1-1.4-1.3-2.1c-1.9,0.1-3.7-0.2-5.2-1.1
		c-1.3-0.8-2.5-1.9-3.5-3.6C129,93.1,128.9,88.7,132.8,87.2z M130.1,102c0.4-1.6,2.3-1.1,4.3-0.2c1.3,0.6,2.6,1.5,3.5,2.1
		c0.9,0.5,2,1.1,3,1.8c2.1,1.4,3.8,3,2.5,4.3c-0.6,0.6-1.5,1.1-2.5,1.7c-1.7,1-3.6,2-4.3,3.3c-0.5,0.9-1.3,1.8-2.2,2.5
		c-1.9,1.4-4.1,2-4.7,0.4c-2.5,0.4-2.4-4.8-0.7-7.4C130.3,108.4,129.5,104.2,130.1,102z M129.5,132.3c0.7-1.7,3-0.8,4.9,0.8
		c0.8,0.7,1.5,1.5,1.9,2.3c0.7,1.4,2.9,2.6,4.7,3.6c0.8,0.5,1.5,1,2,1.5c1.2,1.2-0.2,2.6-2,3.8c-1.2,0.8-2.6,1.5-3.6,2
		c-0.8,0.5-1.9,1.2-3,1.7c-2.3,1.1-4.6,1.9-5,0.1c-0.6-2.2,0.4-6.4-0.9-8.4C126.9,137.1,127,131.8,129.5,132.3z M130.1,153.7
		c1.2-1.9,2.7-3.2,4.3-3.9c1.4-0.6,3-0.8,4.6-0.7c0.5-1,1.2-2,2-2.7c1.5-1.4,3.5-2.3,6.1-2.5c0.1,0,0.3,0,0.4,0c2.5,0,5,0.8,6.3,2.6
		c0.7,0.9,1,2.1,0.8,3.6c-0.1,0.9-0.4,1.9-0.8,2.7c-1.3,2.9-3.8,5.3-6.7,7c-0.5,0.3-1,0.6-1.6,0.8c-1.4,0.9-2.9,1.7-4.5,2.3
		c-2.2,0.7-4.4,1.1-6.6,0.8c-0.9-0.1-1.8-0.4-2.7-0.7C127.9,161.4,128.1,157,130.1,153.7z M134.4,166c2-0.3,4.7-0.1,6.6-0.2
		c0.6,0,1.2-0.1,1.6-0.2c1.4-0.4,2.8-1.5,4.1-2.7l0.3-0.1c1.5-0.5,3.1-1,4.1-2c0.8-0.8,1.7-2.4,2.7-4c1.4-2.3,3-4.7,4.9-4.5
		c0.3,0,0.7,0.1,1,0.3s0.5,0.3,0.6,0.5c0.6,0.8,0.5,1.8,0,2.9c-0.4,1-1.1,2-1.6,2.9c-0.6,1.1-1.1,2-1,2.6s0.6,1.4,1,2.2
		c0.7,1.1,1.5,2.2,1.4,2.4c0,0-0.6,0.3-1.4,0.6c-1.2,0.5-3,1.3-4.9,2.1l-3,1.3c-1.1,0.8-2.4,1.8-3.7,2.7c-2.3,1.7-4.4,3.1-4.5,3.1
		c-0.3,0-0.9-1.5-1.6-2.8c-0.3-0.7-0.7-1.3-1.1-1.6c-0.8-0.7-3.4-0.4-5.5-0.5c-1.8-0.1-3.2-0.6-3.2-2.3
		C131.3,167,132.6,166.3,134.4,166z M145,178.6c0.9-1,1.4-2.3,2.1-3.5c0.5-0.9,1.2-1.7,2.2-2.4c0.7-0.4,1.6-0.9,2.3-1.1
		c0.6-0.5,1.4-1,2.2-1.4l0,0c1.6-0.9,3.3-0.7,4.8-0.5c0.5,0,1.1,0.1,1.6,0c0.3,0,0.5,0,0.8-0.1c1.3-0.3,3.1,0.3,4.7,1.3
		c2.6,1.5,4.4,3.9,1.5,4.7c-0.5,0.1-1,0.2-1.5,0.3c-0.7,0.1-1.3,0.3-2,0.4c-1.2,0.2-2.4,0.3-3.5,0.3c-0.5,0-1.1,0-1.6-0.1
		c-1.4-0.1-2.8-0.1-4.3,0c-0.2,0.3-0.4,0.5-0.6,0.8c-1.6,2.4-2.5,4.8-4.5,7c-0.7,0.8-1.5,1.6-2.2,2.4l-0.2,0.2
		C143.4,190.4,142.6,181.2,145,178.6z M147.1,189.8c0.8-0.3,1.8-0.5,2.8-0.5c1.4,0,2.8,0,3.9-0.4c0.8-0.3,1.5-0.8,1.9-1.7
		c0.6-1.5-0.4-2.8-0.2-4.4c0.2-1.4,0.9-1.5,1.8-0.9c0-1,0.3-1.5,1.3-1.2c0.1,0,0.3,0.1,0.5,0.2c0.4,0.2,0.8,0.5,1.1,0.8
		c0.8,0.7,1.4,1.5,2.5,1.7c1.2,0.2,2.2-0.3,3-1.2c0.7-0.7,1.3-1.7,1.8-2.6c1-1.7,2.6-3,4.1-3.1c1.2-0.1,2.5,0.6,3.4,2.4
		c0.8,1.6-2.1,1.9-3.4,2.5c-0.3,0.1-0.5,0.3-0.6,0.4c-1.8,3.1-1.5,12.1-5.3,15.1l0,0c-1.6,0.6-3.5,0.4-5.5-0.1
		c-0.5-0.1-1.1-0.3-1.6-0.5c-1.7-0.6-3.4-1.3-4.9-1.8c-1.4-0.5-2.7-0.9-3.7-0.9c-0.7,0-1.9,1.5-3,2.1c-0.6,0.4-1.2,0.5-1.7-0.2
		C143.7,192.6,144.9,190.6,147.1,189.8z M181,111.7c-1,1.6-3,2.6-5.4,2.3c-0.3,0-0.7-0.1-1-0.2c-1.2-0.3-2.1-1.3-2.9-2.5
		c-1.2-1.6-2.1-3.6-3.5-4.3c-0.3-0.2-1.3-0.2-2.5-0.2c-1.6,0-3.8,0-5.5-0.3c-0.4-0.1-0.8-0.2-1.2-0.3c0.2-0.9,0.7-1.9,1.2-2.9
		c1.2-2.4,2.9-4.8,2.9-5.5c0.1-2.6-3.3-6.1-2.5-9c0.8-2.8,3-4.3,5.1-4.4c2.3,0,4.4,1.7,4.6,5.5c0.1,1.3-3,4.2-3.4,6.2
		c-0.5,2.4,0.6,4,2,4.5c-0.1,1.8,0.3,3.1,2.6,3.9h0.1c1,0.3,2.5,0.2,3.9,0.1c1.3-0.1,2.6-0.2,3.1,0.2c1.1,0.8,1.9,1.6,2.3,2.5
		C181.9,108.9,181.7,110.5,181,111.7z M124.7,75.6c0.3-0.1,0.7-0.3,1-0.5c1.5,1,3.4,1.3,5.3-0.3c1.4-1.2,2.4-4.7,3.5-5.7
		c0.1-0.1,0.2-0.1,0.3-0.2c2.8-1.3,5-0.9,6.3,0.4c1.6,1.6,1.8,4.5,0,6.9c-0.2,0.2-0.4,0.5-0.6,0.7c-1.3,1.3-3.8,1.3-5.9,1.4
		c-1.2,0.1-2.3,0.2-3.1,0.7c-0.9,0.5-3.7,5.5-5.9,7.7c-0.2-0.2-0.5-0.5-0.7-0.8c-2-2.4-4.1-6.5-4.9-7c-1.5-1-4.3-0.7-6.5-1.2
		c-1-0.2-1.9-0.5-2.5-1.2c-0.7-0.8-1.2-1.6-1.5-2.4c-0.4-1.2-0.4-2.5,0-3.6c0.6-1.6,2-2.7,4-2.7c1,0,2.1,0.3,3.3,0.9
		c1.2,0.6,2.2,4.7,3.7,6C121.8,76,123.4,76.1,124.7,75.6z M65.5,75c-3.7-1.6-6.8-3.4-3.6-4.3c1.1-0.3,2.3-0.7,3.6-1
		c1.5-0.5,3.1-1,4.5-1.8c1.3-0.7,2.4-1.6,3.1-2.8c1.4-2.3-1.5-3.7-3.1-5.2c-0.4-0.3-0.7-0.7-0.9-1c-1.5-2.8-0.6-3.6,0.9-4.1
		c1.3-0.4,3.1-0.5,4.4-1.2c0.1,0,0.2-0.1,0.2-0.1c6.1-3.7-0.8-10.3,0.8-15.5c3.6,0.9,5.7,5.5,8.8,7.3c1.2,0.7,2.6,1,4.3,0.3
		c0.2-0.1,0.4-0.2,0.7-0.3c0.4-0.2,0.8-0.5,1.1-0.8c2.2-1.9,3.7-5.2,6.1-1.6c0.1,0.2,0.2,0.3,0.3,0.5c1.1,1.9-0.1,6.6,3.2,6.7
		c1.1,0,2.2-0.3,3.2-0.8c2.2-1,4.3-3,6.1-4.6c0.5-0.4,0.9-0.9,1.4-1.3c4.4-3.9,0.7,10.2,0.7,13c0,2.6,0.8,4,2,4.7
		c2.7,1.5,7.4-0.7,7.6-0.4c1.6,2.3,0.8,7.6,0.7,10.8c0,3.3-1.5-6.2-1.7-6.6c-0.5-1.9-4.1-0.4-6.7-1.6c-1.7-0.7-3-2.6-3-7.1
		c0.1-4.7,1.3-8.4-1.1-7.7c-0.7,0.2-1.7,0.8-3.1,1.9c-1.1,0.8-2.1,1.4-3,1.7c-3.5,1.4-5.3-0.2-6.8-2.2c-1.9-2.7-3-6-6.1-3.4
		c-0.3,0.3-0.6,0.6-0.9,0.9c-0.3,0.3-0.6,0.6-0.9,0.8C87,49.1,85.5,49,84,48.3c-1.5-0.6-3.1-1.8-4.6-3c0.6,4.6,0.8,8.8-3.1,9.5
		c-0.9,0.2-1.5,0.4-2,0.6c-2.5,1.2-1.2,3.3,0,5.7c1,2.2,2,4.6,0,6.8c-0.8,0.9-2.2,1.8-4.2,2.7L70,70.5c-5.7,2.3-3.7,3.2,0,5
		c0.9,0.5,1.9,1,3,1.6c0.5,0.3,1,0.6,1.4,0.9c7.5,5.4-1.1,9.6,1,11.9c0.3,0.3,7.7,6.6,4.8,4.9c-1.6-0.9-3.9-2-5.7-3.2
		c-1.4-0.9-2.6-1.9-3.1-3c-0.1-0.3,1.8-1.6,3.1-3.4c1.2-1.7,1.9-3.7,0-5.7c-0.4-0.5-1-0.9-1.8-1.4c-0.5-0.3-1.5-0.7-2.6-1.2
		C68.7,76.3,67,75.7,65.5,75z M66.3,152.8c-0.2,0-0.4-1.2-0.8-2.7c-0.7-2.4-2.1-5.4-5.5-4.6c-0.6,0.2-1.3,0.4-2.1,0.9
		c-1.2,0.7-4,3.1-6.7,5c-3.1,2.2-5.8,3.6-5.1,0.6c0.8-3.6,2.8-9,0.7-12.6c-1.6-2.8-5.2,0.5-7.4,0.4c-5.9-0.2-1.9-4.1-2-7.5
		c-0.2-7.1-9.3-4.5-13-8.4c3.8-3.8,12.8-1.2,13.2-8.3c0.2-3.4-3.7-7.4,2.1-7.4c2.2,0,5.7,3.4,7.4,0.6c2.1-3.5,0.3-8.9-0.4-12.6
		c-0.6-2.9,1.7-1.8,4.4,0.2c2.8,2,6,5,7.2,5.7c0.6,0.3,1.1,0.6,1.6,0.8c3,1.1,4.6-0.6,5.5-2.6s1.2-4.3,1.5-4.3
		c0.9-0.1,1.9,0.2,3,0.7c1.5,0.7,3,1.7,4.4,2.6c0.8,0.5,1.6,1.1,2.3,1.5c1.5,0.9-0.2,0.4-2.3-0.3C72.4,99.8,70.2,99,70,99h-0.1
		c-1.8-0.3-2.3,3.3-4.5,5c-1.2,0.9-2.9,1.3-5.5,0.2c-0.7-0.3-1.4-0.6-2.2-1.1c-3.2-1.9-5.5-4.1-6.6-3.8c-0.7,0.2-0.9,1.5-0.6,4.5
		c1.6,14.6-14.1,3-10.9,13c1.2,3.8-2.5,5.7-6.8,7.4c4.3,1.8,8,3.7,6.6,7.5c-3.5,9.9,12.5-1.2,10.5,13.3c-0.5,3.8-0.1,4.8,1.1,4.5
		c1.3-0.3,3.4-2.1,6.1-3.6c1-0.6,1.9-1,2.7-1.3c2.8-0.9,4.4-0.2,5.5,1c1.8,1.9,2.3,5,4,4.6c0.1,0,0.2-0.1,0.5-0.2
		c0.9-0.3,2.8-1,4.4-1.5c1.8-0.6,3.1-0.9,1.7-0.1c-0.5,0.3-1.1,0.7-1.7,1c-1.4,0.9-2.9,1.8-4.4,2.5
		C68.7,152.5,67.4,152.9,66.3,152.8z M119.5,189.3c-0.2,0.3-3.5-1.3-6.2-1c-1.9,0.2-3.5,1.5-3.6,5.1c0,2.7,3,15.7-0.5,13.4
		c-0.2-0.1-0.4-0.3-0.6-0.4c-1.6-1.5-3.4-3.5-5.5-5c-1.6-1.1-3.2-1.9-5-1.9c-0.8,0-1.4,0.3-1.8,0.8c-1.1,1.4-0.7,4.4-1.6,5.8
		c-1.9,3-3.1,2.2-4.5,0.8c-0.6-0.6-1.1-1.3-1.8-1.9c-0.4-0.4-0.8-0.7-1.2-0.9c-1.2-0.6-2.2-0.8-3.1-0.7c-3.8,0.4-6.1,5.9-9.8,7.5
		c-0.3,0.1-0.6,0.2-0.9,0.3c-0.6-2.1,0.2-4.3,0.9-6.5c0.9-2.8,1.8-5.6,0-7.8c-0.4-0.4-0.8-0.9-1.5-1.3c-0.9-0.6-1.9-0.8-2.9-1.1
		c-2.4-0.5-4.5-0.9-2.4-4.5c0.4-0.8,1.5-1.5,2.4-2.2c1.4-1.1,2.7-2.2,1.7-3.9c-0.4-0.8-1-1.4-1.7-2c-1.3-1-2.9-1.8-4.5-2.4
		c-1.7-0.6-3.4-1.1-4.9-1.6c-0.3-0.1-0.5-0.2-0.7-0.3c-0.9-0.5-0.8-1.1,0-1.7c1.1-0.9,3.3-1.8,5.5-2.7c1.6-0.6,3.3-1.2,4.5-1.7
		c0.7-0.3,1.2-0.5,1.6-0.7c1.6-0.9,2.5-1.8,2.8-2.8c0.4-0.9,0.3-1.8,0-2.6c-0.9-2.6-4.1-4.8-3.9-5.1c0.6-1.3,2.2-2.4,3.9-3.4
		c1.8-1,3.7-1.9,5.1-2.7c2.9-1.6-4.6,4.4-4.9,4.7c-0.1,0.1-0.1,0.2-0.2,0.3c-0.2,0.4-0.2,0.9,0,1.4c0.8,2.3,4.5,5.6,0,9.4
		c-0.7,0.6-1.5,1.1-2.5,1.7c-0.6,0.4-1.3,0.7-1.9,1c-2.1,1-3.9,1.7-4.5,2.5c-0.3,0.3-0.3,0.7,0,1.1c0.4,0.6,1.5,1.2,3.4,2.1
		c0.4,0.2,0.7,0.3,1.1,0.5c11.2,5.8-4.8,13.1,4.4,15.3c0.1,0,0.2,0.1,0.4,0.1c3.9,0.8,3.7,5,3,9.6c2.3-1.7,4.5-3.2,6.4-3.4
		c1.2-0.1,2.4,0.2,3.4,1.4c0.3,0.4,0.7,0.7,1,1c0.7,0.6,1.3,0.9,1.8,1c2.3,0.3,3.4-4.1,6.1-6c1.5-1.1,3.6-1.3,6.8,0.7
		c0.4,0.3,0.8,0.5,1.2,0.9c6.3,4.9,4.3,0.3,4.4-5.7c0-1.6,0.2-2.9,0.5-3.9c0.8-2.5,2.4-3.2,4-3.5c2.4-0.3,4.8,0.5,5.3-1
		c0.1-0.4,1.9-9.9,1.8-6.6C120.4,181.7,121.1,187,119.5,189.3z M124.7,174.7c-0.1,0.1-0.2,0.1-0.3,0.2c-1.5-1-3.4-1.2-5.2,0.4
		c-1.5,1.3-2.6,5.3-3.8,5.9c-0.7,0.3-1.4,0.6-2,0.7c-1.7,0.3-3.1-0.1-4-0.9c-1.9-1.6-2.1-4.8,0-7.3c0.1-0.2,0.3-0.3,0.4-0.5
		c0.9-0.9,2.2-1.1,3.6-1.3c2-0.2,4.1-0.1,5.5-0.9c0.9-0.5,3.5-5.6,5.8-7.7l0.2,0.2c2.1,2.3,4.6,7.1,5.4,7.6c1.1,0.7,2.7,0.8,4.3,0.9
		c1.8,0.1,3.6,0.3,4.7,1.4c3.9,4,1.2,10.4-4.7,8.3c-0.4-0.1-0.8-0.3-1.2-0.5c-1.2-0.6-2.2-4.7-3.7-6
		C127.9,173.8,126.1,173.9,124.7,174.7z M181,173.6c4.7,1.9,11.2,4.5,7,5.7c-2,0.6-4.7,1.2-7,2.3c-1.8,0.8-3.3,1.9-4.2,3.4
		c-1.7,2.8,3,4.3,4,6.2c0.1,0.1,0.1,0.3,0.2,0.4c0.8,1.7,0.7,2.6,0,3.2c-1.1,0.9-3.6,0.8-5.4,1.7c-0.1,0-0.2,0.1-0.3,0.2
		c-6.1,3.7,0.6,10.4-1,15.6c-1-0.2-1.8-0.8-2.6-1.4c-2.1-1.8-3.8-4.5-6-5.9c-1.4-0.9-3-1.1-5-0.1c-0.2,0.1-0.3,0.2-0.5,0.3
		c-0.6,0.4-1.1,0.9-1.6,1.4c-1.7,1.8-3,3.6-4.9,1.1c-0.2-0.2-0.4-0.5-0.6-0.9c-1.1-1.9,0.1-6.6-3.2-6.7c-1,0-2,0.2-2.9,0.6
		c-2.2,0.9-4.3,2.8-6.1,4.5c-0.6,0.6-1.2,1.1-1.7,1.6c-4.4,3.9-0.7-10.2-0.7-13c0.1-4.1-2-5.2-4.2-5.2c-2.5-0.1-5.3,1.2-5.5,0.9
		c-1.6-2.3-0.8-7.6-0.7-10.8c0-3.3,1.5,6.2,1.7,6.6c0.4,1.4,2.4,1,4.5,1.1c2.6,0.2,5.2,1.2,5.1,7.6c-0.1,4.9-1.4,8.8,1.4,7.6
		c0.7-0.3,1.6-0.8,2.8-1.7s2.3-1.5,3.3-1.9c3.5-1.3,5.3,0.6,6.7,2.7c1.6,2.3,2.6,4.8,4.9,3.7c0.5-0.3,1-0.7,1.6-1.3
		c0.1-0.1,0.2-0.2,0.3-0.3c1.5-1.7,3.3-1.7,5.2-0.8c1.4,0.7,2.9,1.8,4.5,3c-0.5-3.7-0.6-7.2,1.5-8.8c0.5-0.4,1.1-0.6,1.8-0.8
		c0.9-0.2,1.5-0.4,2.1-0.6c2.4-1.2,1.1-3.2,0-5.5c-1.1-2.2-2.1-4.7,0-7c0.8-0.9,2.1-1.8,4.2-2.6c0.5-0.2,0.9-0.4,1.3-0.6
		c3.8-1.8,2.7-2.6,0-4c-1.2-0.6-2.6-1.2-4.1-2.1c-0.5-0.3-0.9-0.6-1.3-0.9c-7.7-5.4,1.1-9.7-1-11.9c-0.1-0.1-1.5-1.3-2.8-2.5
		c-1.9-1.7-3.6-3.4-2-2.4c0.6,0.3,1.3,0.7,2,1.1c1.3,0.7,2.7,1.4,3.9,2.2c1.4,0.9,2.5,1.9,3,3c0.1,0.3-1.7,1.5-3,3.3
		c-1.3,1.7-2.1,3.9,0,5.9c0.4,0.4,1,0.9,1.7,1.3C177.9,172.4,179.3,173,181,173.6z M212.2,134.4c-0.2,3.4,3.7,7.4-2.1,7.4
		c-2.2,0-5.7-3.4-7.4-0.6c-2.1,3.5-0.3,8.9,0.4,12.6c0.6,2.7-1.5,1.8-4.1,0c-2.8-2-6.2-5.1-7.5-5.9c-0.6-0.3-1.1-0.6-1.6-0.8
		c-6-2.2-6.4,6.9-7,6.9s-1.3-0.1-2-0.3c-1.7-0.6-3.7-1.8-5.4-3c-0.8-0.5-1.6-1.1-2.3-1.5c-1.5-0.9,0.2-0.4,2.3,0.3
		c1.9,0.7,4.1,1.5,4.3,1.5c0.5,0.1,0.8,0,1.1-0.3c1.8-1.5,2.5-7.5,9-4.9c0.7,0.3,1.4,0.6,2.2,1.1c3.5,2.1,5.9,4.6,6.9,3.6
		c0.5-0.5,0.6-1.8,0.3-4.4c-1.6-14.6,14.1-3.1,10.9-13c-1.3-3.8,2.5-5.6,6.8-7.3c-4.3-1.8-8-3.8-6.6-7.6c3.5-9.9-12.5,1.2-10.5-13.3
		c0.5-3.5,0.2-4.6-0.8-4.6c-1.2,0.1-3.4,2-6.4,3.7c-1,0.6-1.9,1-2.7,1.3c-6.7,2.2-6.7-5.1-9-5.6c-0.2,0-0.3,0-0.5,0
		c-0.2,0.1-2.9,1-4.9,1.6c-1.8,0.6-3.1,0.9-1.7,0.1c0.5-0.3,1.1-0.7,1.7-1c1.7-1.1,3.6-2.3,5.4-3c1-0.4,1.9-0.6,2.7-0.5
		c0.6,0.1,0.8,8.6,6.3,7.3c0.6-0.2,1.3-0.4,2.1-0.9c1.2-0.7,4.3-3.3,7-5.3c2.9-2.1,5.5-3.3,4.8-0.4c-0.8,3.6-2.7,9-0.7,12.6
		c1.6,2.8,5.2-0.5,7.4-0.4c5.9,0.2,1.9,4.1,2,7.5c0.2,7.1,9.3,4.7,13,8.6C221.7,130.2,212.6,127.3,212.2,134.4z"/>
</g>
</svg>
