<?xml version="1.0" encoding="utf-8"?>
<!-- Generator: Adobe Illustrator 28.1.0, SVG Export Plug-In . SVG Version: 6.00 Build 0)  -->
<svg version="1.1" id="Layer_1" xmlns="http://www.w3.org/2000/svg" xmlns:xlink="http://www.w3.org/1999/xlink" x="0px" y="0px"
	 viewBox="0 0 250 250" style="enable-background:new 0 0 250 250;" xml:space="preserve">
<style type="text/css">
	.st0{opacity:0.58;}
	.st1{fill:#F9AEAA;}
	.st2{fill:#FBA49F;}
	.st3{opacity:0.3;}
	.st4{fill:#FFDDD7;}
	.st5{fill:#FFEFEB;}
	.st6{fill:#EF9C9A;}
</style>
<g class="st0">
	<g>
		<path class="st1" d="M161.4,167.7c-0.2-0.5-0.4-1-0.6-1.5c-0.3-0.7-0.6-1.4-1-2.1c-2.7-5.8-6.5-11.1-10.6-16.1l0,0
			c-2.3-0.3-4.6-1-6.6-2c0.6,6.5-1.5,13.2-7,17.6c-1.6-2.8-4-7.5-4-7.5s-3.1,4.1-5.1,7c-6.7-5.1-8.3-13.1-6.4-20.1
			c-2.1,0.9-4.3,1.5-6.6,1.7c-4.5,2.1-7.9,5.7-10.5,9.9l0,0c-0.9,1.4-1.6,2.9-2.2,4.4c-0.2,0.5-0.4,1.1-0.6,1.6
			c-2.6,6.9-3.3,14.2-3.1,21.5c1.3,9.5,5.4,15.6,7.4,17.2c1.9,1.6,4.4,2.7,6.9,2.4c0.7-0.1,1.4-0.2,2.1-0.1c2.2,0.6,2.4,4,4.5,5.1
			c1.5,0.7,3.3-0.1,4.6-1.2c1.3-1,2.7-2.3,4.3-2.4c3.3-0.2,5.5,4.2,8.8,4c2.1-0.2,4-2.4,6.1-1.7c1.4,0.4,2.2,2.1,3.4,2.8
			c0.9,0.5,2,0.7,3,0.5c8.6-1.8,15.4-14.8,15.8-23.5v-0.1C164.1,179.4,163.4,173.1,161.4,167.7z"/>
	</g>
	<g>
		<path class="st1" d="M215,117.2c-3.7-4.5-7.8-8.1-13.7-10.7l0,0c-6-2.2-12.8-3.5-20-3c-1,0.1-2,0.2-3,0.3
			c-3.2,0.4-6.4,1.2-9.4,2.2l0,0c-5.3,1.8-10.2,4.5-14.7,7.9c-0.8,3.8-2.8,7.3-5.4,10c7,0.9,13.7,5.2,16.5,12.4
			c-3.2,0.6-8.4,1.5-8.4,1.5s3,4.2,5.1,7c-4,2.7-8.3,3.6-12.4,3.1c4.4,5.4,8.5,11.2,11.3,17.7c0.1,0.2,0.2,0.4,0.2,0.6
			c8.8,8.4,21.8,9.7,33.3,6.9c3.7-0.9,7.1-2.1,10.2-3.5l0,0c9.8-5.5,11.7-12.3,11.3-13.1c-0.7-1.5-3.1-1.5-3.7-3.1
			c-0.6-1.9,2.3-3.2,2.8-5.1c0.5-2.4-3-4.7-1.9-7c0.3-0.6,0.9-1,1.3-1.5c1.4-1.5,1.7-3.7,1.3-5.7s-1.4-3.8-2.4-5.6
			c-0.2-0.3-0.4-0.7-0.4-1.1c-0.1-1.2,1.5-1.8,2.7-1.9C221,125.3,216.9,119.5,215,117.2z"/>
	</g>
	<g>
		<path class="st2" d="M224.2,122.6c-2.9-4.4-11.4-11.9-22.9-16.1c6,2.6,10,6.1,13.7,10.7c1.9,2.3,6,8.2,0.3,8.4
			c-1.2,0.1-2.8,0.6-2.7,1.9c0,0.4,0.2,0.7,0.4,1.1c1,1.8,2,3.6,2.4,5.6s0.1,4.2-1.3,5.7c-0.4,0.5-1,0.9-1.3,1.5
			c-1.1,2.3,2.4,4.5,1.9,7c-0.4,2-3.4,3.2-2.8,5.1c0.5,1.5,2.9,1.6,3.7,3.1c0.4,0.8-1.5,7.6-11.3,13.1c16.8-7.4,24.1-19.9,24.9-25.2
			c0-0.3,0.2-0.5,0-0.8c-0.1-0.2-3.1,1.9-8.2,0.3c1.6-1.3,5.5-3,7.1-4.3c-1.5-1.1-3.3-2.8-4.9-3.9c1.1,0,3-0.1,4.2-0.1
			c-0.4-2.2-3.1-5.1-4.7-6.7c1,0.4,4,2.6,5.2,2.5C228.1,131.4,226.2,125.7,224.2,122.6z"/>
	</g>
	<g>
		<path class="st1" d="M181.3,43.5c-0.8-0.5-1.9-0.4-2.7,0.1c-0.6,0.4-1,1.1-1.8,1.4c-1.4,0.5-2.7-1.4-4.2-1.5
			c-1.8-0.2-3.3,2.1-5.1,1.7c-1.8-0.4-2.3-3.1-4.1-3.6c-1.2-0.3-2.3,0.6-3.4,1c-1.9,0.7-4.1,0.2-5.5-1.2c-0.7-0.7-1.3-1.6-2.2-1.7
			c-0.4,0-0.9,0.1-1.3,0.3c-1.8,0.8-3.5,1.9-5,3.3c-0.6,0.5-1.1,1.1-1.8,1.3c-1.6,0.5-3.1-0.8-4.7-1.3c-1.5-0.4-3.1,0.1-4.4,0.9
			c-1.3,0.8-2.4,2-3.4,3.1c-3.4,3.7-12.9,17.6-14.3,26.7c-0.2,2.7-0.2,5.4,0,8.2v0.1c0.2,1.1,0.3,2.2,0.4,3.4c0,0.1,0,0.3,0,0.4
			c0.7,5.4,2.2,10.9,4.7,16.5l0,0c3.6,1.2,6.4,3.5,8.5,6.4c2.9-5.4,8-9.6,14.5-10.5c-0.1,3.2-0.4,8.5-0.4,8.5s4.8-2,7.9-3.4
			c1.4,3.5,1.7,7.1,1,10.3c4.5-3.4,9.5-6.1,14.7-7.9l0,0c3.7-1.4,6.9-3.3,9.6-5.7c7.2-6.1,11.4-15,12.5-24.4
			c0.2-1.3,0.2-3.1,0.2-5.3C189.9,59.1,185.7,46.5,181.3,43.5z"/>
	</g>
	<g>
		<path class="st2" d="M173.9,24.7c0.2,2.9-0.8,5.9-2.7,8.1c-1.1-3-2.3-6-3.7-8.9c-0.3,2.7-1.5,5.2-3.3,7.1
			c-0.3-1.9-0.6-3.8-1.1-5.7c-0.1-0.2-0.1-0.5-0.4-0.6c-0.2-0.1-0.4-0.1-0.6,0c-3.3,0.7-6.5,2.3-9.1,4.4c0.1-2.2,0.4-4.4,1.7-6.2
			c-16.3,4.9-35.6,25-37.4,51.2c1.3-9,10.9-22.9,14.3-26.7c1-1.1,2.1-2.3,3.4-3.1c1.3-0.8,2.9-1.3,4.4-0.9c1.6,0.4,3.1,1.8,4.7,1.3
			c0.7-0.2,1.3-0.8,1.8-1.3c1.4-1.4,3.1-2.5,5-3.3c0.4-0.2,0.8-0.3,1.3-0.3c1,0.1,1.6,1,2.2,1.7c1.4,1.4,3.7,1.9,5.5,1.2
			c1.1-0.4,2.2-1.3,3.4-1c1.8,0.4,2.3,3.2,4.1,3.6c1.8,0.4,3.3-1.9,5.1-1.7c1.5,0.2,2.7,2,4.2,1.5c0.7-0.2,1.1-1,1.8-1.4
			c0.8-0.5,1.9-0.6,2.7-0.1c4.4,3,8.6,15.6,9.8,27.2C190.8,58.6,186.8,35,173.9,24.7z"/>
	</g>
	<g>
		<path class="st2" d="M102.9,53.6C94.2,45.4,82,40.4,70.3,43.1c-3.3,0.8-6.5,2.2-9.3,4.2c-0.2,0.2-0.5,0.4-0.6,0.6
			c-0.2,0.4,0,0.9,0.1,1.3c1.3,3.5,1.8,7.6,0.4,11.1c-1.8-1.2-3.4-2.6-4.9-4.2c-0.8,4.1-0.9,8.4-0.4,12.5c-2.3-1.9-3.7-4.9-3.8-7.9
			c-6.4,18.9,1.1,33.9,13.1,44.5c-5.5-5.5-9.6-15.5-8.4-20.1c0.4-1.6,1-3.3,2.4-4.3c1.9-1.4,4.9-1.7,5.6-3.9c0.7-2.3-1.7-5.1-0.2-7
			c1-1.3,3.1-1.1,4.2-2.2c1.3-1.4,0.6-4,1.9-5.4c0.8-0.8,2.2-0.9,3.2-1.5c1.8-1.2,1.6-3.9,2.3-6c0.7-2.2,2.5-3.8,4.6-4.8
			s4.4-1.2,6.6-1.3C91,48.5,98.6,50,102.9,53.6z"/>
	</g>
	<g>
		<path class="st1" d="M110.4,62.8c-2-3.3-4.5-6.4-7.4-9.2c-4.3-3.6-11.9-5.2-15.8-5c-2.3,0.1-4.6,0.3-6.6,1.3
			c-2.1,0.9-3.9,2.6-4.6,4.8c-0.7,2.1-0.5,4.8-2.3,6c-1,0.7-2.4,0.7-3.2,1.5c-1.4,1.4-0.6,4-1.9,5.4c-1.1,1.2-3.2,0.9-4.2,2.2
			c-1.5,1.9,0.9,4.7,0.2,7c-0.7,2.2-3.7,2.5-5.6,3.9c-1.3,1-2,2.7-2.4,4.3c-1.2,4.7,2.9,14.6,8.4,20.1l0,0c3.3,2.9,7,5.5,10.9,7.6
			c3.9,2.3,8,4.1,12.1,5.6l0,0c7.4,2.7,14.5,4,20.3,3.8c1.6-0.5,3.2-0.9,4.8-1.1c-2.8-4.3-4-9.6-2.5-14.9c2.7,1.3,7.1,3.5,7.1,3.5
			s0.2-4.8,0.1-8c1.7,0.1,3.3,0.4,4.8,0.9c-2.4-5.6-3.9-11.2-4.7-16.5c-0.2-1.3-0.3-2.6-0.4-3.8v-0.1c-0.2-1.2-0.4-2.4-0.7-3.5
			C115.5,73,113.2,67.6,110.4,62.8z"/>
	</g>
	<g>
		<path class="st1" d="M108.2,122.2c-5.7,0.1-12.9-1.2-20.3-3.8l0,0c-4.5-1.5-10.6-1.9-17.2-0.9c-10.2,1.4-21.5,5.9-29.7,13.3l0,0
			c-5.1,6.6-5.5,12.5-3.6,14.8c0.5,0.7,1.2,1.2,1.5,2c0.5,1.3-0.3,2.7-0.5,4.2c0,0.3,0,0.6,0.1,0.9c0.4,1.3,2.3,1.3,3.5,2
			c1.9,1,2.4,3.5,2.5,5.6c0.1,2.2,0,4.6,1.5,6.1c0.9,0.9,2.2,1.4,2.6,2.6c0.4,1.2-0.4,2.5-0.4,3.8c-0.1,1.2,0.6,2.4,1.4,3.3
			c0.9,0.9,2,1.5,3.1,2c8.2,4.1,17.4,4.2,25.8,0.9c6-3.4,11.1-7.8,15.2-12.2c4-4.4,7.1-8.8,9.3-12.3l0,0c2.4-4,5.7-7.5,9.9-9.7
			c0.2-0.1,0.4-0.2,0.5-0.3c-0.1,0-0.3,0-0.4,0c-4.8,0.4-9.8-0.9-13.9-4.2c2.4-2.1,6.6-5.5,6.6-5.5s-4.7-2.2-7.9-3.6
			C100.2,126.7,104,123.7,108.2,122.2z"/>
	</g>
	<g>
		<path class="st2" d="M49.6,176.1c-0.9-0.9-1.5-2-1.4-3.3s0.8-2.6,0.4-3.8c-0.4-1.2-1.8-1.7-2.6-2.6c-1.5-1.6-1.5-4-1.5-6.1
			c-0.1-2.2-0.5-4.7-2.5-5.6c-1.2-0.6-3.1-0.6-3.5-2c-0.1-0.3-0.1-0.6-0.1-0.9c0.2-1.4,0.9-2.8,0.5-4.2c-0.3-0.8-1-1.4-1.5-2
			c-1.9-2.3-1.5-8.2,3.6-14.8c-9.1,8.4-14.4,20.5-9.9,36.7c0.7-1.6,1.7-2.7,3.2-3.6c0.1,2.6,0.4,5.1,0.9,7.6
			c0.9-0.8,3.5-2.2,4.3-2.9c0.3,3.2,0.1,6.8-2.3,10.2c-0.1,0.1,0,0.2,0,0.3s0.1,0.1,0.2,0.2c1.1,0.5,2.3,1,3.4,1.5
			c-1.6,0.8-3.4,1.3-5.1,1.5c17.6,6,31.8,3.1,42.8-3.1c-8.5,3.3-17.7,3.2-25.8-0.9C51.6,177.6,50.5,177,49.6,176.1z"/>
	</g>
	<g>
		<path class="st2" d="M163.9,185.3c-0.4,8.7-7.2,21.7-15.8,23.5c-1,0.2-2.1,0-3-0.5c-1.3-0.8-2-2.4-3.4-2.8
			c-2.1-0.6-3.9,1.6-6.1,1.7c-3.3,0.3-5.5-4.2-8.8-4c-1.7,0.1-3,1.3-4.3,2.4c-1.3,1-3.1,1.9-4.6,1.2c-2.1-1-2.2-4.5-4.5-5.1
			c-0.7-0.2-1.4,0-2.1,0.1c-2.5,0.2-5-0.8-6.9-2.4c-1.9-1.6-6-7.7-7.4-17.2c0.2,9.3,2.6,19.6,8,27.3c4.2,6.1,10.8,10.5,10.7,9.7
			c-0.3-2.3-0.9-4,0.3-6.2c1.3,4.4,5.8,9.8,8.2,9.1c1.2-0.3-0.3-4.7,4.4-8.6c2.3,3.8,0.1,8.6,2.4,8.1c2.6-0.5,4-2.4,5.4-4.4
			c0.1,1.6,0.1,3.1,0.2,4.7c0,0.2,0,0.5,0.1,0.7c0.3,0.6,1.1,0.5,1.7,0.3c7.1-2,13.5-6.4,17.5-12.6
			C160.8,202.8,163.6,194.1,163.9,185.3z"/>
	</g>
	<g class="st3">
		<path class="st4" d="M159.8,164.1c-2.7-5.8-6.5-11.1-10.6-16.1l0,0c-2.3-0.3-4.6-1-6.6-2c0.6,6.5-1.5,13.2-7,17.6
			c-1.6-2.8-4-7.5-4-7.5s-3.1,4.1-5.1,7c-6.7-5.1-8.3-13.1-6.4-20.1c-2.1,0.9-4.3,1.5-6.6,1.7c-4.5,2.1-7.9,5.7-10.5,9.9l0,0
			c-0.9,1.4-1.6,2.9-2.2,4.4c-0.2,2.5,0,5.1,0.9,7.5c2.1,5.8,8.7,9.3,14.8,8.5c2.6-0.3,5.2-1.3,7.8-0.7c2.3,0.5,4.1,2.2,6.2,3.2
			c2.9,1.4,6.5,1.2,9.3-0.3c1.3-0.7,2.4-1.6,3.8-2.2c3.4-1.5,7.5-0.3,10.9-1.8c3.3-1.4,5.3-5.1,5.5-8.7
			C159.8,164.3,159.8,164.2,159.8,164.1z"/>
	</g>
	<g class="st3">
		<path class="st4" d="M179.1,103.9c-0.3-0.1-0.6-0.1-0.9-0.2c-3.2,0.4-6.4,1.2-9.4,2.2l0,0c-5.3,1.8-10.2,4.5-14.7,7.9
			c-0.8,3.8-2.8,7.3-5.4,10c7,0.9,13.7,5.2,16.5,12.4c-3.2,0.6-8.4,1.5-8.4,1.5s3,4.2,5.1,7c-4,2.7-8.3,3.6-12.4,3.1
			c4.4,5.4,8.5,11.2,11.3,17.7c3.7,1.4,7.5,2,11.3,1.3c6.6-1.3,11.4-7.8,11.6-14.5c0.1-2.9-0.6-5.8,0.5-8.5c0.9-2.4,3.1-4.1,4.5-6.2
			c1.9-2.9,2.4-6.8,1.2-10.1c-0.5-1.5-1.4-2.9-1.8-4.4c-1-3.9,0.9-8.1-0.1-12C186.7,107.4,183,104.7,179.1,103.9z"/>
	</g>
	<g class="st3">
		<path class="st4" d="M179.5,85c-1.7-5.6-8-7.8-13.4-7.5c-2.6,0.1-5.2,0.8-7.6-0.1c-2.5-1-4.3-3.6-7-4.1c-2.2-0.4-3.4,0.7-5.2,1.5
			s-3.6,1.2-5.5,1.4c-3.7,0.3-7.3-0.6-10.9-1.3c-4.2-0.9-7.7,1.2-9.8,4.8c-1.1,1.9-1.8,4-2.3,6c0,0.1,0,0.3,0,0.4
			c0.7,5.4,2.2,10.9,4.7,16.5l0,0c3.6,1.2,6.4,3.5,8.5,6.4c2.9-5.4,8-9.6,14.5-10.5c-0.1,3.2-0.4,8.5-0.4,8.5s4.8-2,7.9-3.4
			c1.4,3.5,1.7,7.1,1,10.3c4.5-3.4,9.5-6.1,14.7-7.9l0,0c3.7-1.4,6.9-3.3,9.6-5.7C180.5,95.6,181.1,90.3,179.5,85z"/>
	</g>
	<g class="st3">
		<path class="st4" d="M117.1,80.8c-0.2-1.4-1-2.6-2.3-3.3l0,0c-1.6-0.9-3.6-1.6-5.3-0.9c-2,0.9-2.7,3.3-4.3,4.8
			c-3.2,3-9.1,1.6-11.9,5c-1.4,1.7-1.6,4.2-3.2,5.7c-1.4,1.3-3.6,1.5-5.2,2.5c-2,1.2-3.2,3.6-3,5.9c0.1,1.1,0.5,2.4-0.1,3.3
			c-0.5,0.7-1.3,1.3-2.1,1.4c-4.4,0.4-6,4.9-3.9,7.4c0,0,0,0.1,0,0.2c3.9,2.3,8,4.1,12.1,5.6l0,0c7.4,2.7,14.5,4,20.3,3.8
			c1.6-0.5,3.2-0.9,4.8-1.1c-2.8-4.3-4-9.6-2.5-14.9c2.7,1.3,7.1,3.5,7.1,3.5s0.2-4.8,0.1-8c1.7,0.1,3.3,0.4,4.8,0.9
			c-2.4-5.6-3.9-11.2-4.7-16.5c-0.2-1.3-0.3-2.6-0.4-3.8v-0.1C117.3,81.8,117.2,81.3,117.1,80.8z"/>
	</g>
	<g class="st3">
		<path class="st4" d="M108.2,122.2c-5.7,0.1-12.9-1.2-20.3-3.8l0,0c-4.5-1.5-10.6-1.9-17.2-0.9c-2,1.1-3.8,2.7-5.2,4.5
			c-1.8,2.4-3.2,5.7-1.7,8.3c1.3,2.2,4.1,2.9,6.6,3.7c2.5,0.7,5.3,2.1,5.7,4.7c0.3,2-1,4-0.4,5.9c0.7,2.4,3.7,3,5.5,4.8
			c3.3,3.3,1.1,9.3,3.7,13.2c0.8,1.2,2,2.1,3.3,2.8c1.7,0.9,3.6,1.6,5.5,1.6c4-4.4,7.1-8.8,9.3-12.3l0,0c2.4-4,5.7-7.5,9.9-9.7
			c0.1-0.1,0.1-0.2,0.1-0.2c-4.8,0.4-9.8-0.9-13.9-4.2c2.4-2.1,6.6-5.5,6.6-5.5s-4.7-2.2-7.9-3.6C100.2,126.7,104,123.7,108.2,122.2
			z"/>
	</g>
	<g>
		<g>
			<path class="st5" d="M124.3,131.1c-3.7,6.6-7.7,12.7-9.3,20.2c-1.4,6.6-0.7,12.6,1.2,18.6c0.2,0.2,0.4,0.4,0.6,0.6
				c1.6,0.7,2.8,2.4,3.5,4c0.8,1.7,1.6,4,0.7,5.8c-0.9,1.9-3.1,2.5-4.9,1.5c-2.1-1.1-3.9-3.8-4.4-6.5c-0.1-0.5-0.2-0.9-0.2-1.4
				c0-0.3,0-0.7,0.1-1c0.1-0.7,0.3-1.4,0.6-2c0.3-0.5,0.6-0.8,1-1.1c-4.9-13,0.2-30.4,9.3-39.9C123.4,129.3,124.9,130.2,124.3,131.1
				z"/>
		</g>
		<g>
			<path class="st5" d="M145.7,156.3c1.3,6.3,1.7,13.6-1.4,19.4c0.2,0.4,0.3,0.8,0.4,1.2c0.6,2.8-1.4,7.6-4.9,7.1
				c-1.8-0.2-2.6-2.3-2.7-3.9c-0.1-1.7,0.4-3.4,1.5-4.7c0.4-0.5,0.9-0.8,1.4-1c0.5-0.3,1.1-0.5,1.7-0.5c0.5,0,0.9,0.1,1.2,0.3
				c2.5-6.1,1.5-13.6-0.1-19.7c-2.1-7.5-6-13.8-11-19.7c-0.8-0.9,0.7-2.2,1.6-1.4C139.8,139.5,144,147.8,145.7,156.3z"/>
		</g>
		<g>
			<path class="st5" d="M182.4,158.2c-1.4,0.9-3.2,1.5-4.9,1.6c-1.8,0.5-3.8,0.5-5.2-1c-0.1-0.1-0.2-0.3-0.3-0.4
				c-8.4,0.6-16.1-4.5-22.2-10c-7.2-6.5-13.3-15-15.9-24.5c-0.3-1.2,1.3-1.7,1.8-0.6c6.2,14.1,18.6,32.6,35.9,33.2
				c0.3-1.2,1.5-2.2,2.8-2.9c2.3-1.1,5.2-1.3,7.6-0.3C184.5,154.3,184.7,156.8,182.4,158.2z"/>
		</g>
		<g>
			<path class="st5" d="M188.7,118c-0.5,2.3-3.8,2.7-5.7,2.2c-0.4-0.1-0.8-0.2-1.2-0.4c-1.6-0.4-3-1.5-2.9-3.2c0-0.1,0-0.2,0-0.3
				c-13.8-1.1-26.3,4.6-35.4,14.9c-0.6,0.7-1.6-0.2-1.1-1c8.1-11.9,23.3-17.9,37.4-16c1.4-1.5,4.1-1.4,5.8-0.3c0,0,0,0,0.1,0
				C187.4,114.6,189.1,116.2,188.7,118z"/>
		</g>
		<g>
			<path class="st5" d="M141.2,69.4c0.5,2.8-0.6,5.8-2.5,7.9c-1.2,1.3-2.5,1.6-3.6,1.2c-6,12.7-4.9,26.4,1.5,39.1
				c0.4,0.9-0.7,1.7-1.3,0.9c-8.8-11.6-8.9-28.9-2.2-41.5c-0.4-0.5-0.6-1.1-0.8-1.8c-0.8-2.9,0.4-6.9,3.1-8.5c1.5-0.8,2.9-0.7,3.9,0
				C140.3,67.2,141,68.1,141.2,69.4z"/>
		</g>
		<g>
			<path class="st5" d="M168.4,71c0.4,1.8,0.7,4.3-0.4,5.9c-0.1,0.2-0.2,0.3-0.4,0.4c-0.2,0.3-0.4,0.5-0.7,0.7
				c-0.1,0.1-0.2,0.2-0.3,0.2c0.8,15.2-11.9,29.8-23.7,37.7c-0.8,0.5-1.5-0.6-0.8-1.2c11.2-8.7,21.9-21.5,22.3-36.2
				c-0.2-0.1-0.5-0.2-0.7-0.3c-2-1.3-3.1-4.1-3.4-6.4c-0.2-1.7-0.2-3.8,1-5.2c0.6-0.7,1.4-1,2.1-1c0.6-0.1,1.1,0,1.6,0.2
				C167.1,66.6,168,69.2,168.4,71z"/>
		</g>
		<g>
			<path class="st5" d="M99.7,82.6L99.7,82.6c10.9,8.7,18.8,20.9,21.2,34.7c0.2,0.9-1.4,1.2-1.6,0.3c-3.6-13.1-10.6-24.5-20.9-32.9
				c-2.4,0.8-5,0.5-7.1-1.1c-1.9-1.4-4.2-4.7-2.6-7c1.5-2.3,5.3-1.9,7.4-0.9c2.2,1,5,4,3.8,6.7C99.8,82.4,99.7,82.5,99.7,82.6z"/>
		</g>
		<g>
			<path class="st5" d="M118.3,119.6c-12-0.9-24.2-6.1-32.9-14.6c-0.1,0-0.2,0-0.3,0c-0.4,0-0.8-0.1-1.2-0.2c-0.1,0-0.3-0.1-0.4-0.1
				c-2.9,0.5-5.9-3.4-6.9-5.7c-1.3-3.2,0.8-6.4,4.4-5.8c3.2,0.6,6.7,3.9,7.1,7.1c0.2,1.2-0.2,2.4-0.8,3.2
				c8.8,7.7,19.3,12.6,31.4,13.9C120.1,117.7,119.6,119.7,118.3,119.6z"/>
		</g>
		<g>
			<path class="st5" d="M112.4,126.8c-2.5,14.5-13.9,27.4-27.8,32.5l-0.1,0.1c0,0.2-0.1,0.3-0.2,0.5c-1.9,2.6-8.7,7.9-11.5,3.6
				c-3.5-5.3,8-10.9,11.6-7.4c0.1,0.1,0.2,0.3,0.3,0.4c5.1-2.1,9.8-5,13.9-9.2c4.5-4.5,7.5-9.8,9.6-15.5c-8.1-3.1-16.9-3.9-25.4-2.3
				c-5.6,1.1-12.5,3.3-17.1,7.5c-0.3,0.4,0.4,2,0.5,2.4c0.2,3.2-0.8,7.6-4.3,8.6c-2.6,0.7-4.9-1.2-5.6-3.5c-0.8-2.8,0.7-5.8,2.6-7.7
				c1.1-1.1,2.1-1,3.5-1.5c0.5-0.2,1-0.2,1.4-0.2l0,0c0.3-0.1,0.5,0,0.7,0.1c4.5-4,11-6.4,16.4-7.7c9.4-2.2,19.2-1.5,28.2,2.1
				c0.4-1.1,0.7-2.2,1.1-3.4C110.5,125,112.6,125.4,112.4,126.8z"/>
		</g>
	</g>
	<g>
		<g>
			<path class="st4" d="M131.6,129.7c-1.4,6.1-5.9,10.8-11.5,13.2c-1.9,7-0.3,15,6.4,20.1c2-2.8,5.1-7,5.1-7s2.4,4.7,4,7.5
				c5.5-4.4,7.6-11.2,7-17.6C136.3,142.7,131.6,136.4,131.6,129.7z"/>
		</g>
		<g>
			<path class="st4" d="M165,136.4c-2.8-7.2-9.4-11.5-16.5-12.4c-4.5,4.6-11,7.1-17,5.8c6.5,2.9,10.3,9.4,11,16.2
				c2.1,1.1,4.3,1.8,6.6,2l0,0c4.1,0.5,8.5-0.4,12.4-3.1c-2.1-2.7-5.1-7-5.1-7S161.9,137,165,136.4z"/>
		</g>
		<g>
			<path class="st6" d="M131.6,129.7c0,6.7,4.7,13,11,16.2C141.9,139.1,138.1,132.6,131.6,129.7z"/>
		</g>
		<g>
			<path class="st4" d="M153,103.7c-3.1,1.5-7.9,3.4-7.9,3.4s0.3-5.3,0.4-8.5c-6.5,0.9-11.6,5.2-14.5,10.5
				c4.3,6.2,4.9,14.9,0.7,20.5c4.3-4.7,10.7-6.5,16.9-5.7c2.7-2.7,4.7-6.2,5.4-10C154.6,110.7,154.4,107.2,153,103.7z"/>
		</g>
		<g>
			<path class="st6" d="M148.5,124c-6.2-0.8-12.6,1-16.9,5.7c0,0,0,0,0,0.1l0,0C137.5,131,144,128.5,148.5,124z"/>
		</g>
		<g>
			<path class="st4" d="M130.9,109.1c-2-2.9-4.9-5.2-8.5-6.4l0,0c-1.5-0.5-3.1-0.8-4.8-0.9c0,3.2-0.1,8-0.1,8s-4.4-2.2-7.1-3.5
				c-1.5,5.3-0.3,10.6,2.5,14.9c6.9-0.7,14,2,17.8,7.3C127.3,122.5,127.7,115.1,130.9,109.1z"/>
		</g>
		<g>
			<path class="st6" d="M130.9,109.1c-3.2,6-3.6,13.4-0.2,19.3l0,0c0.3,0.4,0.6,0.9,0.8,1.3c0,0,0,0,0.1-0.1
				C135.8,124,135.2,115.3,130.9,109.1z"/>
		</g>
		<g>
			<path class="st4" d="M131.6,129.7c-7.4,1.4-14.6-2.5-18.6-8.6c-1.6,0.2-3.2,0.5-4.8,1.1c-4.2,1.5-8,4.5-10.3,9.2
				c3.2,1.3,7.9,3.6,7.9,3.6s-4.1,3.3-6.6,5.5c4.2,3.4,9.3,4.7,14.3,4.2c2.3-0.2,4.5-0.8,6.6-1.7
				C121.7,136.9,125.9,131.6,131.6,129.7z"/>
		</g>
		<g>
			<path class="st6" d="M131.6,129.7c-5.7,1.9-9.9,7.2-11.5,13.2C125.7,140.6,130.2,135.9,131.6,129.7z"/>
		</g>
		<g>
			<path class="st6" d="M131.6,129.7c-0.3-0.4-0.5-0.9-0.8-1.3l0,0c-3.8-5.2-10.9-7.9-17.8-7.3C117,127.2,124.2,131.2,131.6,129.7z"
				/>
		</g>
	</g>
</g>
</svg>
