<?xml version="1.0" encoding="utf-8"?>
<!-- Generator: Adobe Illustrator 28.1.0, SVG Export Plug-In . SVG Version: 6.00 Build 0)  -->
<svg version="1.1" id="Layer_1" xmlns="http://www.w3.org/2000/svg" xmlns:xlink="http://www.w3.org/1999/xlink" x="0px" y="0px"
	 viewBox="0 0 250 250" style="enable-background:new 0 0 250 250;" xml:space="preserve">
<style type="text/css">
	.st0{opacity:0.81;}
	.st1{fill:#FFFFFF;}
	.st2{opacity:0.3;}
	.st3{fill:#FFE9E7;}
	.st4{fill:#FFCFCF;}
	.st5{fill:#FFB7B1;}
</style>
<g class="st0">
	<g>
		<path class="st1" d="M181.7,160.4c4,0.9,8.2,1.2,12.4,0.9c5.9-0.7,12.6-5.4,15.3-8.5c1.6-1.8,3-3.8,3.8-6c0.8-2.3,0.8-4.9-0.4-7
			c-1.1-2-3.3-3.8-3-6.1c0.2-1.2,1.2-2.3,1.1-3.6c0-2-2.6-3.3-2.7-5.4c-0.1-1.7,1.6-3.1,1.3-4.8c-0.4-2.5-4.3-2.7-5.5-4.9
			c-1.2-2.2,0.8-4.7,1-7.1c0.2-1.7-0.6-3.4-1.6-4.9c-2.8-4.3-13.3-8.3-21.5-8.1l0,0c-4.6,0.5-9.3,1.4-13.7,2.8
			c-4.6,1.4-8.9,3.2-13,5.3l0,0c-7.4,3.7-13.5,8.3-17.6,12.8c-0.7,1.6-1.6,3.1-2.7,4.4c5.3,0.9,10.2,3.9,13.2,8.8
			c-2.9,1.2-7.8,2.9-7.8,2.9s3.6,3.6,6.1,5.9c-1.3,1.3-2.7,2.3-4.1,3.1c6.1,2.2,11.4,5,16.1,8.3c1.1,0.8,2.2,1.6,3.2,2.4l0.1,0.1
			c1,0.7,2.1,1.4,3.2,2C170.2,157,176,159.2,181.7,160.4z"/>
	</g>
	<g class="st2">
		<path class="st3" d="M163,152.6c1.2,0.8,2.7,1.1,4.2,0.6l0,0c1.9-0.6,3.9-1.6,4.5-3.4c0.8-2.2-0.5-4.5-0.5-6.8
			c0-4.6,5.3-8.2,4.7-12.8c-0.3-2.3-2.1-4.3-2.1-6.6c0-2,1.4-3.8,1.8-5.8c0.5-2.4-0.4-5-2.4-6.5c-0.9-0.7-2.2-1.3-2.5-2.5
			c-0.2-0.9-0.1-1.9,0.5-2.7c2.9-3.6,0.6-8.2-2.9-8.3c-0.1,0-0.1-0.1-0.1-0.1c-4.6,1.4-8.9,3.2-13,5.3l0,0
			c-7.4,3.7-13.5,8.3-17.6,12.8c-0.7,1.6-1.6,3.1-2.7,4.4c5.3,0.9,10.2,3.9,13.2,8.8c-2.9,1.2-7.8,2.9-7.8,2.9s3.6,3.6,6.1,5.9
			c-1.3,1.3-2.7,2.3-4.1,3.1c6.1,2.2,11.4,5,16.1,8.3c1.1,0.8,2.2,1.6,3.2,2.4l0.1,0.1C162.1,152.1,162.6,152.4,163,152.6z"/>
	</g>
	<g>
		<path class="st1" d="M64.3,123.9c0.5,0.2,1.1,0.4,1.6,0.6c0.8,0.3,1.5,0.6,2.3,0.8c6.4,2.1,13.3,3,20,3.5l0,0
			c1.9-1.6,4.1-2.8,6.4-3.6c-5.4-4.2-9.1-10.7-8.5-18.1c3.3,0.8,8.7,2.3,8.7,2.3s-0.9-5.4-1.7-8.9c8.8-1.5,16.1,3.1,20.1,9.6
			c0.8-2.2,2-4.4,3.5-6.3c1.6-5,1.3-10.2-0.1-15.2l0,0c-0.5-1.7-1.1-3.3-1.8-4.9c-0.2-0.5-0.5-1.1-0.8-1.6
			c-3.4-7-8.5-12.8-14.3-17.9c-8.3-5.9-15.9-7.1-18.6-6.8c-2.6,0.3-5.2,1.5-6.9,3.6c-0.4,0.6-0.8,1.2-1.4,1.6
			c-2,1.3-4.8-1.1-7.1-0.2C64,63,63.4,65,63.3,66.8c-0.2,1.7-0.2,3.7-1.3,5c-2.2,2.6-7.2,1.2-9.4,3.9c-1.4,1.8-1.1,4.8-3,5.9
			c-1.4,0.8-3.1,0.2-4.7,0.6c-1.1,0.3-2,1-2.6,1.9c-4.9,7.9,0.3,22.5,6.6,29.1l0.1,0.1C53.4,117.5,58.7,121.5,64.3,123.9z"/>
	</g>
	<g>
		<path class="st1" d="M64.4,201.6c6.2,0.4,11.8-0.1,18.1-2.9l0,0c6-3,11.9-7.3,16.8-13.2c0.7-0.8,1.3-1.7,2-2.5
			c2-2.8,3.7-5.8,5.1-8.9l0,0c2.4-5.4,3.9-11.1,4.5-17c-2.4-3.3-3.6-7.4-3.7-11.4c-5.8,4.7-13.9,6.8-21.4,3.7
			c1.8-2.9,4.9-7.5,4.9-7.5s-5.4-0.8-9-1.2c0.8-5,3.2-9,6.6-11.8c-7.3-0.5-14.8-1.6-21.7-4.1c-0.2-0.1-0.4-0.1-0.6-0.2
			c-12.8,0.7-23.2,9.7-29.3,20.6c-2,3.5-3.5,7-4.7,10.3l0,0c-2.8,11.5,1,17.9,1.9,18.2c1.6,0.5,3.4-1.3,5-0.6c1.9,0.9,0.7,4.1,2,5.8
			c1.5,2.2,5.8,1.1,6.7,3.6c0.3,0.7,0.2,1.4,0.2,2.1c0.2,2.1,1.7,4,3.5,5.1s3.9,1.6,6,2.2c0.4,0.1,0.8,0.2,1.1,0.5
			c1,0.8,0.3,2.4-0.5,3.4C53.8,200.3,61.3,201.4,64.4,201.6z"/>
	</g>
	<g>
		<path class="st4" d="M53.6,204.7c5.5,1,17.4-0.1,28.9-6c-6.3,2.7-11.9,3.3-18.1,2.9c-3.1-0.2-10.6-1.3-6.7-5.9
			c0.8-1,1.5-2.6,0.5-3.4c-0.3-0.3-0.7-0.4-1.1-0.5c-2.1-0.5-4.2-1-6-2.2c-1.8-1.1-3.3-3-3.5-5.1c-0.1-0.7,0-1.4-0.2-2.1
			c-1-2.5-5.2-1.4-6.7-3.6c-1.2-1.8,0-4.9-2-5.8c-1.6-0.7-3.3,1.1-5,0.6c-0.9-0.3-4.7-6.6-1.9-18.2c-6.5,18.2-2.1,32.9,1.4,37.3
			c0.2,0.2,0.3,0.5,0.6,0.6s0.8-3.7,5.7-6.5c-0.2,2.2-1.6,6.4-1.8,8.5c2-0.4,4.6-0.5,6.5-0.9c-0.8,0.9-2.1,2.4-2.9,3.3
			c2,1.3,6.2,1.3,8.5,1.2c-1.1,0.5-4.9,1.2-5.7,2.1C44,201.4,49.8,204,53.6,204.7z"/>
	</g>
	<g>
		<path class="st1" d="M145.3,228.9c0.9-0.2,1.7-1.1,1.9-2.1c0.2-0.8-0.1-1.6,0.2-2.3c0.7-1.5,3-1,4.2-2.1c1.5-1.3,0.8-4.1,2.3-5.2
			c1.6-1.1,4.1,0.5,5.7-0.6c1.1-0.7,1.2-2.1,1.7-3.3c0.8-1.9,2.8-3.3,4.9-3.4c1,0,2.2,0.2,2.9-0.5c0.3-0.3,0.5-0.8,0.7-1.2
			c0.7-2,1.1-4.1,1.1-6.2c0-0.8,0-1.7,0.3-2.4c0.8-1.6,2.9-1.8,4.4-2.7c1.4-0.9,2.2-2.4,2.5-4s0.2-3.3,0.1-4.9
			c-0.4-5.3-4.2-22.7-10.2-30.2c-1.9-2.1-4-4.1-6.3-5.9c0,0-0.1,0-0.1-0.1c-1-0.7-1.9-1.4-2.9-2.1c-0.1-0.1-0.2-0.2-0.4-0.3
			c-4.6-3.3-10-6.1-16.1-8.3l0,0c-3.5,1.9-7.3,2.4-11,1.9c2.1,6.1,1.6,13.1-2.4,18.7c-2.4-2.4-6.3-6.4-6.3-6.4s-2,5.1-3.1,8.5
			c-3.8-1.5-6.6-3.8-8.6-6.7c-0.6,5.9-2.1,11.7-4.5,17l0,0c-1.6,3.8-2.4,7.7-2.6,11.5c-0.5,10,3.4,19.6,9.7,27.2
			c0.9,1,2.2,2.4,3.9,3.9C127.1,224.3,139.8,230.1,145.3,228.9z"/>
	</g>
	<g>
		<path class="st4" d="M165.1,236.8c-2.4-2-3.9-4.9-4.3-7.9c3.1,1.4,6.3,2.6,9.5,3.6c-1.9-2.1-3-4.9-3.1-7.7
			c1.7,1.2,3.4,2.3,5.2,3.3c0.2,0.1,0.5,0.3,0.8,0.2c0.2-0.1,0.4-0.3,0.5-0.5c1.8-3.1,2.9-6.6,3.2-10.2c1.6,1.7,3.1,3.5,3.5,5.8
			c8-16,6.4-45.4-12.3-65.7c6,7.6,9.8,24.9,10.2,30.2c0.1,1.6,0.2,3.3-0.1,4.9c-0.3,1.6-1.1,3.2-2.5,4c-1.5,0.9-3.6,1.1-4.4,2.7
			c-0.4,0.7-0.3,1.6-0.3,2.4c0,2.1-0.3,4.2-1.1,6.2c-0.2,0.4-0.3,0.9-0.7,1.2c-0.8,0.7-1.9,0.5-2.9,0.5c-2.1,0.1-4.1,1.4-4.9,3.4
			c-0.5,1.2-0.6,2.6-1.7,3.3c-1.6,1.1-4.1-0.5-5.7,0.6c-1.6,1.1-0.9,3.9-2.3,5.2c-1.2,1-3.5,0.6-4.2,2.1c-0.3,0.7-0.1,1.6-0.2,2.3
			c-0.2,0.9-0.9,1.9-1.9,2.1c-5.5,1.2-18.2-4.6-27.9-12.1C126.9,225.2,147.9,239.2,165.1,236.8z"/>
	</g>
	<g>
		<path class="st4" d="M194.1,161.4c12.6-0.8,25.3-6.6,31.6-17.5c1.8-3.1,3-6.5,3.5-10.1c0-0.3,0.1-0.6-0.1-0.9
			c-0.2-0.4-0.7-0.6-1.1-0.8c-3.7-1.6-7.1-4.1-8.8-7.7c2.2-0.5,4.5-0.7,6.8-0.8c-2.6-3.6-5.7-6.7-9.3-9.3c3.2-0.4,6.4,0.7,8.9,2.8
			c-9.8-18.6-26.9-23.7-43.6-22c8.3-0.2,18.8,3.8,21.5,8.1c1,1.5,1.8,3.2,1.6,4.9c-0.3,2.4-2.2,4.9-1,7.1s5.1,2.4,5.5,4.9
			c0.3,1.7-1.4,3.1-1.3,4.8c0.1,2,2.7,3.3,2.7,5.4c0,1.3-0.9,2.3-1.1,3.6c-0.4,2.3,1.9,4.1,3,6.1c1.2,2.1,1.1,4.7,0.4,7
			c-0.8,2.3-2.2,4.2-3.8,6C206.7,155.9,200,160.6,194.1,161.4z"/>
	</g>
	<g>
		<path class="st1" d="M137.7,115.9c4-4.5,10.2-9.1,17.6-12.8l0,0c4.4-2.3,9.1-6.8,13.1-12.5c6.2-8.9,11-20.7,11.2-32.5l0,0
			c-1.4-8.6-5.7-13.2-8.8-13.4c-0.9-0.1-1.8,0.1-2.7-0.3c-1.4-0.6-1.9-2.2-2.9-3.4c-0.2-0.3-0.5-0.5-0.8-0.6c-1.3-0.6-2.7,0.8-4,1.3
			c-2.1,0.8-4.4-0.7-6.1-2.2c-1.7-1.5-3.5-3.3-5.8-3.2c-1.3,0-2.7,0.7-3.9,0.1c-1.3-0.6-1.7-2.1-2.6-3.1c-0.9-0.9-2.3-1.3-3.6-1.3
			s-2.5,0.5-3.8,0.9c-9,3.3-15.8,10.3-19.4,19.2c-1.7,7.1-2,14.1-1.6,20.5c0.4,6.2,1.6,11.8,2.7,16l0,0c1.3,4.8,1.6,9.8,0.3,14.6
			c-0.1,0.2-0.1,0.4-0.2,0.6c0.1-0.1,0.2-0.2,0.3-0.3c3.2-4,7.8-6.9,13.3-7.6c-0.1,3.4-0.5,9-0.5,9s5.1-2,8.4-3.5
			C140,106.5,139.6,111.6,137.7,115.9z"/>
	</g>
	<g>
		<path class="st4" d="M138.5,31.9c1.3,0,2.7,0.3,3.6,1.3c1,1,1.4,2.5,2.6,3.1c1.2,0.5,2.6-0.1,3.9-0.1c2.3,0,4.1,1.7,5.8,3.2
			s4,3,6.1,2.2c1.4-0.5,2.7-1.9,4-1.3c0.3,0.1,0.6,0.4,0.8,0.6c1,1.1,1.5,2.8,2.9,3.4c0.8,0.4,1.8,0.2,2.7,0.3
			c3.1,0.2,7.4,4.8,8.8,13.4c0.2-13.1-5.4-25.9-21.1-34.1c0.8,1.7,0.9,3.3,0.4,5c-2-1.8-4.2-3.4-6.5-4.8c0,1.2-0.8,4.3-0.9,5.5
			c-2.7-2-5.3-4.8-6.2-9.1c0-0.1-0.1-0.2-0.3-0.2c-0.1,0-0.2,0-0.3,0.1c-1.2,0.5-2.4,1-3.6,1.5c0.5-1.8,1.4-3.5,2.6-5
			c-17.3,9.2-25.3,22.2-28.5,35.1c3.6-8.9,10.3-15.9,19.4-19.2C135.9,32.4,137.2,32,138.5,31.9z"/>
	</g>
	<g>
		<path class="st4" d="M49,113.2c-6.4-6.6-11.5-21.2-6.6-29.1c0.6-0.9,1.5-1.7,2.6-1.9c1.5-0.4,3.3,0.2,4.7-0.6
			c1.9-1.1,1.6-4.1,3-5.9c2.2-2.7,7.2-1.2,9.4-3.9c1.1-1.3,1.1-3.3,1.3-5c0.2-1.8,0.8-3.8,2.4-4.4c2.3-0.8,5.1,1.6,7.1,0.2
			c0.6-0.4,1-1,1.4-1.6c1.6-2.1,4.2-3.3,6.9-3.6c2.6-0.3,10.3,0.9,18.6,6.8C92.4,57.5,82.8,52,73,50.5c-7.8-1.1-15.8,0.7-15.2,1.2
			c1.9,1.4,3.7,2.2,4.6,4.7c-4.4-2.2-11.7-2.6-12.9-0.3c-0.6,1.1,3.8,3.2,3.4,9.6c-4.6-1-6.7-6.1-8-4c-1.5,2.4-1.1,4.8-0.5,7.4
			c-1.3-1.1-2.5-2.2-3.8-3.3c-0.2-0.2-0.4-0.3-0.6-0.4c-0.7-0.2-1.2,0.5-1.5,1.1c-3.6,6.9-4.8,15-3,22.6
			C37.8,98.1,42.4,106.6,49,113.2z"/>
	</g>
	<g class="st2">
		<path class="st3" d="M68.2,125.3c6.4,2.1,13.3,3,20,3.5l0,0c1.9-1.6,4.1-2.8,6.4-3.6c-5.4-4.2-9.1-10.7-8.5-18.1
			c3.3,0.8,8.7,2.3,8.7,2.3s-0.9-5.4-1.7-8.9c8.8-1.5,16.1,3.1,20.1,9.6c0.8-2.2,2-4.4,3.5-6.3c1.6-5,1.3-10.2-0.1-15.2l0,0
			c-0.5-1.7-1.1-3.3-1.8-4.9c-1.8-2-3.9-3.7-6.4-4.7c-5.9-2.6-13.4-0.1-17.2,5.2c-1.6,2.2-2.7,5-5,6.5c-2.1,1.4-4.7,1.5-7,2.5
			c-3.1,1.3-5.6,4.1-6.5,7.3c-0.4,1.5-0.5,3-1,4.5c-1.3,3.7-5.1,6-6.5,9.6c-1.3,3.6,0.1,7.8,2.7,10.5
			C68,125.1,68.1,125.2,68.2,125.3z"/>
	</g>
	<g class="st2">
		<path class="st3" d="M100.5,183.6c0.3-0.2,0.5-0.4,0.8-0.6c2-2.8,3.7-5.8,5.1-8.9l0,0c2.4-5.4,3.9-11.1,4.5-17
			c-2.4-3.3-3.6-7.4-3.7-11.4c-5.8,4.7-13.9,6.8-21.4,3.7c1.8-2.9,4.9-7.5,4.9-7.5s-5.4-0.8-9-1.2c0.8-5,3.2-9,6.6-11.8
			c-7.3-0.5-14.8-1.6-21.7-4.1c-3.7,1.8-7,4.3-9.1,7.7c-3.7,6-2.2,14.4,2.8,19.4c2.2,2.1,4.9,3.8,6.2,6.5c1.1,2.4,0.9,5.3,1.5,7.9
			c0.8,3.6,3.5,6.7,6.8,8.2c1.5,0.7,3.2,1,4.7,1.8c3.7,2,5.6,6.5,9.3,8.5C92.3,186.8,97.1,186,100.5,183.6z"/>
	</g>
	<g class="st2">
		<path class="st3" d="M114.7,197.5c5.5,2.7,11.7-0.5,15.4-4.9c1.7-2.1,3.2-4.6,5.6-5.8c2.6-1.3,5.9-0.8,8.2-2.5
			c1.9-1.4,1.9-3.1,2.6-5.1c0.7-1.9,1.7-3.7,2.9-5.3c2.4-3,5.7-5.2,8.9-7.4c3.7-2.6,4.7-6.8,3.4-10.9c-0.7-2.2-1.7-4.3-2.9-6.1
			c-0.1-0.1-0.2-0.2-0.4-0.3c-4.6-3.3-10-6.1-16.1-8.3l0,0c-3.5,1.9-7.3,2.4-11,1.9c2.1,6.1,1.6,13.1-2.4,18.7
			c-2.4-2.4-6.3-6.4-6.3-6.4s-2,5.1-3.1,8.5c-3.8-1.5-6.6-3.8-8.6-6.7c-0.6,5.9-2.1,11.7-4.5,17l0,0c-1.6,3.8-2.4,7.7-2.6,11.5
			C105.9,190.7,109.5,195,114.7,197.5z"/>
	</g>
	<g class="st2">
		<path class="st3" d="M137.7,115.9c4-4.5,10.2-9.1,17.6-12.8l0,0c4.4-2.3,9.1-6.8,13.1-12.5c0.6-2.3,0.7-4.8,0.3-7.2
			c-0.5-3.1-2.1-6.6-5.2-7.3c-2.7-0.6-5.2,1.1-7.6,2.5c-2.4,1.4-5.4,2.5-7.7,1c-1.7-1.2-2.4-3.6-4.2-4.5c-2.3-1.2-5,0.7-7.6,0.7
			c-4.9,0.1-8-5.9-12.8-6.7c-1.5-0.3-3.1,0-4.6,0.5c-1.9,0.6-3.8,1.6-5.2,3.1c0.4,6.2,1.6,11.8,2.7,16l0,0c1.3,4.8,1.6,9.8,0.3,14.6
			c0,0.1,0,0.2,0.1,0.3c3.2-4,7.8-6.9,13.3-7.6c-0.1,3.4-0.5,9-0.5,9s5.1-2,8.4-3.5C140,106.5,139.6,111.6,137.7,115.9z"/>
	</g>
	<g>
		<g>
			<path class="st5" d="M119.1,121.8c-2.4-7.6-4.1-15.1-8.8-21.7c-4.1-5.8-9.2-9.6-15.2-12.5c-0.3,0.1-0.6,0.1-0.9,0
				c-1.8,0.7-3.9,0.4-5.6-0.2c-1.9-0.6-4.2-1.6-4.9-3.6c-0.8-2.1,0.4-4.2,2.4-4.9c2.3-0.8,5.7-0.2,8.1,1.4c0.5,0.2,0.9,0.5,1.2,0.8
				c0.3,0.2,0.5,0.5,0.7,0.8c0.5,0.6,0.8,1.2,1,1.9c0.2,0.6,0.2,1.1,0.1,1.6c13.6,5.6,23.2,22.1,23.9,36
				C121.1,122.4,119.5,123,119.1,121.8z"/>
		</g>
		<g>
			<path class="st5" d="M84.3,120.1c-5.8-3.6-11.7-8.6-13.9-15.1c-0.4-0.1-0.9-0.3-1.2-0.5c-2.5-1.6-4.8-6.6-1.9-8.9
				c1.5-1.2,3.6-0.4,5,0.7s2.3,2.8,2.5,4.6c0.1,0.6,0,1.3-0.2,1.8c-0.1,0.6-0.4,1.1-0.9,1.6c-0.3,0.4-0.7,0.6-1.1,0.7
				c2.9,6.3,9.4,11,15.2,14.1c7.3,3.8,15,5.3,23.1,5.7c1.3,0.1,1.2,2.2-0.1,2.2C101.5,127.7,92.2,124.9,84.3,120.1z"/>
		</g>
		<g>
			<path class="st5" d="M56.4,146.9c0.3-1.7,1.1-3.5,2.4-4.9c0.9-1.8,2.3-3.3,4.5-3.2c0.2,0,0.4,0,0.5,0.1
				c5.6-6.9,15.1-9.1,23.7-9.9c10.2-0.9,21.2,0.6,30.3,5.5c1.1,0.6,0.4,2.2-0.8,1.8c-15.3-5.4-38.5-9.2-51.4,3.6
				c0.8,1.1,0.6,2.8,0.1,4.3c-0.8,2.6-2.7,4.9-5.2,6.1C57.9,151.3,55.9,149.7,56.4,146.9z"/>
		</g>
		<g>
			<path class="st5" d="M82.7,180.7c-1.4-2.1,0.7-4.8,2.4-6c0.3-0.2,0.7-0.4,1.1-0.6c1.5-0.9,3.3-1.2,4.6,0.1
				c0.1,0.1,0.2,0.1,0.3,0.2c10.8-9.8,15.5-23.5,14.2-38c-0.1-1,1.3-1.1,1.5-0.2c3.3,14.8-3,30.8-14.7,40.3c0.1,2.2-1.9,4.2-4,4.7
				c0,0,0,0-0.1,0C86.3,182.2,83.9,182.4,82.7,180.7z"/>
		</g>
		<g>
			<path class="st5" d="M154.4,179.3c-2.5-1.6-4-4.7-4.3-7.6c-0.1-1.8,0.6-3,1.7-3.6c-5.4-13.8-16.7-22.8-31.1-27.1
				c-1-0.3-0.8-1.8,0.3-1.6c15.3,1.6,28.6,14,33.5,28.3c0.6,0.1,1.3,0.3,2,0.7c2.8,1.5,5.1,5.3,4.2,8.5c-0.5,1.7-1.6,2.7-2.9,3
				C156.8,180.3,155.6,180.1,154.4,179.3z"/>
		</g>
		<g>
			<path class="st5" d="M133.5,199.1c-1.6-1-3.8-2.6-4.2-4.5c0-0.2-0.1-0.4-0.1-0.6c-0.1-0.4-0.1-0.7,0-1.1c0-0.1,0-0.2,0-0.4
				c-12.2-10.4-14.3-30.6-11.9-45.4c0.2-0.9,1.5-0.7,1.5,0.2c-1.4,14.9,0.7,32.3,11.7,43.3c0.2-0.1,0.5-0.2,0.8-0.3
				c2.4-0.6,5.4,0.6,7.3,2c1.5,1,3.1,2.6,3.2,4.5c0.1,1-0.2,1.7-0.8,2.3c-0.3,0.5-0.8,0.8-1.3,1
				C137.8,201.3,135.2,200.1,133.5,199.1z"/>
		</g>
		<g>
			<path class="st5" d="M174.2,138L174.2,138c-14.5,2.1-29.6-0.7-41.9-8.8c-0.8-0.5,0.1-1.9,0.9-1.5c12.6,6.7,26.5,9.6,40.4,7.7
				c1.1-2.5,3.2-4.2,6-4.7c2.5-0.4,6.6,0.2,7.3,3.1c0.6,2.8-2.3,5.4-4.6,6.4c-2.4,1-6.7,0.9-7.9-1.9
				C174.3,138.2,174.3,138.1,174.2,138z"/>
		</g>
		<g>
			<path class="st5" d="M132.4,125.5c9.4-8.6,22.1-14.1,35-14.7c0-0.1,0.1-0.2,0.2-0.2c0.3-0.3,0.7-0.6,1-0.8
				c0.1-0.1,0.2-0.2,0.4-0.2c1.7-2.6,6.9-2.1,9.3-1.2c3.4,1.3,4.4,5.2,1.3,7.5c-2.8,2-7.8,2.3-10.6,0.3c-1.1-0.8-1.7-1.8-1.9-2.9
				c-12.3,1.2-23.6,5.7-33.4,14.1C132.6,128.3,131.3,126.4,132.4,125.5z"/>
		</g>
		<g>
			<path class="st5" d="M131.1,115.7c-9.3-12.4-11-30.5-4.9-44.9c0-0.1,0-0.1,0-0.2c-0.1-0.2-0.2-0.3-0.2-0.5
				c-0.6-3.3,0.2-12.4,5.5-11.5c6.6,1.1,2.6,14-2.7,14.3c-0.2,0-0.4,0-0.6,0c-2.1,5.5-3.2,11.2-3,17.4c0.3,6.7,2.1,12.8,4.9,18.6
				c8.2-4,15.2-10.1,20.1-17.9c3.2-5.1,6.4-12,6.7-18.6c0-0.5-1.8-1.1-2.2-1.4c-2.7-2.1-5.3-6.1-3.5-9.6c1.3-2.5,4.4-2.9,6.8-1.8
				c2.7,1.3,4,4.7,4,7.6c0,1.7-0.7,2.3-1.4,3.8c-0.2,0.5-0.5,0.9-0.9,1.2l0,0c-0.1,0.3-0.3,0.4-0.6,0.5c-0.2,6.4-3.1,13.1-6,18.1
				c-5.1,8.9-12.7,15.8-21.9,20.1c0.6,1.1,1.2,2.2,1.8,3.2C133.8,115.7,132,117,131.1,115.7z"/>
		</g>
	</g>
	<g>
		<g>
			<path class="st3" d="M115,128.4c-3.7-5.5-4.1-12.4-1.9-18.4c-4-6.4-11.3-11-20.1-9.6c0.8,3.6,1.7,8.9,1.7,8.9s-5.4-1.5-8.7-2.3
				c-0.5,7.4,3.1,13.9,8.5,18.1C101.6,122.6,109.8,123.6,115,128.4z"/>
		</g>
		<g>
			<path class="st3" d="M85.7,149.3c7.5,3.1,15.7,1.1,21.4-3.7c-0.3-6.8,2.5-13.6,7.8-17.2c-6.9,2.9-14.7,1.2-20.4-3.2
				c-2.3,0.8-4.5,2.1-6.4,3.6l0,0c-3.4,2.8-5.8,6.8-6.6,11.8c3.6,0.4,9,1.2,9,1.2S87.5,146.4,85.7,149.3z"/>
		</g>
		<g>
			<path class="st5" d="M115,128.4c-5.1-4.8-13.4-5.8-20.4-3.2C100.3,129.6,108.1,131.3,115,128.4z"/>
		</g>
		<g>
			<path class="st3" d="M119.6,163.7c1.1-3.5,3.1-8.5,3.1-8.5s3.8,4,6.3,6.4c4-5.7,4.4-12.7,2.4-18.7c-7.9-1.1-15-6.9-16.3-14.3
				c0.5,6.7-2.7,12.9-7.8,17.1c0.2,4,1.4,8,3.7,11.4C112.9,159.9,115.8,162.2,119.6,163.7z"/>
		</g>
		<g>
			<path class="st5" d="M107.2,145.6c5.1-4.1,8.3-10.4,7.8-17.1v-0.1l0,0C109.7,132,106.9,138.8,107.2,145.6z"/>
		</g>
		<g>
			<path class="st3" d="M131.3,142.8c3.7,0.5,7.6,0,11-1.9l0,0c1.4-0.8,2.8-1.8,4.1-3.1c-2.5-2.3-6.1-5.9-6.1-5.9s4.9-1.7,7.8-2.9
				c-3-5-7.9-7.9-13.2-8.8c-4.4,5.7-11.7,9.3-18.4,8.4C123.6,130.4,129,136,131.3,142.8z"/>
		</g>
		<g>
			<path class="st5" d="M131.3,142.8c-2.3-6.8-7.7-12.5-14.7-14.1l0,0c-0.5-0.1-1.1-0.2-1.6-0.3v0.1
				C116.3,135.9,123.4,141.7,131.3,142.8z"/>
		</g>
		<g>
			<path class="st3" d="M115,128.4c4.2-6.7,12.5-9.4,20-8.1c1.1-1.4,2-2.9,2.7-4.4c1.9-4.3,2.3-9.4,0.3-14.6
				c-3.3,1.5-8.4,3.5-8.4,3.5s0.4-5.6,0.5-9c-5.6,0.7-10.3,3.8-13.5,7.9c-1.5,1.9-2.6,4-3.5,6.3C116.6,115.7,117.7,122.7,115,128.4z
				"/>
		</g>
		<g>
			<path class="st5" d="M115,128.4c2.7-5.7,1.7-12.8-1.9-18.4C110.9,116.1,111.2,122.9,115,128.4z"/>
		</g>
		<g>
			<path class="st5" d="M115,128.4c0.5,0.1,1.1,0.2,1.6,0.3l0,0c6.8,0.9,14-2.7,18.4-8.4C127.4,119,119.2,121.7,115,128.4z"/>
		</g>
	</g>
</g>
</svg>
