<?xml version="1.0" encoding="utf-8"?>
<!-- Generator: Adobe Illustrator 27.0.0, SVG Export Plug-In . SVG Version: 6.00 Build 0)  -->
<svg version="1.1" id="그룹_2777" xmlns="http://www.w3.org/2000/svg" xmlns:xlink="http://www.w3.org/1999/xlink" x="0px"
	 y="0px" viewBox="0 0 48 24" style="enable-background:new 0 0 48 24;" xml:space="preserve">
<style type="text/css">
	.st0{fill:#FFFFFF;}
	.st1{fill:#68C0B5;}
</style>
<g>
	<path id="패스_12" class="st0" d="M12,0C5.4,0,0,5.4,0,12s5.4,12,12,12s12-5.4,12-12S18.6,0,12,0z M12,22.2
		C6.4,22.2,1.8,17.6,1.8,12S6.4,1.8,12,1.8S22.2,6.3,22.2,12C22.2,17.6,17.6,22.2,12,22.2L12,22.2z"/>
	<path id="패스_13" class="st1" d="M18.6,10.7c-0.4,0-0.7,0.2-1,0.5l0,0c-0.2,0.3-0.5,0.5-0.8,0.7c-0.6,0.3-1.2,0.3-1.8,0
		c-0.3-0.2-0.6-0.4-0.8-0.7l0,0c-0.4-0.5-1.1-0.7-1.6-0.3s-0.7,1.1-0.3,1.6l0,0l0,0l0,0c1.4,2,4.1,2.5,6.1,1.1
		c0.4-0.3,0.8-0.6,1.1-1.1l0,0l0,0c0.4-0.5,0.2-1.3-0.3-1.6C19.1,10.7,18.9,10.7,18.6,10.7L18.6,10.7z"/>
</g>
<g>
	<path id="패스_12_00000115487933609284387390000004426244997974559132_" class="st0" d="M36,0c-6.6,0-12,5.4-12,12s5.4,12,12,12
		s12-5.4,12-12S42.6,0,36,0z M36,22.2c-5.6,0-10.2-4.5-10.2-10.2S30.4,1.8,36,1.8S46.2,6.3,46.2,12C46.2,17.6,41.6,22.2,36,22.2
		L36,22.2z"/>
	<path id="패스_13_00000173151107129364676790000005102028939214052272_" class="st0" d="M42.6,10.7c-0.4,0-0.7,0.2-1,0.5l0,0
		c-0.2,0.3-0.5,0.5-0.8,0.7c-0.6,0.3-1.2,0.3-1.8,0c-0.3-0.2-0.6-0.4-0.8-0.7l0,0c-0.4-0.5-1.1-0.7-1.6-0.3s-0.7,1.1-0.3,1.6l0,0
		l0,0l0,0c1.4,2,4.1,2.5,6.1,1.1c0.4-0.3,0.8-0.6,1.1-1.1l0,0l0,0c0.4-0.5,0.2-1.3-0.3-1.6C43.1,10.7,42.9,10.7,42.6,10.7L42.6,10.7
		z"/>
</g>
</svg>
