<?xml version="1.0" encoding="utf-8"?>
<!-- Generator: Adobe Illustrator 26.5.0, SVG Export Plug-In . SVG Version: 6.00 Build 0)  -->
<svg version="1.1" id="Layer_1" xmlns="http://www.w3.org/2000/svg" xmlns:xlink="http://www.w3.org/1999/xlink" x="0px" y="0px"
	 viewBox="0 0 48 24" style="enable-background:new 0 0 48 24;" xml:space="preserve">
<style type="text/css">
	.st0{clip-path:url(#SVGID_00000068650660548588808940000011757894861094620049_);}
	.st1{fill:#68C0B5;}
	.st2{clip-path:url(#SVGID_00000065777679269363009900000007966923896224151170_);}
	.st3{fill:#FFFFFF;}
</style>
<g>
	<g>
		<defs>
			<rect id="SVGID_1_" y="2" width="24" height="20"/>
		</defs>
		<clipPath id="SVGID_00000058557282926408000470000017313130246114937004_">
			<use xlink:href="#SVGID_1_"  style="overflow:visible;"/>
		</clipPath>
		<g id="그룹_2779" style="clip-path:url(#SVGID_00000058557282926408000470000017313130246114937004_);">
			<path id="패스_964" d="M24,3c0-0.6-0.4-1-1-1H1C0.4,2,0,2.4,0,3l0,0c0,0,0,0,0,0V21c0,0,0,0,0,0c0,0,0,0,0,0l0,0
				c0,0.6,0.4,1,1,1c0,0,0.1,0,0.1,0h21.8c0,0,0.1,0,0.1,0c0.6,0,1-0.4,1-1l0,0l0,0V3L24,3 M6.8,20H3l3.5-4.8l1.9,2.6L6.8,20z
				 M22,20H9.3l0.4-0.5l1.2-1.7l5.3-7.1l5.8,7.8V20z M22,15.2l-5-6.7c-0.3-0.5-0.9-0.6-1.4-0.3c0,0-0.1,0-0.1,0.1l0,0c0,0,0,0-0.1,0
				l0,0l0,0l0,0l0,0l0,0l0,0l-5.7,7.7L7.3,13c-0.1-0.2-0.3-0.3-0.6-0.4h0c0,0-0.1,0-0.1,0h0c-0.2,0-0.3,0-0.4,0.1l0,0l-0.1,0l-0.1,0
				l0,0l0,0l0,0l0,0l0,0h0h0l0,0l0,0c0,0-0.1,0.1-0.1,0.1l0,0l0,0l0,0l0,0L2,18V4h20V15.2z"/>
			<path id="패스_965" class="st1" d="M5.5,9C6.3,9,7,8.3,7,7.5S6.3,6,5.5,6S4,6.7,4,7.5S4.7,9,5.5,9"/>
		</g>
	</g>
</g>
<g>
	<g>
		<defs>
			<rect id="SVGID_00000060011788312857358910000012809978472332272538_" x="24" y="2" width="24" height="20"/>
		</defs>
		<clipPath id="SVGID_00000153700184329316006450000008170100663758349196_">
			<use xlink:href="#SVGID_00000060011788312857358910000012809978472332272538_"  style="overflow:visible;"/>
		</clipPath>
		
			<g id="그룹_2779_00000056420586973276512360000003741711638884411800_" style="clip-path:url(#SVGID_00000153700184329316006450000008170100663758349196_);">
			<path id="패스_964_00000175314599968378874940000003624467264751363767_" class="st3" d="M48,3c0-0.6-0.4-1-1-1H25
				c-0.6,0-1,0.4-1,1l0,0c0,0,0,0,0,0V21c0,0,0,0,0,0c0,0,0,0,0,0l0,0c0,0.6,0.4,1,1,1c0,0,0.1,0,0.1,0h21.8c0,0,0.1,0,0.1,0
				c0.6,0,1-0.4,1-1l0,0l0,0V3L48,3 M30.8,20H27l3.5-4.8l1.9,2.6L30.8,20z M46,20H33.3l0.4-0.5l1.2-1.7l5.3-7.1l5.8,7.8V20z
				 M46,15.2l-5-6.7c-0.3-0.5-0.9-0.6-1.4-0.3c0,0-0.1,0-0.1,0.1l0,0c0,0,0,0-0.1,0l0,0l0,0l0,0l0,0l0,0l0,0l-5.7,7.7L31.3,13
				c-0.1-0.2-0.3-0.3-0.6-0.4h0c0,0-0.1,0-0.1,0h0c-0.1,0-0.3,0-0.4,0.1l0,0l-0.1,0l-0.1,0l0,0l0,0l0,0l0,0l0,0h0h0l0,0l0,0
				c0,0-0.1,0.1-0.1,0.1l0,0l0,0l0,0l0,0L26,18V4h20V15.2z"/>
			<path id="패스_965_00000176735268697693913110000002724073906790372500_" class="st3" d="M29.5,9C30.3,9,31,8.3,31,7.5
				S30.3,6,29.5,6S28,6.7,28,7.5S28.7,9,29.5,9"/>
		</g>
	</g>
</g>
</svg>
