<?xml version="1.0" encoding="utf-8"?>
<!-- Generator: Adobe Illustrator 26.5.0, SVG Export Plug-In . SVG Version: 6.00 Build 0)  -->
<svg version="1.1" id="Layer_1" xmlns="http://www.w3.org/2000/svg" xmlns:xlink="http://www.w3.org/1999/xlink" x="0px" y="0px"
	 viewBox="0 0 48 24" style="enable-background:new 0 0 48 24;" xml:space="preserve">
<style type="text/css">
	.st0{clip-path:url(#SVGID_00000163031868969489267060000001834049114610260118_);}
	.st1{fill:#68C0B5;}
	.st2{clip-path:url(#SVGID_00000067925811742851435840000006108579879506799754_);}
	.st3{fill:#FFFFFF;}
</style>
<g>
	<defs>
		<rect id="SVGID_1_" width="24" height="24"/>
	</defs>
	<clipPath id="SVGID_00000146457401959561530700000010201718046284850066_">
		<use xlink:href="#SVGID_1_"  style="overflow:visible;"/>
	</clipPath>
	<g id="그룹_2778" style="clip-path:url(#SVGID_00000146457401959561530700000010201718046284850066_);">
		<path id="패스_958" d="M9.8,6.5h9.5c0.4,0,0.8-0.3,0.8-0.7C20,5.4,19.7,5,19.3,5c0,0,0,0-0.1,0H9.8C9.3,5,9,5.3,9,5.7
			C9,6.1,9.3,6.5,9.8,6.5C9.7,6.5,9.7,6.5,9.8,6.5"/>
		<path id="패스_959" class="st1" d="M9.8,9.6h9.5c0.4,0,0.8-0.3,0.8-0.7c0-0.4-0.3-0.8-0.7-0.8c0,0,0,0-0.1,0H9.8
			C9.3,8.1,9,8.4,9,8.9C9,9.3,9.3,9.6,9.8,9.6C9.7,9.6,9.7,9.6,9.8,9.6"/>
		<path id="패스_960" d="M9.8,12.8h9.5c0.4,0,0.8-0.3,0.8-0.7c0-0.4-0.3-0.8-0.7-0.8c0,0,0,0-0.1,0H9.8C9.3,11.2,9,11.6,9,12
			C9,12.4,9.3,12.7,9.8,12.8C9.7,12.8,9.7,12.8,9.8,12.8"/>
		<path id="패스_961" class="st1" d="M9.8,15.9h9.5c0.4,0,0.8-0.3,0.8-0.7s-0.3-0.8-0.7-0.8c0,0,0,0-0.1,0H9.8
			c-0.4,0-0.8,0.3-0.8,0.7S9.3,15.9,9.8,15.9C9.7,15.9,9.7,15.9,9.8,15.9"/>
		<path id="패스_962" d="M9.8,19h9.5c0.4,0,0.8-0.3,0.8-0.7s-0.3-0.8-0.7-0.8c0,0,0,0-0.1,0H9.8c-0.4,0-0.8,0.3-0.8,0.7
			S9.3,19,9.8,19C9.7,19,9.7,19,9.8,19"/>
		<path id="패스_963" d="M24,1C24,1,24,1,24,1c0-0.6-0.4-1-1-1h-0.1H3.1L3,0C2.4,0,2,0.4,2,1l0,0v2H1C0.4,3,0,3.4,0,4s0.4,1,1,1h1
			v2H1C0.4,7,0,7.4,0,8s0.4,1,1,1h1v2H1c-0.6,0-1,0.4-1,1s0.4,1,1,1h1v2H1c-0.6,0-1,0.4-1,1c0,0.6,0.4,1,1,1h1v2H1c-0.6,0-1,0.4-1,1
			s0.4,1,1,1h1v2l0,0c0,0.6,0.4,1,1,1h20c0.6,0,1-0.4,1-1c0,0,0,0,0,0V1z M5,19H4v-2h1c0.6,0,1-0.4,1-1c0-0.6-0.4-1-1-1H4v-2h1
			c0.6,0,1-0.4,1-1s-0.4-1-1-1H4V9h1c0.6,0,1-0.4,1-1S5.6,7,5,7H4V5h1c0.6,0,1-0.4,1-1S5.6,3,5,3H4V2h18v20H4v-1h1c0.6,0,1-0.4,1-1
			S5.6,19,5,19"/>
	</g>
</g>
<g>
	<defs>
		<rect id="SVGID_00000095331298057401696340000006228326132655134887_" x="24" width="24" height="24"/>
	</defs>
	<clipPath id="SVGID_00000130632466580116829780000009845761023175497100_">
		<use xlink:href="#SVGID_00000095331298057401696340000006228326132655134887_"  style="overflow:visible;"/>
	</clipPath>
	
		<g id="그룹_2778_00000170270576669481760970000005770396451242863790_" style="clip-path:url(#SVGID_00000130632466580116829780000009845761023175497100_);">
		<path id="패스_958_00000104673132594910324000000007921959026391388855_" class="st3" d="M33.8,6.5h9.5c0.4,0,0.8-0.3,0.8-0.7
			C44,5.4,43.7,5,43.3,5c0,0,0,0-0.1,0h-9.5C33.3,5,33,5.3,33,5.7C33,6.1,33.3,6.5,33.8,6.5C33.7,6.5,33.7,6.5,33.8,6.5"/>
		<path id="패스_959_00000107548654736851370780000000195095944372129665_" class="st3" d="M33.8,9.6h9.5c0.4,0,0.8-0.3,0.8-0.7
			c0-0.4-0.3-0.8-0.7-0.8c0,0,0,0-0.1,0h-9.5c-0.4,0-0.8,0.3-0.8,0.7C33,9.3,33.3,9.6,33.8,9.6C33.7,9.6,33.7,9.6,33.8,9.6"/>
		<path id="패스_960_00000058547216371141145290000002152937568478145180_" class="st3" d="M33.8,12.8h9.5c0.4,0,0.8-0.3,0.8-0.7
			c0-0.4-0.3-0.8-0.7-0.8c0,0,0,0-0.1,0h-9.5c-0.4,0-0.8,0.3-0.8,0.7C33,12.4,33.3,12.7,33.8,12.8C33.7,12.8,33.7,12.8,33.8,12.8"/>
		<path id="패스_961_00000124840231054396102850000012821611432638680977_" class="st3" d="M33.8,15.9h9.5c0.4,0,0.8-0.3,0.8-0.7
			s-0.3-0.8-0.7-0.8c0,0,0,0-0.1,0h-9.5c-0.4,0-0.8,0.3-0.8,0.7S33.3,15.9,33.8,15.9C33.7,15.9,33.7,15.9,33.8,15.9"/>
		<path id="패스_962_00000078732109169950797360000002787465578648273541_" class="st3" d="M33.8,19h9.5c0.4,0,0.8-0.3,0.8-0.7
			s-0.3-0.8-0.7-0.8c0,0,0,0-0.1,0h-9.5c-0.4,0-0.8,0.3-0.8,0.7S33.3,19,33.8,19C33.7,19,33.7,19,33.8,19"/>
		<path id="패스_963_00000156563047177529513270000010173289276569942431_" class="st3" d="M48,1C48,1,48,1,48,1c0-0.6-0.4-1-1-1
			h-0.1H27.1L27,0c-0.6,0-1,0.4-1,1l0,0v2h-1c-0.6,0-1,0.4-1,1s0.4,1,1,1h1v2h-1c-0.6,0-1,0.4-1,1s0.4,1,1,1h1v2h-1
			c-0.6,0-1,0.4-1,1s0.4,1,1,1h1v2h-1c-0.6,0-1,0.4-1,1c0,0.6,0.4,1,1,1h1v2h-1c-0.6,0-1,0.4-1,1s0.4,1,1,1h1v2l0,0c0,0.6,0.4,1,1,1
			h20c0.6,0,1-0.4,1-1c0,0,0,0,0,0V1z M29,19h-1v-2h1c0.6,0,1-0.4,1-1c0-0.6-0.4-1-1-1h-1v-2h1c0.6,0,1-0.4,1-1s-0.4-1-1-1h-1V9h1
			c0.6,0,1-0.4,1-1s-0.4-1-1-1h-1V5h1c0.6,0,1-0.4,1-1s-0.4-1-1-1h-1V2h18v20H28v-1h1c0.6,0,1-0.4,1-1S29.6,19,29,19"/>
	</g>
</g>
</svg>
