<?xml version="1.0" encoding="utf-8"?>
<!-- Generator: Adobe Illustrator 27.2.0, SVG Export Plug-In . SVG Version: 6.00 Build 0)  -->
<svg version="1.1" id="레이어_1" xmlns="http://www.w3.org/2000/svg" xmlns:xlink="http://www.w3.org/1999/xlink" x="0px"
	 y="0px" viewBox="0 0 100 50" style="enable-background:new 0 0 100 50;" xml:space="preserve">
<style type="text/css">
	.st0{fill:#AB00FF;}
	.st1{fill:#FFFFFF;}
</style>
<path class="st0" d="M78.9,0.3H21.1C9.7,0.3,0.5,9.5,0.5,20.8v0c0,11.4,9.2,20.6,20.6,20.6h19.4l9.4,8.4l9.7-8.4h19.4
	c11.4,0,20.6-9.2,20.6-20.6v0C99.5,9.5,90.3,0.3,78.9,0.3z"/>
<g>
	<path class="st1" d="M21.9,31.2c-1.5,0-2.9-0.3-4.1-0.8c-1.3-0.5-2.3-1.2-3.3-2.1c-0.9-0.9-1.6-2-2.1-3.2c-0.5-1.2-0.8-2.5-0.8-3.9
		v-0.1c0-1.4,0.3-2.7,0.8-3.9c0.5-1.2,1.2-2.3,2.1-3.2c0.9-0.9,2-1.6,3.3-2.2c1.3-0.5,2.7-0.8,4.1-0.8c1.5,0,2.9,0.3,4.1,0.8
		c1.3,0.5,2.3,1.2,3.3,2.1c0.9,0.9,1.6,2,2.1,3.2c0.5,1.2,0.8,2.5,0.8,3.9v0.1c0,1.4-0.3,2.7-0.8,3.9c-0.5,1.2-1.2,2.3-2.2,3.2
		c-0.9,0.9-2,1.6-3.3,2.2C24.8,30.9,23.4,31.2,21.9,31.2z M22,27.2c0.9,0,1.6-0.2,2.4-0.5c0.7-0.3,1.3-0.7,1.8-1.3
		c0.5-0.6,0.9-1.2,1.2-1.9c0.3-0.7,0.4-1.5,0.4-2.3v-0.1c0-0.8-0.1-1.6-0.4-2.4c-0.3-0.7-0.7-1.4-1.2-1.9c-0.5-0.6-1.2-1-1.9-1.3
		c-0.7-0.3-1.5-0.5-2.4-0.5c-0.9,0-1.7,0.2-2.4,0.5c-0.7,0.3-1.3,0.7-1.8,1.3c-0.5,0.6-0.9,1.2-1.2,1.9c-0.3,0.7-0.4,1.5-0.4,2.3
		v0.1c0,0.8,0.1,1.6,0.4,2.4c0.3,0.7,0.7,1.4,1.2,1.9c0.5,0.6,1.1,1,1.9,1.3C20.3,27.1,21.1,27.2,22,27.2z"/>
	<path class="st1" d="M35.4,11.4h7.9c1.2,0,2.2,0.2,3.1,0.5c0.9,0.3,1.7,0.8,2.3,1.4c0.6,0.6,1.1,1.3,1.5,2.1
		c0.3,0.8,0.5,1.7,0.5,2.7v0.1c0,1.1-0.2,2.1-0.6,3c-0.4,0.9-1,1.6-1.7,2.1c-0.7,0.6-1.5,1-2.5,1.3c-1,0.3-2,0.4-3.1,0.4h-3.2v5.8
		h-4.3V11.4z M43,21.2c1.1,0,1.9-0.3,2.5-0.8c0.6-0.6,0.9-1.3,0.9-2.1v-0.1c0-1-0.3-1.7-0.9-2.2c-0.6-0.5-1.5-0.7-2.5-0.7h-3.3v5.9
		H43z"/>
	<path class="st1" d="M53.2,11.4h14.6v3.8H57.4v3.9h9.2V23h-9.2V27H68v3.8H53.2V11.4z"/>
	<path class="st1" d="M71.1,11.4h3.9l9.1,12v-12h4.2v19.4h-3.6l-9.4-12.3v12.3h-4.2V11.4z"/>
</g>
</svg>
